<svg width="17" height="15" viewBox="0 0 17 15" fill="none" xmlns="http://www.w3.org/2000/svg">
<path d="M6.4843 0.561904C6.39207 0.550034 6.29831 0.557515 6.20901 0.583869C6.1197 0.610223 6.03681 0.654871 5.96561 0.714969C5.8944 0.775066 5.83646 0.849294 5.79546 0.93292C5.75446 1.01654 5.73132 1.10773 5.7275 1.20067C5.72368 1.29361 5.73926 1.38626 5.77327 1.47271C5.80727 1.55916 5.85895 1.63752 5.92499 1.70279C5.99104 1.76806 6.07002 1.8188 6.15688 1.8518C6.24375 1.88479 6.3366 1.8993 6.42951 1.89441L13.2327 2.15476L1.53359 12.967C1.41346 13.0904 1.34511 13.255 1.3426 13.4269C1.34009 13.5988 1.40363 13.7648 1.52011 13.8909C1.63659 14.0169 1.79715 14.0933 1.9687 14.1043C2.14024 14.1154 2.30971 14.0602 2.44217 13.9501L14.1413 3.13787L13.8562 9.94143C13.8531 10.117 13.9177 10.2868 14.0367 10.4156C14.1557 10.5443 14.3199 10.6221 14.4952 10.6328C14.5827 10.6362 14.6701 10.6224 14.7524 10.592C14.8347 10.5616 14.9102 10.5153 14.9747 10.4557C15.0391 10.3962 15.0912 10.3245 15.128 10.2449C15.1647 10.1652 15.1855 10.0792 15.1889 9.99164L15.5351 1.57022C15.5404 1.48233 15.5279 1.39434 15.4984 1.31151C15.4689 1.22868 15.4229 1.15271 15.3632 1.08816C15.3036 1.02362 15.2315 0.971808 15.1512 0.935845C15.071 0.899882 14.9842 0.880502 14.8962 0.878864L6.4843 0.561904Z" fill="white" stroke="white"/>
</svg>
