<svg width="20" height="19" viewBox="0 0 20 19" fill="none" xmlns="http://www.w3.org/2000/svg">
<path d="M0 10.2071V4.91979C0 4.43955 0.190772 3.97899 0.530347 3.63941C0.869923 3.29984 1.33049 3.10907 1.81072 3.10907H18.1893C18.6695 3.10907 19.1301 3.29984 19.4697 3.63941C19.8092 3.97899 20 4.43955 20 4.91979V10.2071H0ZM13.7615 11.4142C13.6178 12.3071 13.1609 13.1197 12.4725 13.7062C11.784 14.2928 10.9092 14.6149 10.0048 14.6149C9.10044 14.6149 8.22562 14.2928 7.53721 13.7062C6.84879 13.1197 6.39181 12.3071 6.24819 11.4142H0V16.7015C0.000638772 17.1816 0.191616 17.6418 0.531053 17.9812C0.87049 18.3206 1.33068 18.5116 1.81072 18.5123H18.1893C18.6693 18.5116 19.1295 18.3206 19.4689 17.9812C19.8084 17.6418 19.9994 17.1816 20 16.7015V11.4142H13.7615ZM10 13.4133C10.5847 13.4117 11.152 13.2137 11.6108 12.8513C12.0696 12.4888 12.3933 11.9827 12.5302 11.4142H7.46016C7.5974 11.9843 7.92262 12.4916 8.38339 12.8542C8.84416 13.2169 9.41363 13.4138 10 13.4133ZM6.36166 1.90192C6.42457 1.74659 6.53236 1.61354 6.67127 1.51979C6.81018 1.42603 6.97389 1.37583 7.14148 1.3756H12.8585C13.0256 1.37544 13.1889 1.42493 13.3277 1.51778C13.4666 1.61064 13.5747 1.74266 13.6383 1.89709H14.8841C14.8063 1.41558 14.5598 0.977396 14.1888 0.660762C13.8178 0.344128 13.3463 0.169645 12.8585 0.168457H7.14148C6.65371 0.169645 6.18224 0.344128 5.81121 0.660762C5.44018 0.977396 5.19374 1.41558 5.11589 1.89709L6.36166 1.90192Z" fill="white"/>
</svg>
