<svg width="23" height="21" viewBox="0 0 23 21" fill="none" xmlns="http://www.w3.org/2000/svg">
<path d="M15.7851 12.5913C15.22 13.1463 14.5497 13.5828 13.8136 13.8754C13.0775 14.1679 12.2904 14.3106 11.4985 14.295C11.0576 14.295 10.6145 14.295 10.1737 14.295C10.1007 14.2902 10.0275 14.3023 9.95989 14.3301C9.89224 14.358 9.83185 14.4009 9.78335 14.4557C8.78917 15.5027 7.78581 16.5428 6.79852 17.5852C6.70627 17.694 6.59167 17.7817 6.46252 17.8423C6.33337 17.9029 6.19268 17.9351 6.05002 17.9365C5.93066 17.9362 5.81256 17.9121 5.70266 17.8655C5.59277 17.8189 5.49329 17.7509 5.41008 17.6653C5.32686 17.5797 5.2616 17.4784 5.21811 17.3673C5.17463 17.2561 5.1538 17.1374 5.15686 17.0181C5.15686 16.1502 5.15686 15.283 5.15686 14.4167C5.15686 14.2514 5.11094 14.1871 4.94333 14.1549C2.49578 13.5258 1.00336 11.9301 0.277819 9.56288C0.161736 9.11569 0.0690048 8.66276 0 8.20593L0 6.94771C0.0442626 6.54722 0.12105 6.151 0.229602 5.76297C0.828864 3.58634 2.11923 2.00897 4.2683 1.18929C4.88607 0.960282 5.54044 0.845904 6.19926 0.851778C7.92816 0.851778 9.65936 0.851778 11.3906 0.851778C13.806 0.840298 15.6129 1.91484 16.8528 3.92845C17.6681 5.28415 18.006 6.87384 17.8125 8.44396C17.619 10.0141 16.9052 11.4742 15.7851 12.5913Z" fill="white"/>
<path d="M21.2479 9.21161C20.6101 8.63789 19.8228 8.25658 18.9772 8.11182C18.9772 8.17381 18.9611 8.21055 18.9565 8.24499C18.88 9.35314 18.5668 10.432 18.0381 11.4089C16.6192 13.9804 14.4678 15.3856 11.4853 15.4223C11.1707 15.4223 10.8562 15.4223 10.5416 15.4223C10.2844 15.4223 10.1696 15.6198 10.3005 15.8333C11.0261 17.0181 12.0409 17.8286 13.43 18.0697C14.0309 18.1433 14.6363 18.1733 15.2416 18.1592C15.3112 18.1549 15.3808 18.1665 15.4453 18.1932C15.5097 18.2199 15.5673 18.2608 15.6135 18.313C16.0176 18.7447 16.4309 19.1672 16.8396 19.5942C17.1541 19.9225 17.4664 20.2578 17.7901 20.5815C17.9271 20.7386 18.1206 20.835 18.3285 20.8496C18.5364 20.8643 18.7415 20.7959 18.8991 20.6596C18.9941 20.5732 19.0682 20.4662 19.1155 20.3468C19.1629 20.2274 19.1823 20.0988 19.1723 19.9708C19.1723 19.4266 19.1723 18.8802 19.1723 18.336C19.1723 18.1408 19.2252 18.072 19.418 17.9985C19.8941 17.8466 20.3504 17.6385 20.7773 17.3786C23.482 15.5188 23.7185 11.4066 21.2479 9.21161Z" fill="white"/>
</svg>
