<svg width="21" height="26" viewBox="0 0 21 26" fill="none" xmlns="http://www.w3.org/2000/svg">
<path d="M2.4694 0.139736L18.4707 0.128906C19.7889 0.26136 20.8577 1.32599 21 2.68844V23.2676C20.8779 24.6696 19.7465 25.7634 18.3918 25.8708H2.65905C1.36507 25.7809 0.285408 24.775 0.0634091 23.4629C-0.0263607 16.5074 -0.0138253 9.52649 0.0573436 2.56973C0.243353 1.28642 1.23082 0.32134 2.4694 0.139736ZM2.63075 1.59673C2.03632 1.71044 1.56321 2.14446 1.46778 2.77299L1.46657 23.1426C1.56685 23.9032 2.08647 24.3568 2.8212 24.413H18.2305C18.9135 24.3805 19.5071 23.8478 19.5855 23.1426V2.85463C19.5014 2.15821 18.9883 1.64963 18.3114 1.58465L2.63075 1.59673Z" fill="white"/>
<path d="M10.8694 9.91636C11.1091 9.98591 10.8795 10.3416 10.858 10.4462C10.7715 10.8702 10.9992 11.5516 11.0113 11.9986C11.0691 12.0085 11.0643 11.9286 11.0812 11.8844C11.3558 11.1659 11.5608 10.417 11.7404 9.66769C12.5325 9.87262 13.3837 10.0138 14.165 10.2704C14.7533 10.4637 14.85 10.6915 14.987 11.298C15.1003 11.7986 15.1112 12.3289 15.1156 12.8324C15.076 12.8999 14.6251 13.0569 14.5196 13.0928C12.4464 13.7954 8.29676 13.8204 6.25915 12.999C6.13662 12.9495 5.94293 12.9124 5.91705 12.7683C5.94617 12.1456 5.95102 10.8002 6.50217 10.4158C6.6247 10.3304 6.77755 10.3054 6.91827 10.2612C7.49611 10.0809 8.60934 9.74391 9.17545 9.66977C9.22074 9.66394 9.26684 9.66144 9.31213 9.66727C9.48641 10.3833 9.66757 11.1867 9.94901 11.8644C9.97044 11.9157 9.97044 11.9873 10.0404 11.999C10.044 11.5645 10.2058 11.0697 10.2062 10.6457C10.2062 10.4228 10.0586 10.2921 10.059 10.1459C10.059 10.085 10.137 9.91677 10.1827 9.91677H10.8702L10.8694 9.91636Z" fill="white"/>
<path d="M10.1937 3.80597C12.573 3.56355 12.6575 5.87067 12.0222 7.60549C11.1549 9.97467 9.34692 9.36696 8.73552 7.19938C8.32063 5.72906 8.37118 3.99174 10.1937 3.80597Z" fill="white"/>
<path d="M16.9147 21.3707H4.1366V22.2038H16.9147V21.3707Z" fill="white"/>
<path d="M16.9147 19.4547H4.1366V18.6842L4.19726 18.6217H16.854L16.9147 18.6842V19.4547Z" fill="white"/>
<path d="M16.9147 15.9143H4.1366V16.7057H16.9147V15.9143Z" fill="white"/>
</svg>
