<svg width="34" height="28" viewBox="0 0 34 28" fill="none" xmlns="http://www.w3.org/2000/svg">
<path fill-rule="evenodd" clip-rule="evenodd" d="M20.7137 5.18774H2.27411L4.95161 17.6029C5.0831 18.2085 5.702 18.5375 6.33419 18.5375H11.8075V17.6913C11.8075 17.4032 11.931 17.1369 12.1276 16.9461C12.3255 16.7554 12.5978 16.6376 12.9006 16.6376H21.1004C21.4032 16.6376 21.6754 16.7566 21.8733 16.9461C22.0712 17.1369 22.1934 17.4032 22.1934 17.6913V18.5375H27.6667C28.2989 18.5375 28.9178 18.2072 29.0493 17.6029L31.7268 5.18774H20.7137ZM27.6664 19.6923H22.1931V20.2928C22.1931 20.5809 22.0695 20.8433 21.873 21.0328L21.869 21.0367C21.6711 21.2274 21.3988 21.3452 21.1013 21.3452H12.9015C12.6027 21.3452 12.3265 21.2261 12.1286 21.0367V21.0328C11.9307 20.842 11.8085 20.5796 11.8085 20.2928V19.6923H6.33517C5.14516 19.6923 4.03088 18.9946 3.78118 17.8346L1.0811 5.32212C1.07712 5.29652 1.06383 5.27987 1.04126 5.27091C1.02399 5.25811 0.997426 5.25811 0.97485 5.26195C0.409055 5.45272 0 5.97764 0 6.5858V26.5994C0 27.3688 0.653447 28 1.45296 28H32.547C33.3453 28 34 27.3701 34 26.5994V6.5858C34 5.97637 33.5923 5.45146 33.0212 5.26195C32.9986 5.25811 32.9773 5.25811 32.9601 5.27091C32.9375 5.27987 32.9255 5.29652 32.9202 5.32212L30.2162 17.8346C29.9665 18.9946 28.8551 19.6923 27.6664 19.6923ZM9.04216 4.18022H9.98645C10.0303 4.18022 10.0648 4.14693 10.0648 4.10468V2.30584C10.0648 1.67081 10.3371 1.09596 10.7674 0.677279C11.2017 0.258634 11.7994 0 12.4568 0H21.188C21.8467 0 22.4431 0.258621 22.8774 0.677279C23.3077 1.09592 23.58 1.67209 23.58 2.30584V4.10468C23.58 4.14693 23.6145 4.18022 23.6583 4.18022H24.5269C24.7022 4.18022 24.843 4.31977 24.843 4.48877V5.18653H20.7127V4.48877C20.7127 4.31977 20.8575 4.18022 21.0328 4.18022H21.9014C21.9452 4.18022 21.9797 4.14693 21.9797 4.10468V2.30584C21.9797 2.09459 21.8921 1.90382 21.7473 1.76429C21.6025 1.62474 21.4007 1.5364 21.1855 1.5364H12.4543C12.2392 1.5364 12.0373 1.62474 11.8925 1.76429C11.7478 1.90384 11.6601 2.0946 11.6601 2.30584V4.10468C11.6601 4.14693 11.6946 4.18022 11.7385 4.18022H12.5327C12.708 4.18022 12.8488 4.31977 12.8488 4.48877V5.18653H8.71844V4.48877C8.71844 4.31977 8.86321 4.18022 9.03852 4.18022H9.04216ZM20.9993 17.7887H13.0015V20.1919H20.9993V17.7887Z" fill="#571BAD"/>
</svg>
