<svg width="60" height="60" viewBox="0 0 60 60" fill="none" xmlns="http://www.w3.org/2000/svg">
<circle cx="30" cy="30" r="30" fill="#EBF2FA"/>
<path d="M46.4885 30.614C46.4885 29.4514 46.3916 28.3477 46.2254 27.2734H30.5745V33.9104H39.5356C39.134 36.0883 37.9567 37.9278 36.2116 39.1787V43.5935H41.5578C44.688 40.5178 46.4885 35.9853 46.4885 30.614Z" fill="#4285F4"/>
<path d="M30.5732 47.8771C35.0608 47.8771 38.8142 46.2878 41.5566 43.5948L36.2103 39.18C34.7145 40.2395 32.817 40.887 30.5732 40.887C26.2381 40.887 22.5677 37.782 21.2519 33.5879H15.7395V38.1351C18.468 43.9038 24.0774 47.8771 30.5732 47.8771Z" fill="#34A853"/>
<path d="M21.2528 33.5875C20.9065 32.5279 20.7264 31.3948 20.7264 30.2175C20.7264 29.0402 20.9203 27.9071 21.2528 26.8475V22.3003H15.7403C14.6046 24.6843 13.9536 27.3626 13.9536 30.2175C13.9536 33.0724 14.6046 35.7507 15.7403 38.1347L21.2528 33.5875Z" fill="#FBBC05"/>
<path d="M30.5732 19.5482C33.0248 19.5482 35.2131 20.4459 36.9444 22.1971L41.6812 17.1642C38.8142 14.3093 35.0608 12.5581 30.5732 12.5581C24.0774 12.5581 18.468 16.5314 15.7395 22.3001L21.2519 26.8474C22.5677 22.6533 26.2381 19.5482 30.5732 19.5482Z" fill="#EA4335"/>
</svg>
