<svg width="567" height="363" viewBox="0 0 567 363" fill="none" xmlns="http://www.w3.org/2000/svg">
<path d="M8.024 14.432V16H1.368V4.48H3.24V14.432H8.024ZM13.6736 12.432C13.0603 12.4533 12.543 12.504 12.1216 12.584C11.7003 12.6587 11.359 12.7573 11.0976 12.88C10.8363 12.9973 10.647 13.1387 10.5296 13.304C10.4176 13.4693 10.3616 13.6507 10.3616 13.848C10.3616 14.04 10.391 14.2053 10.4496 14.344C10.5136 14.4773 10.599 14.5893 10.7056 14.68C10.8176 14.7653 10.9456 14.8293 11.0896 14.872C11.239 14.9093 11.4016 14.928 11.5776 14.928C12.0256 14.928 12.4096 14.8453 12.7296 14.68C13.055 14.5093 13.3696 14.264 13.6736 13.944V12.432ZM9.11363 8.976C10.0363 8.11733 11.135 7.688 12.4096 7.688C12.879 7.688 13.295 7.76533 13.6576 7.92C14.0256 8.06933 14.3323 8.28267 14.5776 8.56C14.8283 8.83733 15.0176 9.168 15.1456 9.552C15.279 9.93067 15.3456 10.352 15.3456 10.816V16H14.5776C14.4123 16 14.287 15.976 14.2016 15.928C14.1163 15.8747 14.0443 15.7707 13.9856 15.616L13.8176 14.952C13.6096 15.1387 13.4043 15.3067 13.2016 15.456C12.999 15.6 12.7883 15.7227 12.5696 15.824C12.3563 15.9253 12.1243 16 11.8736 16.048C11.6283 16.1013 11.3563 16.128 11.0576 16.128C10.727 16.128 10.4176 16.0827 10.1296 15.992C9.84696 15.9013 9.60163 15.7653 9.39363 15.584C9.18563 15.3973 9.02029 15.168 8.89763 14.896C8.78029 14.624 8.72163 14.304 8.72163 13.936C8.72163 13.6213 8.80429 13.3147 8.96963 13.016C9.14029 12.7173 9.41763 12.4507 9.80163 12.216C10.191 11.976 10.7003 11.7787 11.3296 11.624C11.9643 11.4693 12.7456 11.3813 13.6736 11.36V10.816C13.6736 10.2293 13.5483 9.792 13.2976 9.504C13.047 9.216 12.679 9.072 12.1936 9.072C11.863 9.072 11.5856 9.11467 11.3616 9.2C11.1376 9.28 10.943 9.368 10.7776 9.464C10.6123 9.56 10.4656 9.65067 10.3376 9.736C10.2096 9.816 10.0736 9.856 9.92963 9.856C9.81229 9.856 9.71096 9.82667 9.62563 9.768C9.54563 9.704 9.47896 9.62667 9.42563 9.536L9.11363 8.976ZM22.2325 9.32C22.1898 9.39467 22.1418 9.448 22.0885 9.48C22.0352 9.512 21.9685 9.528 21.8885 9.528C21.7978 9.528 21.6992 9.50133 21.5925 9.448C21.4858 9.38933 21.3605 9.32533 21.2165 9.256C21.0725 9.18667 20.9018 9.12533 20.7045 9.072C20.5125 9.01333 20.2858 8.984 20.0245 8.984C19.8112 8.984 19.6165 9.01067 19.4405 9.064C19.2698 9.112 19.1232 9.184 19.0005 9.28C18.8832 9.37067 18.7925 9.48 18.7285 9.608C18.6645 9.73067 18.6325 9.864 18.6325 10.008C18.6325 10.2 18.6912 10.36 18.8085 10.488C18.9258 10.616 19.0805 10.728 19.2725 10.824C19.4645 10.9147 19.6832 10.9973 19.9285 11.072C20.1738 11.1467 20.4245 11.2267 20.6805 11.312C20.9365 11.3973 21.1872 11.496 21.4325 11.608C21.6778 11.72 21.8965 11.8587 22.0885 12.024C22.2805 12.184 22.4352 12.3813 22.5525 12.616C22.6698 12.8453 22.7285 13.1253 22.7285 13.456C22.7285 13.84 22.6592 14.1947 22.5205 14.52C22.3818 14.8453 22.1792 15.128 21.9125 15.368C21.6458 15.608 21.3125 15.7947 20.9125 15.928C20.5178 16.0613 20.0645 16.128 19.5525 16.128C19.2698 16.128 18.9952 16.1013 18.7285 16.048C18.4672 16 18.2165 15.9333 17.9765 15.848C17.7418 15.7573 17.5205 15.6507 17.3125 15.528C17.1098 15.4053 16.9285 15.272 16.7685 15.128L17.1685 14.472C17.2165 14.392 17.2752 14.3307 17.3445 14.288C17.4192 14.24 17.5098 14.216 17.6165 14.216C17.7285 14.216 17.8378 14.2533 17.9445 14.328C18.0565 14.3973 18.1845 14.4747 18.3285 14.56C18.4778 14.6453 18.6565 14.7253 18.8645 14.8C19.0725 14.8693 19.3312 14.904 19.6405 14.904C19.8965 14.904 20.1178 14.8747 20.3045 14.816C20.4912 14.752 20.6458 14.6667 20.7685 14.56C20.8912 14.4533 20.9818 14.3333 21.0405 14.2C21.0992 14.0613 21.1285 13.9147 21.1285 13.76C21.1285 13.552 21.0698 13.3813 20.9525 13.248C20.8352 13.1147 20.6778 13 20.4805 12.904C20.2885 12.808 20.0672 12.7227 19.8165 12.648C19.5712 12.5733 19.3205 12.4933 19.0645 12.408C18.8085 12.3227 18.5552 12.224 18.3045 12.112C18.0592 12 17.8378 11.8587 17.6405 11.688C17.4485 11.512 17.2938 11.3013 17.1765 11.056C17.0592 10.8053 17.0005 10.5013 17.0005 10.144C17.0005 9.81867 17.0645 9.50933 17.1925 9.216C17.3258 8.92267 17.5178 8.664 17.7685 8.44C18.0245 8.216 18.3365 8.04 18.7045 7.912C19.0778 7.77867 19.5072 7.712 19.9925 7.712C20.5418 7.712 21.0405 7.8 21.4885 7.976C21.9365 8.152 22.3125 8.392 22.6165 8.696L22.2325 9.32ZM26.9609 16.128C26.2835 16.128 25.7609 15.9387 25.3929 15.56C25.0302 15.176 24.8489 14.6373 24.8489 13.944V9.192H23.9529C23.8569 9.192 23.7742 9.16267 23.7049 9.104C23.6355 9.04 23.6009 8.94667 23.6009 8.824V8.128L24.9209 7.936L25.2969 5.576C25.3235 5.48533 25.3689 5.41333 25.4329 5.36C25.4969 5.30133 25.5822 5.272 25.6889 5.272H26.5689V7.952H28.8329V9.192H26.5689V13.824C26.5689 14.1173 26.6409 14.3413 26.7849 14.496C26.9289 14.6507 27.1209 14.728 27.3609 14.728C27.4942 14.728 27.6089 14.712 27.7049 14.68C27.8009 14.6427 27.8835 14.6053 27.9529 14.568C28.0222 14.5253 28.0809 14.488 28.1289 14.456C28.1822 14.4187 28.2329 14.4 28.2809 14.4C28.3769 14.4 28.4542 14.4533 28.5129 14.56L29.0249 15.4C28.7582 15.6347 28.4435 15.816 28.0809 15.944C27.7182 16.0667 27.3449 16.128 26.9609 16.128ZM49.4808 4.48L45.8968 16H44.2088L41.5048 7.728C41.4728 7.63733 41.4408 7.53867 41.4088 7.432C41.3821 7.32533 41.3554 7.21067 41.3288 7.088C41.3021 7.21067 41.2728 7.32533 41.2408 7.432C41.2141 7.53867 41.1848 7.63733 41.1528 7.728L38.4248 16H36.7368L33.1528 4.48H34.7208C34.8808 4.48 35.0141 4.52 35.1208 4.6C35.2328 4.67467 35.3074 4.77867 35.3448 4.912L37.5048 12.296C37.5474 12.456 37.5874 12.6293 37.6248 12.816C37.6621 13.0027 37.6994 13.1973 37.7368 13.4C37.7741 13.1973 37.8141 13.0027 37.8568 12.816C37.9048 12.624 37.9554 12.4507 38.0088 12.296L40.4808 4.912C40.5181 4.80533 40.5928 4.70667 40.7048 4.616C40.8168 4.52533 40.9501 4.48 41.1048 4.48H41.6488C41.8141 4.48 41.9474 4.52267 42.0488 4.608C42.1501 4.688 42.2274 4.78933 42.2808 4.912L44.7448 12.296C44.7981 12.4507 44.8461 12.6187 44.8888 12.8C44.9368 12.976 44.9794 13.1627 45.0168 13.36C45.0541 13.1627 45.0888 12.976 45.1208 12.8C45.1581 12.6187 45.1981 12.4507 45.2408 12.296L47.3928 4.912C47.4248 4.79467 47.4968 4.69333 47.6088 4.608C47.7261 4.52267 47.8621 4.48 48.0168 4.48H49.4808ZM55.1344 11C55.1344 10.712 55.0917 10.4453 55.0064 10.2C54.9264 9.94933 54.8064 9.73333 54.6464 9.552C54.4864 9.36533 54.2864 9.22133 54.0464 9.12C53.8117 9.01333 53.5397 8.96 53.2304 8.96C52.6064 8.96 52.1157 9.13867 51.7584 9.496C51.401 9.85333 51.1744 10.3547 51.0784 11H55.1344ZM51.0304 12.056C51.0517 12.52 51.1237 12.9227 51.2464 13.264C51.369 13.6 51.5317 13.88 51.7344 14.104C51.9424 14.328 52.1877 14.496 52.4704 14.608C52.7584 14.7147 53.0784 14.768 53.4304 14.768C53.7664 14.768 54.057 14.7307 54.3024 14.656C54.5477 14.576 54.761 14.4907 54.9424 14.4C55.1237 14.304 55.2784 14.2187 55.4064 14.144C55.5344 14.064 55.6517 14.024 55.7584 14.024C55.897 14.024 56.0037 14.0773 56.0784 14.184L56.5664 14.816C56.3637 15.056 56.1344 15.2587 55.8784 15.424C55.6224 15.5893 55.3504 15.7253 55.0624 15.832C54.7744 15.9333 54.4784 16.0053 54.1744 16.048C53.8704 16.096 53.5744 16.12 53.2864 16.12C52.721 16.12 52.1957 16.0267 51.7104 15.84C51.2304 15.648 50.8117 15.368 50.4544 15C50.1024 14.632 49.825 14.176 49.6224 13.632C49.425 13.088 49.3264 12.4613 49.3264 11.752C49.3264 11.1867 49.4144 10.6587 49.5904 10.168C49.7717 9.67733 50.0277 9.25067 50.3584 8.888C50.6944 8.52533 51.0997 8.24 51.5744 8.032C52.0544 7.81867 52.5957 7.712 53.1984 7.712C53.6997 7.712 54.1637 7.79467 54.5904 7.96C55.017 8.12 55.385 8.35733 55.6944 8.672C56.0037 8.98667 56.2437 9.37333 56.4144 9.832C56.5904 10.2853 56.6784 10.8027 56.6784 11.384C56.6784 11.6507 56.649 11.8293 56.5904 11.92C56.5317 12.0107 56.425 12.056 56.2704 12.056H51.0304ZM63.6344 11C63.6344 10.712 63.5917 10.4453 63.5064 10.2C63.4264 9.94933 63.3064 9.73333 63.1464 9.552C62.9864 9.36533 62.7864 9.22133 62.5464 9.12C62.3117 9.01333 62.0397 8.96 61.7304 8.96C61.1064 8.96 60.6157 9.13867 60.2584 9.496C59.901 9.85333 59.6744 10.3547 59.5784 11H63.6344ZM59.5304 12.056C59.5517 12.52 59.6237 12.9227 59.7464 13.264C59.869 13.6 60.0317 13.88 60.2344 14.104C60.4424 14.328 60.6877 14.496 60.9704 14.608C61.2584 14.7147 61.5784 14.768 61.9304 14.768C62.2664 14.768 62.557 14.7307 62.8024 14.656C63.0477 14.576 63.261 14.4907 63.4424 14.4C63.6237 14.304 63.7784 14.2187 63.9064 14.144C64.0344 14.064 64.1517 14.024 64.2584 14.024C64.397 14.024 64.5037 14.0773 64.5784 14.184L65.0664 14.816C64.8637 15.056 64.6344 15.2587 64.3784 15.424C64.1224 15.5893 63.8504 15.7253 63.5624 15.832C63.2744 15.9333 62.9784 16.0053 62.6744 16.048C62.3704 16.096 62.0744 16.12 61.7864 16.12C61.221 16.12 60.6957 16.0267 60.2104 15.84C59.7304 15.648 59.3117 15.368 58.9544 15C58.6024 14.632 58.325 14.176 58.1224 13.632C57.925 13.088 57.8264 12.4613 57.8264 11.752C57.8264 11.1867 57.9144 10.6587 58.0904 10.168C58.2717 9.67733 58.5277 9.25067 58.8584 8.888C59.1944 8.52533 59.5997 8.24 60.0744 8.032C60.5544 7.81867 61.0957 7.712 61.6984 7.712C62.1997 7.712 62.6637 7.79467 63.0904 7.96C63.517 8.12 63.885 8.35733 64.1944 8.672C64.5037 8.98667 64.7437 9.37333 64.9144 9.832C65.0904 10.2853 65.1784 10.8027 65.1784 11.384C65.1784 11.6507 65.149 11.8293 65.0904 11.92C65.0317 12.0107 64.925 12.056 64.7704 12.056H59.5304ZM68.5024 4.16V11.024H68.8704C68.9877 11.024 69.0837 11.008 69.1584 10.976C69.233 10.944 69.3104 10.8773 69.3904 10.776L71.6784 8.16C71.7584 8.05333 71.8464 7.97333 71.9424 7.92C72.0384 7.86667 72.161 7.84 72.3104 7.84H73.8704L71.1184 10.944C70.9584 11.152 70.7824 11.3173 70.5904 11.44C70.697 11.5147 70.7904 11.6 70.8704 11.696C70.9504 11.7867 71.0277 11.8907 71.1024 12.008L74.0384 16H72.5024C72.3637 16 72.2437 15.9787 72.1424 15.936C72.0464 15.888 71.961 15.8027 71.8864 15.68L69.5264 12.48C69.4464 12.3573 69.3664 12.28 69.2864 12.248C69.2064 12.2107 69.0864 12.192 68.9264 12.192H68.5024V16H66.7824V4.16H68.5024ZM85.0109 11.68L83.4269 7.472C83.2989 7.14667 83.1682 6.73333 83.0349 6.232C82.9762 6.48267 82.9122 6.71467 82.8429 6.928C82.7735 7.136 82.7095 7.32 82.6509 7.48L81.0669 11.68H85.0109ZM88.5549 16H87.1069C86.9415 16 86.8082 15.96 86.7069 15.88C86.6055 15.7947 86.5282 15.6907 86.4749 15.568L85.5149 13.024H80.5549L79.5949 15.568C79.5522 15.6747 79.4775 15.7733 79.3709 15.864C79.2642 15.9547 79.1309 16 78.9709 16H77.5229L82.0909 4.48H83.9869L88.5549 16ZM91.268 13.952C91.508 14.2613 91.7693 14.48 92.052 14.608C92.34 14.7307 92.6573 14.792 93.004 14.792C93.676 14.792 94.1987 14.5467 94.572 14.056C94.9507 13.5653 95.14 12.8347 95.14 11.864C95.14 11.3627 95.0973 10.936 95.012 10.584C94.9267 10.2267 94.804 9.936 94.644 9.712C94.484 9.488 94.2893 9.32533 94.06 9.224C93.8307 9.12267 93.572 9.072 93.284 9.072C92.8467 9.072 92.468 9.168 92.148 9.36C91.8333 9.54667 91.54 9.816 91.268 10.168V13.952ZM91.18 9.024C91.5213 8.624 91.908 8.30133 92.34 8.056C92.7773 7.81067 93.284 7.688 93.86 7.688C94.3187 7.688 94.7347 7.78133 95.108 7.968C95.4813 8.14933 95.8013 8.416 96.068 8.768C96.3347 9.12 96.54 9.55733 96.684 10.08C96.8333 10.5973 96.908 11.192 96.908 11.864C96.908 12.4667 96.8253 13.0293 96.66 13.552C96.5 14.0693 96.268 14.52 95.964 14.904C95.66 15.2827 95.292 15.5813 94.86 15.8C94.428 16.0133 93.94 16.12 93.396 16.12C92.916 16.12 92.508 16.0427 92.172 15.888C91.8413 15.7333 91.54 15.52 91.268 15.248V18.712H89.548V7.84H90.588C90.8227 7.84 90.972 7.94933 91.036 8.168L91.18 9.024ZM100.299 13.952C100.539 14.2613 100.801 14.48 101.083 14.608C101.371 14.7307 101.689 14.792 102.035 14.792C102.707 14.792 103.23 14.5467 103.603 14.056C103.982 13.5653 104.171 12.8347 104.171 11.864C104.171 11.3627 104.129 10.936 104.043 10.584C103.958 10.2267 103.835 9.936 103.675 9.712C103.515 9.488 103.321 9.32533 103.091 9.224C102.862 9.12267 102.603 9.072 102.315 9.072C101.878 9.072 101.499 9.168 101.179 9.36C100.865 9.54667 100.571 9.816 100.299 10.168V13.952ZM100.211 9.024C100.553 8.624 100.939 8.30133 101.371 8.056C101.809 7.81067 102.315 7.688 102.891 7.688C103.35 7.688 103.766 7.78133 104.139 7.968C104.513 8.14933 104.833 8.416 105.099 8.768C105.366 9.12 105.571 9.55733 105.715 10.08C105.865 10.5973 105.939 11.192 105.939 11.864C105.939 12.4667 105.857 13.0293 105.691 13.552C105.531 14.0693 105.299 14.52 104.995 14.904C104.691 15.2827 104.323 15.5813 103.891 15.8C103.459 16.0133 102.971 16.12 102.427 16.12C101.947 16.12 101.539 16.0427 101.203 15.888C100.873 15.7333 100.571 15.52 100.299 15.248V18.712H98.5793V7.84H99.6193C99.8539 7.84 100.003 7.94933 100.067 8.168L100.211 9.024ZM109.363 4.16V16H107.643V4.16H109.363ZM113.278 7.84V16H111.558V7.84H113.278ZM113.566 5.376C113.566 5.53067 113.534 5.67733 113.47 5.816C113.411 5.95467 113.328 6.07733 113.222 6.184C113.115 6.28533 112.99 6.368 112.846 6.432C112.707 6.49067 112.558 6.52 112.398 6.52C112.243 6.52 112.096 6.49067 111.958 6.432C111.824 6.368 111.707 6.28533 111.606 6.184C111.504 6.07733 111.422 5.95467 111.358 5.816C111.299 5.67733 111.27 5.53067 111.27 5.376C111.27 5.216 111.299 5.06667 111.358 4.928C111.422 4.78933 111.504 4.66933 111.606 4.568C111.707 4.46133 111.824 4.37867 111.958 4.32C112.096 4.256 112.243 4.224 112.398 4.224C112.558 4.224 112.707 4.256 112.846 4.32C112.99 4.37867 113.115 4.46133 113.222 4.568C113.328 4.66933 113.411 4.78933 113.47 4.928C113.534 5.06667 113.566 5.216 113.566 5.376ZM121.207 9.44C121.153 9.50933 121.103 9.56267 121.055 9.6C121.007 9.63733 120.937 9.656 120.847 9.656C120.756 9.656 120.66 9.624 120.559 9.56C120.463 9.496 120.345 9.42667 120.207 9.352C120.073 9.272 119.911 9.2 119.719 9.136C119.527 9.072 119.287 9.04 118.999 9.04C118.625 9.04 118.297 9.10667 118.015 9.24C117.737 9.37333 117.503 9.56533 117.311 9.816C117.124 10.0613 116.983 10.3627 116.887 10.72C116.796 11.072 116.751 11.4693 116.751 11.912C116.751 12.3707 116.801 12.7787 116.903 13.136C117.004 13.4933 117.148 13.7947 117.335 14.04C117.527 14.2853 117.756 14.472 118.023 14.6C118.295 14.728 118.599 14.792 118.935 14.792C119.265 14.792 119.535 14.752 119.743 14.672C119.951 14.592 120.124 14.504 120.263 14.408C120.401 14.312 120.519 14.224 120.615 14.144C120.716 14.064 120.823 14.024 120.935 14.024C121.073 14.024 121.18 14.0773 121.255 14.184L121.743 14.816C121.545 15.056 121.327 15.2587 121.087 15.424C120.847 15.5893 120.593 15.7253 120.327 15.832C120.06 15.9333 119.783 16.0053 119.495 16.048C119.207 16.096 118.916 16.12 118.623 16.12C118.116 16.12 117.641 16.0267 117.199 15.84C116.761 15.648 116.377 15.3733 116.047 15.016C115.721 14.6533 115.463 14.2133 115.271 13.696C115.084 13.1733 114.991 12.5787 114.991 11.912C114.991 11.3093 115.076 10.752 115.247 10.24C115.417 9.72267 115.665 9.27733 115.991 8.904C116.321 8.53067 116.729 8.24 117.215 8.032C117.7 7.81867 118.26 7.712 118.895 7.712C119.487 7.712 120.007 7.808 120.455 8C120.908 8.192 121.311 8.464 121.663 8.816L121.207 9.44ZM127.486 12.432C126.873 12.4533 126.355 12.504 125.934 12.584C125.513 12.6587 125.171 12.7573 124.91 12.88C124.649 12.9973 124.459 13.1387 124.342 13.304C124.23 13.4693 124.174 13.6507 124.174 13.848C124.174 14.04 124.203 14.2053 124.262 14.344C124.326 14.4773 124.411 14.5893 124.518 14.68C124.63 14.7653 124.758 14.8293 124.902 14.872C125.051 14.9093 125.214 14.928 125.39 14.928C125.838 14.928 126.222 14.8453 126.542 14.68C126.867 14.5093 127.182 14.264 127.486 13.944V12.432ZM122.926 8.976C123.849 8.11733 124.947 7.688 126.222 7.688C126.691 7.688 127.107 7.76533 127.47 7.92C127.838 8.06933 128.145 8.28267 128.39 8.56C128.641 8.83733 128.83 9.168 128.958 9.552C129.091 9.93067 129.158 10.352 129.158 10.816V16H128.39C128.225 16 128.099 15.976 128.014 15.928C127.929 15.8747 127.857 15.7707 127.798 15.616L127.63 14.952C127.422 15.1387 127.217 15.3067 127.014 15.456C126.811 15.6 126.601 15.7227 126.382 15.824C126.169 15.9253 125.937 16 125.686 16.048C125.441 16.1013 125.169 16.128 124.87 16.128C124.539 16.128 124.23 16.0827 123.942 15.992C123.659 15.9013 123.414 15.7653 123.206 15.584C122.998 15.3973 122.833 15.168 122.71 14.896C122.593 14.624 122.534 14.304 122.534 13.936C122.534 13.6213 122.617 13.3147 122.782 13.016C122.953 12.7173 123.23 12.4507 123.614 12.216C124.003 11.976 124.513 11.7787 125.142 11.624C125.777 11.4693 126.558 11.3813 127.486 11.36V10.816C127.486 10.2293 127.361 9.792 127.11 9.504C126.859 9.216 126.491 9.072 126.006 9.072C125.675 9.072 125.398 9.11467 125.174 9.2C124.95 9.28 124.755 9.368 124.59 9.464C124.425 9.56 124.278 9.65067 124.15 9.736C124.022 9.816 123.886 9.856 123.742 9.856C123.625 9.856 123.523 9.82667 123.438 9.768C123.358 9.704 123.291 9.62667 123.238 9.536L122.926 8.976ZM138.984 16H137.264V9.192H133.288V13.824C133.288 14.1173 133.36 14.3413 133.504 14.496C133.648 14.6507 133.84 14.728 134.08 14.728C134.213 14.728 134.328 14.712 134.424 14.68C134.52 14.6427 134.602 14.6053 134.672 14.568C134.741 14.5253 134.8 14.488 134.848 14.456C134.901 14.4187 134.952 14.4 135 14.4C135.096 14.4 135.173 14.4533 135.232 14.56L135.744 15.4C135.477 15.6347 135.162 15.816 134.8 15.944C134.437 16.0667 134.064 16.128 133.68 16.128C133.002 16.128 132.48 15.9387 132.112 15.56C131.749 15.176 131.568 14.6373 131.568 13.944V9.192H130.672C130.576 9.192 130.493 9.16267 130.424 9.104C130.354 9.04 130.32 8.94667 130.32 8.824V8.128L131.64 7.936L132.016 5.576C132.042 5.48533 132.088 5.41333 132.152 5.36C132.216 5.30133 132.301 5.272 132.408 5.272H133.288V7.952H138.984V16ZM139.336 5.336C139.336 5.49067 139.304 5.63733 139.24 5.776C139.181 5.90933 139.098 6.02933 138.992 6.136C138.885 6.23733 138.76 6.32 138.616 6.384C138.477 6.44267 138.33 6.472 138.176 6.472C138.021 6.472 137.874 6.44267 137.736 6.384C137.602 6.32 137.482 6.23733 137.376 6.136C137.274 6.02933 137.192 5.90933 137.128 5.776C137.069 5.63733 137.04 5.49067 137.04 5.336C137.04 5.176 137.069 5.02667 137.128 4.888C137.192 4.744 137.274 4.62133 137.376 4.52C137.482 4.41333 137.602 4.33067 137.736 4.272C137.874 4.208 138.021 4.176 138.176 4.176C138.33 4.176 138.477 4.208 138.616 4.272C138.76 4.33067 138.885 4.41333 138.992 4.52C139.098 4.62133 139.181 4.744 139.24 4.888C139.304 5.02667 139.336 5.176 139.336 5.336ZM144.685 7.712C145.288 7.712 145.832 7.81067 146.317 8.008C146.808 8.20533 147.224 8.48533 147.565 8.848C147.912 9.21067 148.179 9.65067 148.365 10.168C148.552 10.6853 148.645 11.2667 148.645 11.912C148.645 12.5573 148.552 13.1387 148.365 13.656C148.179 14.1733 147.912 14.616 147.565 14.984C147.224 15.3467 146.808 15.6267 146.317 15.824C145.832 16.0213 145.288 16.12 144.685 16.12C144.077 16.12 143.528 16.0213 143.037 15.824C142.552 15.6267 142.136 15.3467 141.789 14.984C141.443 14.616 141.176 14.1733 140.989 13.656C140.803 13.1387 140.709 12.5573 140.709 11.912C140.709 11.2667 140.803 10.6853 140.989 10.168C141.176 9.65067 141.443 9.21067 141.789 8.848C142.136 8.48533 142.552 8.20533 143.037 8.008C143.528 7.81067 144.077 7.712 144.685 7.712ZM144.685 14.776C145.421 14.776 145.968 14.5307 146.325 14.04C146.688 13.544 146.869 12.8373 146.869 11.92C146.869 11.0027 146.688 10.296 146.325 9.8C145.968 9.29867 145.421 9.048 144.685 9.048C143.939 9.048 143.384 9.29867 143.021 9.8C142.659 10.296 142.477 11.0027 142.477 11.92C142.477 12.8373 142.659 13.544 143.021 14.04C143.384 14.5307 143.939 14.776 144.685 14.776ZM151.906 8.92C152.082 8.73867 152.263 8.576 152.45 8.432C152.642 8.28267 152.845 8.15467 153.058 8.048C153.271 7.94133 153.498 7.85867 153.738 7.8C153.978 7.74133 154.239 7.712 154.522 7.712C154.97 7.712 155.362 7.78667 155.698 7.936C156.039 8.08533 156.325 8.296 156.554 8.568C156.789 8.84 156.965 9.168 157.082 9.552C157.199 9.93067 157.258 10.3493 157.258 10.808V16H155.546V10.808C155.546 10.2587 155.418 9.832 155.162 9.528C154.911 9.224 154.527 9.072 154.01 9.072C153.626 9.072 153.269 9.16 152.938 9.336C152.613 9.512 152.306 9.752 152.018 10.056V16H150.298V7.84H151.338C151.573 7.84 151.722 7.94933 151.786 8.168L151.906 8.92ZM164.139 9.32C164.096 9.39467 164.048 9.448 163.995 9.48C163.941 9.512 163.875 9.528 163.795 9.528C163.704 9.528 163.605 9.50133 163.499 9.448C163.392 9.38933 163.267 9.32533 163.123 9.256C162.979 9.18667 162.808 9.12533 162.611 9.072C162.419 9.01333 162.192 8.984 161.931 8.984C161.717 8.984 161.523 9.01067 161.347 9.064C161.176 9.112 161.029 9.184 160.907 9.28C160.789 9.37067 160.699 9.48 160.635 9.608C160.571 9.73067 160.539 9.864 160.539 10.008C160.539 10.2 160.597 10.36 160.715 10.488C160.832 10.616 160.987 10.728 161.179 10.824C161.371 10.9147 161.589 10.9973 161.835 11.072C162.08 11.1467 162.331 11.2267 162.587 11.312C162.843 11.3973 163.093 11.496 163.339 11.608C163.584 11.72 163.803 11.8587 163.995 12.024C164.187 12.184 164.341 12.3813 164.459 12.616C164.576 12.8453 164.635 13.1253 164.635 13.456C164.635 13.84 164.565 14.1947 164.427 14.52C164.288 14.8453 164.085 15.128 163.819 15.368C163.552 15.608 163.219 15.7947 162.819 15.928C162.424 16.0613 161.971 16.128 161.459 16.128C161.176 16.128 160.901 16.1013 160.635 16.048C160.373 16 160.123 15.9333 159.883 15.848C159.648 15.7573 159.427 15.6507 159.219 15.528C159.016 15.4053 158.835 15.272 158.675 15.128L159.075 14.472C159.123 14.392 159.181 14.3307 159.251 14.288C159.325 14.24 159.416 14.216 159.523 14.216C159.635 14.216 159.744 14.2533 159.851 14.328C159.963 14.3973 160.091 14.4747 160.235 14.56C160.384 14.6453 160.563 14.7253 160.771 14.8C160.979 14.8693 161.237 14.904 161.547 14.904C161.803 14.904 162.024 14.8747 162.211 14.816C162.397 14.752 162.552 14.6667 162.675 14.56C162.797 14.4533 162.888 14.3333 162.947 14.2C163.005 14.0613 163.035 13.9147 163.035 13.76C163.035 13.552 162.976 13.3813 162.859 13.248C162.741 13.1147 162.584 13 162.387 12.904C162.195 12.808 161.973 12.7227 161.723 12.648C161.477 12.5733 161.227 12.4933 160.971 12.408C160.715 12.3227 160.461 12.224 160.211 12.112C159.965 12 159.744 11.8587 159.547 11.688C159.355 11.512 159.2 11.3013 159.083 11.056C158.965 10.8053 158.907 10.5013 158.907 10.144C158.907 9.81867 158.971 9.50933 159.099 9.216C159.232 8.92267 159.424 8.664 159.675 8.44C159.931 8.216 160.243 8.04 160.611 7.912C160.984 7.77867 161.413 7.712 161.899 7.712C162.448 7.712 162.947 7.8 163.395 7.976C163.843 8.152 164.219 8.392 164.523 8.696L164.139 9.32Z" fill="#1A1A1A"/>
<path d="M7.189 73.859V75H1.694V73.859H3.794V67.545C3.794 67.321 3.801 67.0923 3.815 66.859L2.198 68.224C2.128 68.28 2.05567 68.3173 1.981 68.336C1.911 68.35 1.84333 68.35 1.778 68.336C1.71733 68.322 1.66133 68.301 1.61 68.273C1.56333 68.2403 1.526 68.2053 1.498 68.168L1.029 67.51L4.067 64.899H5.292V73.859H7.189ZM15.8561 69.96C15.8561 70.842 15.7604 71.605 15.5691 72.249C15.3824 72.893 15.1234 73.4273 14.7921 73.852C14.4608 74.2767 14.0711 74.5917 13.6231 74.797C13.1751 75.0023 12.6921 75.105 12.1741 75.105C11.6561 75.105 11.1731 75.0023 10.7251 74.797C10.2771 74.5917 9.88743 74.2767 9.55609 73.852C9.22943 73.4273 8.97276 72.893 8.78609 72.249C8.59943 71.605 8.50609 70.842 8.50609 69.96C8.50609 69.078 8.59943 68.315 8.78609 67.671C8.97276 67.0223 9.22943 66.488 9.55609 66.068C9.88743 65.6433 10.2771 65.3283 10.7251 65.123C11.1731 64.913 11.6561 64.808 12.1741 64.808C12.6921 64.808 13.1751 64.913 13.6231 65.123C14.0711 65.3283 14.4608 65.6433 14.7921 66.068C15.1234 66.488 15.3824 67.0223 15.5691 67.671C15.7604 68.315 15.8561 69.078 15.8561 69.96ZM14.3021 69.96C14.3021 69.2133 14.2414 68.5927 14.1201 68.098C14.0034 67.5987 13.8471 67.1997 13.6511 66.901C13.4551 66.6023 13.2288 66.39 12.9721 66.264C12.7154 66.138 12.4494 66.075 12.1741 66.075C11.8941 66.075 11.6258 66.138 11.3691 66.264C11.1171 66.39 10.8931 66.6023 10.6971 66.901C10.5011 67.1997 10.3448 67.5987 10.2281 68.098C10.1114 68.5927 10.0531 69.2133 10.0531 69.96C10.0531 70.7067 10.1114 71.3297 10.2281 71.829C10.3448 72.3237 10.5011 72.7203 10.6971 73.019C10.8931 73.3177 11.1171 73.53 11.3691 73.656C11.6258 73.782 11.8941 73.845 12.1741 73.845C12.4494 73.845 12.7154 73.782 12.9721 73.656C13.2288 73.53 13.4551 73.3177 13.6511 73.019C13.8471 72.7203 14.0034 72.3237 14.1201 71.829C14.2414 71.3297 14.3021 70.7067 14.3021 69.96ZM23.9772 69.96C23.9772 70.842 23.8815 71.605 23.6902 72.249C23.5035 72.893 23.2445 73.4273 22.9132 73.852C22.5819 74.2767 22.1922 74.5917 21.7442 74.797C21.2962 75.0023 20.8132 75.105 20.2952 75.105C19.7772 75.105 19.2942 75.0023 18.8462 74.797C18.3982 74.5917 18.0085 74.2767 17.6772 73.852C17.3505 73.4273 17.0939 72.893 16.9072 72.249C16.7205 71.605 16.6272 70.842 16.6272 69.96C16.6272 69.078 16.7205 68.315 16.9072 67.671C17.0939 67.0223 17.3505 66.488 17.6772 66.068C18.0085 65.6433 18.3982 65.3283 18.8462 65.123C19.2942 64.913 19.7772 64.808 20.2952 64.808C20.8132 64.808 21.2962 64.913 21.7442 65.123C22.1922 65.3283 22.5819 65.6433 22.9132 66.068C23.2445 66.488 23.5035 67.0223 23.6902 67.671C23.8815 68.315 23.9772 69.078 23.9772 69.96ZM22.4232 69.96C22.4232 69.2133 22.3625 68.5927 22.2412 68.098C22.1245 67.5987 21.9682 67.1997 21.7722 66.901C21.5762 66.6023 21.3499 66.39 21.0932 66.264C20.8365 66.138 20.5705 66.075 20.2952 66.075C20.0152 66.075 19.7469 66.138 19.4902 66.264C19.2382 66.39 19.0142 66.6023 18.8182 66.901C18.6222 67.1997 18.4659 67.5987 18.3492 68.098C18.2325 68.5927 18.1742 69.2133 18.1742 69.96C18.1742 70.7067 18.2325 71.3297 18.3492 71.829C18.4659 72.3237 18.6222 72.7203 18.8182 73.019C19.0142 73.3177 19.2382 73.53 19.4902 73.656C19.7469 73.782 20.0152 73.845 20.2952 73.845C20.5705 73.845 20.8365 73.782 21.0932 73.656C21.3499 73.53 21.5762 73.3177 21.7722 73.019C21.9682 72.7203 22.1245 72.3237 22.2412 71.829C22.3625 71.3297 22.4232 70.7067 22.4232 69.96Z" fill="#1A1A1A"/>
<path d="M2.156 131.916C2.156 132.513 2.31467 132.973 2.632 133.295C2.954 133.612 3.402 133.771 3.976 133.771C4.284 133.771 4.55467 133.722 4.788 133.624C5.026 133.526 5.22667 133.395 5.39 133.232C5.55333 133.064 5.677 132.87 5.761 132.651C5.845 132.427 5.887 132.189 5.887 131.937C5.887 131.643 5.84033 131.382 5.747 131.153C5.65833 130.92 5.53 130.721 5.362 130.558C5.19867 130.395 5.00267 130.271 4.774 130.187C4.54533 130.098 4.29567 130.054 4.025 130.054C3.74033 130.054 3.48367 130.101 3.255 130.194C3.02633 130.287 2.83033 130.418 2.667 130.586C2.50367 130.749 2.37767 130.945 2.289 131.174C2.20033 131.398 2.156 131.645 2.156 131.916ZM4.739 135.045C4.83233 134.928 4.91867 134.819 4.998 134.716C5.07733 134.609 5.152 134.501 5.222 134.394C4.97933 134.567 4.70867 134.7 4.41 134.793C4.11133 134.882 3.794 134.926 3.458 134.926C3.094 134.926 2.744 134.865 2.408 134.744C2.072 134.618 1.77333 134.434 1.512 134.191C1.25067 133.944 1.04067 133.64 0.882 133.281C0.728 132.917 0.651 132.499 0.651 132.028C0.651 131.585 0.732667 131.167 0.896 130.775C1.064 130.383 1.29733 130.042 1.596 129.753C1.89467 129.459 2.25167 129.228 2.667 129.06C3.08233 128.892 3.542 128.808 4.046 128.808C4.54533 128.808 4.998 128.89 5.404 129.053C5.81 129.212 6.15533 129.438 6.44 129.732C6.72467 130.021 6.944 130.369 7.098 130.775C7.252 131.176 7.329 131.62 7.329 132.105C7.329 132.408 7.301 132.695 7.245 132.966C7.19367 133.237 7.11667 133.5 7.014 133.757C6.916 134.009 6.79467 134.259 6.65 134.506C6.51 134.749 6.35133 134.996 6.174 135.248L3.801 138.65C3.731 138.753 3.626 138.837 3.486 138.902C3.35067 138.967 3.19667 139 3.024 139H1.645L4.739 135.045ZM15.8561 133.96C15.8561 134.842 15.7604 135.605 15.5691 136.249C15.3824 136.893 15.1234 137.427 14.7921 137.852C14.4608 138.277 14.0711 138.592 13.6231 138.797C13.1751 139.002 12.6921 139.105 12.1741 139.105C11.6561 139.105 11.1731 139.002 10.7251 138.797C10.2771 138.592 9.88743 138.277 9.55609 137.852C9.22943 137.427 8.97276 136.893 8.78609 136.249C8.59943 135.605 8.50609 134.842 8.50609 133.96C8.50609 133.078 8.59943 132.315 8.78609 131.671C8.97276 131.022 9.22943 130.488 9.55609 130.068C9.88743 129.643 10.2771 129.328 10.7251 129.123C11.1731 128.913 11.6561 128.808 12.1741 128.808C12.6921 128.808 13.1751 128.913 13.6231 129.123C14.0711 129.328 14.4608 129.643 14.7921 130.068C15.1234 130.488 15.3824 131.022 15.5691 131.671C15.7604 132.315 15.8561 133.078 15.8561 133.96ZM14.3021 133.96C14.3021 133.213 14.2414 132.593 14.1201 132.098C14.0034 131.599 13.8471 131.2 13.6511 130.901C13.4551 130.602 13.2288 130.39 12.9721 130.264C12.7154 130.138 12.4494 130.075 12.1741 130.075C11.8941 130.075 11.6258 130.138 11.3691 130.264C11.1171 130.39 10.8931 130.602 10.6971 130.901C10.5011 131.2 10.3448 131.599 10.2281 132.098C10.1114 132.593 10.0531 133.213 10.0531 133.96C10.0531 134.707 10.1114 135.33 10.2281 135.829C10.3448 136.324 10.5011 136.72 10.6971 137.019C10.8931 137.318 11.1171 137.53 11.3691 137.656C11.6258 137.782 11.8941 137.845 12.1741 137.845C12.4494 137.845 12.7154 137.782 12.9721 137.656C13.2288 137.53 13.4551 137.318 13.6511 137.019C13.8471 136.72 14.0034 136.324 14.1201 135.829C14.2414 135.33 14.3021 134.707 14.3021 133.96Z" fill="#1A1A1A"/>
<path d="M7.609 191.92V192.585C7.609 192.781 7.588 192.94 7.546 193.061C7.504 193.182 7.462 193.285 7.42 193.369L3.437 201.475C3.367 201.624 3.26667 201.75 3.136 201.853C3.01 201.951 2.842 202 2.632 202H1.547L5.607 194.027C5.68167 193.882 5.75633 193.752 5.831 193.635C5.90567 193.518 5.98967 193.406 6.083 193.299H1.05C0.956667 193.299 0.875 193.264 0.805 193.194C0.735 193.119 0.7 193.035 0.7 192.942V191.92H7.609ZM15.8561 196.96C15.8561 197.842 15.7604 198.605 15.5691 199.249C15.3824 199.893 15.1234 200.427 14.7921 200.852C14.4608 201.277 14.0711 201.592 13.6231 201.797C13.1751 202.002 12.6921 202.105 12.1741 202.105C11.6561 202.105 11.1731 202.002 10.7251 201.797C10.2771 201.592 9.88743 201.277 9.55609 200.852C9.22943 200.427 8.97276 199.893 8.78609 199.249C8.59943 198.605 8.50609 197.842 8.50609 196.96C8.50609 196.078 8.59943 195.315 8.78609 194.671C8.97276 194.022 9.22943 193.488 9.55609 193.068C9.88743 192.643 10.2771 192.328 10.7251 192.123C11.1731 191.913 11.6561 191.808 12.1741 191.808C12.6921 191.808 13.1751 191.913 13.6231 192.123C14.0711 192.328 14.4608 192.643 14.7921 193.068C15.1234 193.488 15.3824 194.022 15.5691 194.671C15.7604 195.315 15.8561 196.078 15.8561 196.96ZM14.3021 196.96C14.3021 196.213 14.2414 195.593 14.1201 195.098C14.0034 194.599 13.8471 194.2 13.6511 193.901C13.4551 193.602 13.2288 193.39 12.9721 193.264C12.7154 193.138 12.4494 193.075 12.1741 193.075C11.8941 193.075 11.6258 193.138 11.3691 193.264C11.1171 193.39 10.8931 193.602 10.6971 193.901C10.5011 194.2 10.3448 194.599 10.2281 195.098C10.1114 195.593 10.0531 196.213 10.0531 196.96C10.0531 197.707 10.1114 198.33 10.2281 198.829C10.3448 199.324 10.5011 199.72 10.6971 200.019C10.8931 200.318 11.1171 200.53 11.3691 200.656C11.6258 200.782 11.8941 200.845 12.1741 200.845C12.4494 200.845 12.7154 200.782 12.9721 200.656C13.2288 200.53 13.4551 200.318 13.6511 200.019C13.8471 199.72 14.0034 199.324 14.1201 198.829C14.2414 198.33 14.3021 197.707 14.3021 196.96Z" fill="#1A1A1A"/>
<path d="M2.695 258.644C2.93767 258.593 3.16867 258.555 3.388 258.532C3.612 258.509 3.82667 258.497 4.032 258.497C4.55933 258.497 5.02367 258.576 5.425 258.735C5.831 258.889 6.16933 259.104 6.44 259.379C6.71533 259.654 6.92067 259.979 7.056 260.352C7.196 260.721 7.266 261.122 7.266 261.556C7.266 262.093 7.17267 262.58 6.986 263.019C6.79933 263.458 6.54033 263.833 6.209 264.146C5.87767 264.454 5.48567 264.692 5.033 264.86C4.585 265.028 4.09967 265.112 3.577 265.112C3.269 265.112 2.975 265.082 2.695 265.021C2.41967 264.96 2.16067 264.879 1.918 264.776C1.67533 264.669 1.45133 264.547 1.246 264.412C1.04067 264.272 0.856333 264.127 0.693 263.978L1.155 263.334C1.253 263.194 1.38367 263.124 1.547 263.124C1.64967 263.124 1.76167 263.161 1.883 263.236C2.00433 263.311 2.14433 263.392 2.303 263.481C2.46633 263.565 2.65767 263.644 2.877 263.719C3.09633 263.794 3.35767 263.831 3.661 263.831C3.99233 263.831 4.28867 263.777 4.55 263.67C4.81133 263.563 5.03067 263.413 5.208 263.222C5.39 263.026 5.52767 262.793 5.621 262.522C5.71433 262.251 5.761 261.955 5.761 261.633C5.761 261.339 5.71667 261.075 5.628 260.842C5.544 260.609 5.41567 260.41 5.243 260.247C5.075 260.084 4.86267 259.96 4.606 259.876C4.34933 259.787 4.053 259.743 3.717 259.743C3.46967 259.743 3.21533 259.764 2.954 259.806C2.69733 259.848 2.436 259.913 2.17 260.002L1.232 259.736L2.058 254.92H6.937V255.571C6.937 255.786 6.86933 255.961 6.734 256.096C6.59867 256.231 6.37233 256.299 6.055 256.299H3.101L2.695 258.644ZM15.8561 259.96C15.8561 260.842 15.7604 261.605 15.5691 262.249C15.3824 262.893 15.1234 263.427 14.7921 263.852C14.4608 264.277 14.0711 264.592 13.6231 264.797C13.1751 265.002 12.6921 265.105 12.1741 265.105C11.6561 265.105 11.1731 265.002 10.7251 264.797C10.2771 264.592 9.88743 264.277 9.55609 263.852C9.22943 263.427 8.97276 262.893 8.78609 262.249C8.59943 261.605 8.50609 260.842 8.50609 259.96C8.50609 259.078 8.59943 258.315 8.78609 257.671C8.97276 257.022 9.22943 256.488 9.55609 256.068C9.88743 255.643 10.2771 255.328 10.7251 255.123C11.1731 254.913 11.6561 254.808 12.1741 254.808C12.6921 254.808 13.1751 254.913 13.6231 255.123C14.0711 255.328 14.4608 255.643 14.7921 256.068C15.1234 256.488 15.3824 257.022 15.5691 257.671C15.7604 258.315 15.8561 259.078 15.8561 259.96ZM14.3021 259.96C14.3021 259.213 14.2414 258.593 14.1201 258.098C14.0034 257.599 13.8471 257.2 13.6511 256.901C13.4551 256.602 13.2288 256.39 12.9721 256.264C12.7154 256.138 12.4494 256.075 12.1741 256.075C11.8941 256.075 11.6258 256.138 11.3691 256.264C11.1171 256.39 10.8931 256.602 10.6971 256.901C10.5011 257.2 10.3448 257.599 10.2281 258.098C10.1114 258.593 10.0531 259.213 10.0531 259.96C10.0531 260.707 10.1114 261.33 10.2281 261.829C10.3448 262.324 10.5011 262.72 10.6971 263.019C10.8931 263.318 11.1171 263.53 11.3691 263.656C11.6258 263.782 11.8941 263.845 12.1741 263.845C12.4494 263.845 12.7154 263.782 12.9721 263.656C13.2288 263.53 13.4551 263.318 13.6511 263.019C13.8471 262.72 14.0034 262.324 14.1201 261.829C14.2414 261.33 14.3021 260.707 14.3021 259.96Z" fill="#1A1A1A"/>
<path d="M0.826 322.692C0.896 322.216 1.02667 321.798 1.218 321.439C1.414 321.08 1.659 320.781 1.953 320.543C2.247 320.3 2.583 320.118 2.961 319.997C3.34367 319.871 3.75667 319.808 4.2 319.808C4.648 319.808 5.054 319.873 5.418 320.004C5.78667 320.13 6.10167 320.307 6.363 320.536C6.629 320.765 6.832 321.038 6.972 321.355C7.11667 321.672 7.189 322.02 7.189 322.398C7.189 322.72 7.14933 323.005 7.07 323.252C6.99533 323.495 6.88567 323.709 6.741 323.896C6.601 324.083 6.42833 324.239 6.223 324.365C6.01767 324.491 5.78667 324.596 5.53 324.68C6.15533 324.862 6.62433 325.154 6.937 325.555C7.24967 325.952 7.406 326.451 7.406 327.053C7.406 327.538 7.315 327.97 7.133 328.348C6.951 328.726 6.70367 329.046 6.391 329.307C6.083 329.568 5.72133 329.769 5.306 329.909C4.89533 330.044 4.459 330.112 3.997 330.112C3.479 330.112 3.031 330.051 2.653 329.93C2.275 329.804 1.94833 329.627 1.673 329.398C1.40233 329.165 1.176 328.885 0.994 328.558C0.812 328.231 0.658 327.865 0.532 327.459L1.183 327.186C1.35567 327.111 1.519 327.09 1.673 327.123C1.83167 327.156 1.946 327.242 2.016 327.382C2.09067 327.531 2.17467 327.692 2.268 327.865C2.36133 328.033 2.48033 328.189 2.625 328.334C2.77433 328.474 2.95633 328.593 3.171 328.691C3.39033 328.784 3.65867 328.831 3.976 328.831C4.298 328.831 4.578 328.78 4.816 328.677C5.05867 328.57 5.25933 328.434 5.418 328.271C5.58133 328.103 5.70267 327.916 5.782 327.711C5.86133 327.506 5.901 327.303 5.901 327.102C5.901 326.85 5.87067 326.619 5.81 326.409C5.74933 326.194 5.63033 326.012 5.453 325.863C5.28033 325.714 5.033 325.597 4.711 325.513C4.39367 325.424 3.976 325.38 3.458 325.38V324.295C3.88267 324.29 4.23967 324.248 4.529 324.169C4.823 324.085 5.05633 323.973 5.229 323.833C5.40633 323.688 5.53233 323.516 5.607 323.315C5.68633 323.114 5.726 322.895 5.726 322.657C5.726 322.4 5.68633 322.174 5.607 321.978C5.52767 321.782 5.41567 321.619 5.271 321.488C5.131 321.353 4.963 321.252 4.767 321.187C4.571 321.122 4.354 321.089 4.116 321.089C3.88733 321.089 3.675 321.122 3.479 321.187C3.28767 321.252 3.115 321.343 2.961 321.46C2.81167 321.577 2.68567 321.717 2.583 321.88C2.48033 322.039 2.40567 322.214 2.359 322.405C2.29367 322.596 2.205 322.725 2.093 322.79C1.98567 322.855 1.827 322.869 1.617 322.832L0.826 322.692ZM15.8561 324.96C15.8561 325.842 15.7604 326.605 15.5691 327.249C15.3824 327.893 15.1234 328.427 14.7921 328.852C14.4608 329.277 14.0711 329.592 13.6231 329.797C13.1751 330.002 12.6921 330.105 12.1741 330.105C11.6561 330.105 11.1731 330.002 10.7251 329.797C10.2771 329.592 9.88743 329.277 9.55609 328.852C9.22943 328.427 8.97276 327.893 8.78609 327.249C8.59943 326.605 8.50609 325.842 8.50609 324.96C8.50609 324.078 8.59943 323.315 8.78609 322.671C8.97276 322.022 9.22943 321.488 9.55609 321.068C9.88743 320.643 10.2771 320.328 10.7251 320.123C11.1731 319.913 11.6561 319.808 12.1741 319.808C12.6921 319.808 13.1751 319.913 13.6231 320.123C14.0711 320.328 14.4608 320.643 14.7921 321.068C15.1234 321.488 15.3824 322.022 15.5691 322.671C15.7604 323.315 15.8561 324.078 15.8561 324.96ZM14.3021 324.96C14.3021 324.213 14.2414 323.593 14.1201 323.098C14.0034 322.599 13.8471 322.2 13.6511 321.901C13.4551 321.602 13.2288 321.39 12.9721 321.264C12.7154 321.138 12.4494 321.075 12.1741 321.075C11.8941 321.075 11.6258 321.138 11.3691 321.264C11.1171 321.39 10.8931 321.602 10.6971 321.901C10.5011 322.2 10.3448 322.599 10.2281 323.098C10.1114 323.593 10.0531 324.213 10.0531 324.96C10.0531 325.707 10.1114 326.33 10.2281 326.829C10.3448 327.324 10.5011 327.72 10.6971 328.019C10.8931 328.318 11.1171 328.53 11.3691 328.656C11.6258 328.782 11.8941 328.845 12.1741 328.845C12.4494 328.845 12.7154 328.782 12.9721 328.656C13.2288 328.53 13.4551 328.318 13.6511 328.019C13.8471 327.72 14.0034 327.324 14.1201 326.829C14.2414 326.33 14.3021 325.707 14.3021 324.96Z" fill="#1A1A1A"/>
<path d="M60.63 352.68C60.63 353.436 60.548 354.09 60.384 354.642C60.224 355.194 60.002 355.652 59.718 356.016C59.434 356.38 59.1 356.65 58.716 356.826C58.332 357.002 57.918 357.09 57.474 357.09C57.03 357.09 56.616 357.002 56.232 356.826C55.848 356.65 55.514 356.38 55.23 356.016C54.95 355.652 54.73 355.194 54.57 354.642C54.41 354.09 54.33 353.436 54.33 352.68C54.33 351.924 54.41 351.27 54.57 350.718C54.73 350.162 54.95 349.704 55.23 349.344C55.514 348.98 55.848 348.71 56.232 348.534C56.616 348.354 57.03 348.264 57.474 348.264C57.918 348.264 58.332 348.354 58.716 348.534C59.1 348.71 59.434 348.98 59.718 349.344C60.002 349.704 60.224 350.162 60.384 350.718C60.548 351.27 60.63 351.924 60.63 352.68ZM59.298 352.68C59.298 352.04 59.246 351.508 59.142 351.084C59.042 350.656 58.908 350.314 58.74 350.058C58.572 349.802 58.378 349.62 58.158 349.512C57.938 349.404 57.71 349.35 57.474 349.35C57.234 349.35 57.004 349.404 56.784 349.512C56.568 349.62 56.376 349.802 56.208 350.058C56.04 350.314 55.906 350.656 55.806 351.084C55.706 351.508 55.656 352.04 55.656 352.68C55.656 353.32 55.706 353.854 55.806 354.282C55.906 354.706 56.04 355.046 56.208 355.302C56.376 355.558 56.568 355.74 56.784 355.848C57.004 355.956 57.234 356.01 57.474 356.01C57.71 356.01 57.938 355.956 58.158 355.848C58.378 355.74 58.572 355.558 58.74 355.302C58.908 355.046 59.042 354.706 59.142 354.282C59.246 353.854 59.298 353.32 59.298 352.68ZM67.1229 356.022V357H62.4129V356.022H64.2129V350.61C64.2129 350.418 64.2189 350.222 64.2309 350.022L62.8449 351.192C62.7849 351.24 62.7229 351.272 62.6589 351.288C62.5989 351.3 62.5409 351.3 62.4849 351.288C62.4329 351.276 62.3849 351.258 62.3409 351.234C62.3009 351.206 62.2689 351.176 62.2449 351.144L61.8429 350.58L64.4469 348.342H65.4969V356.022H67.1229ZM74.7286 353.964C74.7286 354.448 74.6686 354.884 74.5486 355.272C74.4326 355.656 74.2566 355.984 74.0206 356.256C73.7886 356.524 73.4986 356.732 73.1506 356.88C72.8066 357.024 72.4066 357.096 71.9506 357.096C71.7426 357.096 71.5366 357.082 71.3326 357.054C71.1286 357.03 70.9166 356.99 70.6966 356.934L70.7686 356.094C70.7806 356.014 70.8106 355.95 70.8586 355.902C70.9106 355.854 70.9846 355.83 71.0806 355.83C71.1526 355.83 71.2446 355.846 71.3566 355.878C71.4726 355.906 71.6226 355.92 71.8066 355.92C72.0506 355.92 72.2666 355.884 72.4546 355.812C72.6466 355.74 72.8066 355.628 72.9346 355.476C73.0666 355.32 73.1646 355.122 73.2286 354.882C73.2966 354.638 73.3306 354.344 73.3306 354V348.36H74.7286V353.964ZM81.4499 350.88V357H80.6699C80.4979 357 80.3879 356.918 80.3399 356.754L80.2439 356.184C80.1159 356.32 79.9799 356.444 79.8359 356.556C79.6959 356.668 79.5459 356.764 79.3859 356.844C79.2259 356.924 79.0539 356.986 78.8699 357.03C78.6899 357.074 78.4959 357.096 78.2879 357.096C77.9519 357.096 77.6559 357.04 77.3999 356.928C77.1439 356.816 76.9279 356.658 76.7519 356.454C76.5799 356.25 76.4499 356.006 76.3619 355.722C76.2739 355.434 76.2299 355.118 76.2299 354.774V350.88H77.5199V354.774C77.5199 355.186 77.6139 355.506 77.8019 355.734C77.9939 355.962 78.2839 356.076 78.6719 356.076C78.9559 356.076 79.2199 356.012 79.4639 355.884C79.7119 355.752 79.9439 355.572 80.1599 355.344V350.88H81.4499ZM84.3305 348.12V357H83.0405V348.12H84.3305ZM91.3527 350.88L87.9807 358.74C87.9367 358.832 87.8827 358.904 87.8187 358.956C87.7587 359.008 87.6647 359.034 87.5367 359.034H86.5827L87.7107 356.586L85.2147 350.88H86.3367C86.4447 350.88 86.5267 350.906 86.5827 350.958C86.6427 351.006 86.6867 351.064 86.7147 351.132L88.1727 354.606C88.2087 354.706 88.2407 354.806 88.2687 354.906C88.3007 355.002 88.3307 355.102 88.3587 355.206C88.3907 355.102 88.4227 355 88.4547 354.9C88.4867 354.8 88.5227 354.7 88.5627 354.6L89.9607 351.132C89.9887 351.06 90.0347 351 90.0987 350.952C90.1667 350.904 90.2407 350.88 90.3207 350.88H91.3527Z" fill="#1A1A1A"/>
<path d="M145.63 352.68C145.63 353.436 145.548 354.09 145.384 354.642C145.224 355.194 145.002 355.652 144.718 356.016C144.434 356.38 144.1 356.65 143.716 356.826C143.332 357.002 142.918 357.09 142.474 357.09C142.03 357.09 141.616 357.002 141.232 356.826C140.848 356.65 140.514 356.38 140.23 356.016C139.95 355.652 139.73 355.194 139.57 354.642C139.41 354.09 139.33 353.436 139.33 352.68C139.33 351.924 139.41 351.27 139.57 350.718C139.73 350.162 139.95 349.704 140.23 349.344C140.514 348.98 140.848 348.71 141.232 348.534C141.616 348.354 142.03 348.264 142.474 348.264C142.918 348.264 143.332 348.354 143.716 348.534C144.1 348.71 144.434 348.98 144.718 349.344C145.002 349.704 145.224 350.162 145.384 350.718C145.548 351.27 145.63 351.924 145.63 352.68ZM144.298 352.68C144.298 352.04 144.246 351.508 144.142 351.084C144.042 350.656 143.908 350.314 143.74 350.058C143.572 349.802 143.378 349.62 143.158 349.512C142.938 349.404 142.71 349.35 142.474 349.35C142.234 349.35 142.004 349.404 141.784 349.512C141.568 349.62 141.376 349.802 141.208 350.058C141.04 350.314 140.906 350.656 140.806 351.084C140.706 351.508 140.656 352.04 140.656 352.68C140.656 353.32 140.706 353.854 140.806 354.282C140.906 354.706 141.04 355.046 141.208 355.302C141.376 355.558 141.568 355.74 141.784 355.848C142.004 355.956 142.234 356.01 142.474 356.01C142.71 356.01 142.938 355.956 143.158 355.848C143.378 355.74 143.572 355.558 143.74 355.302C143.908 355.046 144.042 354.706 144.142 354.282C144.246 353.854 144.298 353.32 144.298 352.68ZM152.123 356.022V357H147.413V356.022H149.213V350.61C149.213 350.418 149.219 350.222 149.231 350.022L147.845 351.192C147.785 351.24 147.723 351.272 147.659 351.288C147.599 351.3 147.541 351.3 147.485 351.288C147.433 351.276 147.385 351.258 147.341 351.234C147.301 351.206 147.269 351.176 147.245 351.144L146.843 350.58L149.447 348.342H150.497V356.022H152.123ZM159.729 353.964C159.729 354.448 159.669 354.884 159.549 355.272C159.433 355.656 159.257 355.984 159.021 356.256C158.789 356.524 158.499 356.732 158.151 356.88C157.807 357.024 157.407 357.096 156.951 357.096C156.743 357.096 156.537 357.082 156.333 357.054C156.129 357.03 155.917 356.99 155.697 356.934L155.769 356.094C155.781 356.014 155.811 355.95 155.859 355.902C155.911 355.854 155.985 355.83 156.081 355.83C156.153 355.83 156.245 355.846 156.357 355.878C156.473 355.906 156.623 355.92 156.807 355.92C157.051 355.92 157.267 355.884 157.455 355.812C157.647 355.74 157.807 355.628 157.935 355.476C158.067 355.32 158.165 355.122 158.229 354.882C158.297 354.638 158.331 354.344 158.331 354V348.36H159.729V353.964ZM166.45 350.88V357H165.67C165.498 357 165.388 356.918 165.34 356.754L165.244 356.184C165.116 356.32 164.98 356.444 164.836 356.556C164.696 356.668 164.546 356.764 164.386 356.844C164.226 356.924 164.054 356.986 163.87 357.03C163.69 357.074 163.496 357.096 163.288 357.096C162.952 357.096 162.656 357.04 162.4 356.928C162.144 356.816 161.928 356.658 161.752 356.454C161.58 356.25 161.45 356.006 161.362 355.722C161.274 355.434 161.23 355.118 161.23 354.774V350.88H162.52V354.774C162.52 355.186 162.614 355.506 162.802 355.734C162.994 355.962 163.284 356.076 163.672 356.076C163.956 356.076 164.22 356.012 164.464 355.884C164.712 355.752 164.944 355.572 165.16 355.344V350.88H166.45ZM169.33 348.12V357H168.04V348.12H169.33ZM176.353 350.88L172.981 358.74C172.937 358.832 172.883 358.904 172.819 358.956C172.759 359.008 172.665 359.034 172.537 359.034H171.583L172.711 356.586L170.215 350.88H171.337C171.445 350.88 171.527 350.906 171.583 350.958C171.643 351.006 171.687 351.064 171.715 351.132L173.173 354.606C173.209 354.706 173.241 354.806 173.269 354.906C173.301 355.002 173.331 355.102 173.359 355.206C173.391 355.102 173.423 355 173.455 354.9C173.487 354.8 173.523 354.7 173.563 354.6L174.961 351.132C174.989 351.06 175.035 351 175.099 350.952C175.167 350.904 175.241 350.88 175.321 350.88H176.353Z" fill="#1A1A1A"/>
<path d="M229.63 352.68C229.63 353.436 229.548 354.09 229.384 354.642C229.224 355.194 229.002 355.652 228.718 356.016C228.434 356.38 228.1 356.65 227.716 356.826C227.332 357.002 226.918 357.09 226.474 357.09C226.03 357.09 225.616 357.002 225.232 356.826C224.848 356.65 224.514 356.38 224.23 356.016C223.95 355.652 223.73 355.194 223.57 354.642C223.41 354.09 223.33 353.436 223.33 352.68C223.33 351.924 223.41 351.27 223.57 350.718C223.73 350.162 223.95 349.704 224.23 349.344C224.514 348.98 224.848 348.71 225.232 348.534C225.616 348.354 226.03 348.264 226.474 348.264C226.918 348.264 227.332 348.354 227.716 348.534C228.1 348.71 228.434 348.98 228.718 349.344C229.002 349.704 229.224 350.162 229.384 350.718C229.548 351.27 229.63 351.924 229.63 352.68ZM228.298 352.68C228.298 352.04 228.246 351.508 228.142 351.084C228.042 350.656 227.908 350.314 227.74 350.058C227.572 349.802 227.378 349.62 227.158 349.512C226.938 349.404 226.71 349.35 226.474 349.35C226.234 349.35 226.004 349.404 225.784 349.512C225.568 349.62 225.376 349.802 225.208 350.058C225.04 350.314 224.906 350.656 224.806 351.084C224.706 351.508 224.656 352.04 224.656 352.68C224.656 353.32 224.706 353.854 224.806 354.282C224.906 354.706 225.04 355.046 225.208 355.302C225.376 355.558 225.568 355.74 225.784 355.848C226.004 355.956 226.234 356.01 226.474 356.01C226.71 356.01 226.938 355.956 227.158 355.848C227.378 355.74 227.572 355.558 227.74 355.302C227.908 355.046 228.042 354.706 228.142 354.282C228.246 353.854 228.298 353.32 228.298 352.68ZM236.123 356.022V357H231.413V356.022H233.213V350.61C233.213 350.418 233.219 350.222 233.231 350.022L231.845 351.192C231.785 351.24 231.723 351.272 231.659 351.288C231.599 351.3 231.541 351.3 231.485 351.288C231.433 351.276 231.385 351.258 231.341 351.234C231.301 351.206 231.269 351.176 231.245 351.144L230.843 350.58L233.447 348.342H234.497V356.022H236.123ZM243.729 353.964C243.729 354.448 243.669 354.884 243.549 355.272C243.433 355.656 243.257 355.984 243.021 356.256C242.789 356.524 242.499 356.732 242.151 356.88C241.807 357.024 241.407 357.096 240.951 357.096C240.743 357.096 240.537 357.082 240.333 357.054C240.129 357.03 239.917 356.99 239.697 356.934L239.769 356.094C239.781 356.014 239.811 355.95 239.859 355.902C239.911 355.854 239.985 355.83 240.081 355.83C240.153 355.83 240.245 355.846 240.357 355.878C240.473 355.906 240.623 355.92 240.807 355.92C241.051 355.92 241.267 355.884 241.455 355.812C241.647 355.74 241.807 355.628 241.935 355.476C242.067 355.32 242.165 355.122 242.229 354.882C242.297 354.638 242.331 354.344 242.331 354V348.36H243.729V353.964ZM250.45 350.88V357H249.67C249.498 357 249.388 356.918 249.34 356.754L249.244 356.184C249.116 356.32 248.98 356.444 248.836 356.556C248.696 356.668 248.546 356.764 248.386 356.844C248.226 356.924 248.054 356.986 247.87 357.03C247.69 357.074 247.496 357.096 247.288 357.096C246.952 357.096 246.656 357.04 246.4 356.928C246.144 356.816 245.928 356.658 245.752 356.454C245.58 356.25 245.45 356.006 245.362 355.722C245.274 355.434 245.23 355.118 245.23 354.774V350.88H246.52V354.774C246.52 355.186 246.614 355.506 246.802 355.734C246.994 355.962 247.284 356.076 247.672 356.076C247.956 356.076 248.22 356.012 248.464 355.884C248.712 355.752 248.944 355.572 249.16 355.344V350.88H250.45ZM253.33 348.12V357H252.04V348.12H253.33ZM260.353 350.88L256.981 358.74C256.937 358.832 256.883 358.904 256.819 358.956C256.759 359.008 256.665 359.034 256.537 359.034H255.583L256.711 356.586L254.215 350.88H255.337C255.445 350.88 255.527 350.906 255.583 350.958C255.643 351.006 255.687 351.064 255.715 351.132L257.173 354.606C257.209 354.706 257.241 354.806 257.269 354.906C257.301 355.002 257.331 355.102 257.359 355.206C257.391 355.102 257.423 355 257.455 354.9C257.487 354.8 257.523 354.7 257.563 354.6L258.961 351.132C258.989 351.06 259.035 351 259.099 350.952C259.167 350.904 259.241 350.88 259.321 350.88H260.353Z" fill="#1A1A1A"/>
<path d="M315.63 352.68C315.63 353.436 315.548 354.09 315.384 354.642C315.224 355.194 315.002 355.652 314.718 356.016C314.434 356.38 314.1 356.65 313.716 356.826C313.332 357.002 312.918 357.09 312.474 357.09C312.03 357.09 311.616 357.002 311.232 356.826C310.848 356.65 310.514 356.38 310.23 356.016C309.95 355.652 309.73 355.194 309.57 354.642C309.41 354.09 309.33 353.436 309.33 352.68C309.33 351.924 309.41 351.27 309.57 350.718C309.73 350.162 309.95 349.704 310.23 349.344C310.514 348.98 310.848 348.71 311.232 348.534C311.616 348.354 312.03 348.264 312.474 348.264C312.918 348.264 313.332 348.354 313.716 348.534C314.1 348.71 314.434 348.98 314.718 349.344C315.002 349.704 315.224 350.162 315.384 350.718C315.548 351.27 315.63 351.924 315.63 352.68ZM314.298 352.68C314.298 352.04 314.246 351.508 314.142 351.084C314.042 350.656 313.908 350.314 313.74 350.058C313.572 349.802 313.378 349.62 313.158 349.512C312.938 349.404 312.71 349.35 312.474 349.35C312.234 349.35 312.004 349.404 311.784 349.512C311.568 349.62 311.376 349.802 311.208 350.058C311.04 350.314 310.906 350.656 310.806 351.084C310.706 351.508 310.656 352.04 310.656 352.68C310.656 353.32 310.706 353.854 310.806 354.282C310.906 354.706 311.04 355.046 311.208 355.302C311.376 355.558 311.568 355.74 311.784 355.848C312.004 355.956 312.234 356.01 312.474 356.01C312.71 356.01 312.938 355.956 313.158 355.848C313.378 355.74 313.572 355.558 313.74 355.302C313.908 355.046 314.042 354.706 314.142 354.282C314.246 353.854 314.298 353.32 314.298 352.68ZM322.123 356.022V357H317.413V356.022H319.213V350.61C319.213 350.418 319.219 350.222 319.231 350.022L317.845 351.192C317.785 351.24 317.723 351.272 317.659 351.288C317.599 351.3 317.541 351.3 317.485 351.288C317.433 351.276 317.385 351.258 317.341 351.234C317.301 351.206 317.269 351.176 317.245 351.144L316.843 350.58L319.447 348.342H320.497V356.022H322.123ZM329.729 353.964C329.729 354.448 329.669 354.884 329.549 355.272C329.433 355.656 329.257 355.984 329.021 356.256C328.789 356.524 328.499 356.732 328.151 356.88C327.807 357.024 327.407 357.096 326.951 357.096C326.743 357.096 326.537 357.082 326.333 357.054C326.129 357.03 325.917 356.99 325.697 356.934L325.769 356.094C325.781 356.014 325.811 355.95 325.859 355.902C325.911 355.854 325.985 355.83 326.081 355.83C326.153 355.83 326.245 355.846 326.357 355.878C326.473 355.906 326.623 355.92 326.807 355.92C327.051 355.92 327.267 355.884 327.455 355.812C327.647 355.74 327.807 355.628 327.935 355.476C328.067 355.32 328.165 355.122 328.229 354.882C328.297 354.638 328.331 354.344 328.331 354V348.36H329.729V353.964ZM336.45 350.88V357H335.67C335.498 357 335.388 356.918 335.34 356.754L335.244 356.184C335.116 356.32 334.98 356.444 334.836 356.556C334.696 356.668 334.546 356.764 334.386 356.844C334.226 356.924 334.054 356.986 333.87 357.03C333.69 357.074 333.496 357.096 333.288 357.096C332.952 357.096 332.656 357.04 332.4 356.928C332.144 356.816 331.928 356.658 331.752 356.454C331.58 356.25 331.45 356.006 331.362 355.722C331.274 355.434 331.23 355.118 331.23 354.774V350.88H332.52V354.774C332.52 355.186 332.614 355.506 332.802 355.734C332.994 355.962 333.284 356.076 333.672 356.076C333.956 356.076 334.22 356.012 334.464 355.884C334.712 355.752 334.944 355.572 335.16 355.344V350.88H336.45ZM339.33 348.12V357H338.04V348.12H339.33ZM346.353 350.88L342.981 358.74C342.937 358.832 342.883 358.904 342.819 358.956C342.759 359.008 342.665 359.034 342.537 359.034H341.583L342.711 356.586L340.215 350.88H341.337C341.445 350.88 341.527 350.906 341.583 350.958C341.643 351.006 341.687 351.064 341.715 351.132L343.173 354.606C343.209 354.706 343.241 354.806 343.269 354.906C343.301 355.002 343.331 355.102 343.359 355.206C343.391 355.102 343.423 355 343.455 354.9C343.487 354.8 343.523 354.7 343.563 354.6L344.961 351.132C344.989 351.06 345.035 351 345.099 350.952C345.167 350.904 345.241 350.88 345.321 350.88H346.353Z" fill="#1A1A1A"/>
<path d="M399.63 352.68C399.63 353.436 399.548 354.09 399.384 354.642C399.224 355.194 399.002 355.652 398.718 356.016C398.434 356.38 398.1 356.65 397.716 356.826C397.332 357.002 396.918 357.09 396.474 357.09C396.03 357.09 395.616 357.002 395.232 356.826C394.848 356.65 394.514 356.38 394.23 356.016C393.95 355.652 393.73 355.194 393.57 354.642C393.41 354.09 393.33 353.436 393.33 352.68C393.33 351.924 393.41 351.27 393.57 350.718C393.73 350.162 393.95 349.704 394.23 349.344C394.514 348.98 394.848 348.71 395.232 348.534C395.616 348.354 396.03 348.264 396.474 348.264C396.918 348.264 397.332 348.354 397.716 348.534C398.1 348.71 398.434 348.98 398.718 349.344C399.002 349.704 399.224 350.162 399.384 350.718C399.548 351.27 399.63 351.924 399.63 352.68ZM398.298 352.68C398.298 352.04 398.246 351.508 398.142 351.084C398.042 350.656 397.908 350.314 397.74 350.058C397.572 349.802 397.378 349.62 397.158 349.512C396.938 349.404 396.71 349.35 396.474 349.35C396.234 349.35 396.004 349.404 395.784 349.512C395.568 349.62 395.376 349.802 395.208 350.058C395.04 350.314 394.906 350.656 394.806 351.084C394.706 351.508 394.656 352.04 394.656 352.68C394.656 353.32 394.706 353.854 394.806 354.282C394.906 354.706 395.04 355.046 395.208 355.302C395.376 355.558 395.568 355.74 395.784 355.848C396.004 355.956 396.234 356.01 396.474 356.01C396.71 356.01 396.938 355.956 397.158 355.848C397.378 355.74 397.572 355.558 397.74 355.302C397.908 355.046 398.042 354.706 398.142 354.282C398.246 353.854 398.298 353.32 398.298 352.68ZM406.123 356.022V357H401.413V356.022H403.213V350.61C403.213 350.418 403.219 350.222 403.231 350.022L401.845 351.192C401.785 351.24 401.723 351.272 401.659 351.288C401.599 351.3 401.541 351.3 401.485 351.288C401.433 351.276 401.385 351.258 401.341 351.234C401.301 351.206 401.269 351.176 401.245 351.144L400.843 350.58L403.447 348.342H404.497V356.022H406.123ZM413.729 353.964C413.729 354.448 413.669 354.884 413.549 355.272C413.433 355.656 413.257 355.984 413.021 356.256C412.789 356.524 412.499 356.732 412.151 356.88C411.807 357.024 411.407 357.096 410.951 357.096C410.743 357.096 410.537 357.082 410.333 357.054C410.129 357.03 409.917 356.99 409.697 356.934L409.769 356.094C409.781 356.014 409.811 355.95 409.859 355.902C409.911 355.854 409.985 355.83 410.081 355.83C410.153 355.83 410.245 355.846 410.357 355.878C410.473 355.906 410.623 355.92 410.807 355.92C411.051 355.92 411.267 355.884 411.455 355.812C411.647 355.74 411.807 355.628 411.935 355.476C412.067 355.32 412.165 355.122 412.229 354.882C412.297 354.638 412.331 354.344 412.331 354V348.36H413.729V353.964ZM420.45 350.88V357H419.67C419.498 357 419.388 356.918 419.34 356.754L419.244 356.184C419.116 356.32 418.98 356.444 418.836 356.556C418.696 356.668 418.546 356.764 418.386 356.844C418.226 356.924 418.054 356.986 417.87 357.03C417.69 357.074 417.496 357.096 417.288 357.096C416.952 357.096 416.656 357.04 416.4 356.928C416.144 356.816 415.928 356.658 415.752 356.454C415.58 356.25 415.45 356.006 415.362 355.722C415.274 355.434 415.23 355.118 415.23 354.774V350.88H416.52V354.774C416.52 355.186 416.614 355.506 416.802 355.734C416.994 355.962 417.284 356.076 417.672 356.076C417.956 356.076 418.22 356.012 418.464 355.884C418.712 355.752 418.944 355.572 419.16 355.344V350.88H420.45ZM423.33 348.12V357H422.04V348.12H423.33ZM430.353 350.88L426.981 358.74C426.937 358.832 426.883 358.904 426.819 358.956C426.759 359.008 426.665 359.034 426.537 359.034H425.583L426.711 356.586L424.215 350.88H425.337C425.445 350.88 425.527 350.906 425.583 350.958C425.643 351.006 425.687 351.064 425.715 351.132L427.173 354.606C427.209 354.706 427.241 354.806 427.269 354.906C427.301 355.002 427.331 355.102 427.359 355.206C427.391 355.102 427.423 355 427.455 354.9C427.487 354.8 427.523 354.7 427.563 354.6L428.961 351.132C428.989 351.06 429.035 351 429.099 350.952C429.167 350.904 429.241 350.88 429.321 350.88H430.353Z" fill="#1A1A1A"/>
<path d="M484.63 352.68C484.63 353.436 484.548 354.09 484.384 354.642C484.224 355.194 484.002 355.652 483.718 356.016C483.434 356.38 483.1 356.65 482.716 356.826C482.332 357.002 481.918 357.09 481.474 357.09C481.03 357.09 480.616 357.002 480.232 356.826C479.848 356.65 479.514 356.38 479.23 356.016C478.95 355.652 478.73 355.194 478.57 354.642C478.41 354.09 478.33 353.436 478.33 352.68C478.33 351.924 478.41 351.27 478.57 350.718C478.73 350.162 478.95 349.704 479.23 349.344C479.514 348.98 479.848 348.71 480.232 348.534C480.616 348.354 481.03 348.264 481.474 348.264C481.918 348.264 482.332 348.354 482.716 348.534C483.1 348.71 483.434 348.98 483.718 349.344C484.002 349.704 484.224 350.162 484.384 350.718C484.548 351.27 484.63 351.924 484.63 352.68ZM483.298 352.68C483.298 352.04 483.246 351.508 483.142 351.084C483.042 350.656 482.908 350.314 482.74 350.058C482.572 349.802 482.378 349.62 482.158 349.512C481.938 349.404 481.71 349.35 481.474 349.35C481.234 349.35 481.004 349.404 480.784 349.512C480.568 349.62 480.376 349.802 480.208 350.058C480.04 350.314 479.906 350.656 479.806 351.084C479.706 351.508 479.656 352.04 479.656 352.68C479.656 353.32 479.706 353.854 479.806 354.282C479.906 354.706 480.04 355.046 480.208 355.302C480.376 355.558 480.568 355.74 480.784 355.848C481.004 355.956 481.234 356.01 481.474 356.01C481.71 356.01 481.938 355.956 482.158 355.848C482.378 355.74 482.572 355.558 482.74 355.302C482.908 355.046 483.042 354.706 483.142 354.282C483.246 353.854 483.298 353.32 483.298 352.68ZM491.123 356.022V357H486.413V356.022H488.213V350.61C488.213 350.418 488.219 350.222 488.231 350.022L486.845 351.192C486.785 351.24 486.723 351.272 486.659 351.288C486.599 351.3 486.541 351.3 486.485 351.288C486.433 351.276 486.385 351.258 486.341 351.234C486.301 351.206 486.269 351.176 486.245 351.144L485.843 350.58L488.447 348.342H489.497V356.022H491.123ZM498.729 353.964C498.729 354.448 498.669 354.884 498.549 355.272C498.433 355.656 498.257 355.984 498.021 356.256C497.789 356.524 497.499 356.732 497.151 356.88C496.807 357.024 496.407 357.096 495.951 357.096C495.743 357.096 495.537 357.082 495.333 357.054C495.129 357.03 494.917 356.99 494.697 356.934L494.769 356.094C494.781 356.014 494.811 355.95 494.859 355.902C494.911 355.854 494.985 355.83 495.081 355.83C495.153 355.83 495.245 355.846 495.357 355.878C495.473 355.906 495.623 355.92 495.807 355.92C496.051 355.92 496.267 355.884 496.455 355.812C496.647 355.74 496.807 355.628 496.935 355.476C497.067 355.32 497.165 355.122 497.229 354.882C497.297 354.638 497.331 354.344 497.331 354V348.36H498.729V353.964ZM505.45 350.88V357H504.67C504.498 357 504.388 356.918 504.34 356.754L504.244 356.184C504.116 356.32 503.98 356.444 503.836 356.556C503.696 356.668 503.546 356.764 503.386 356.844C503.226 356.924 503.054 356.986 502.87 357.03C502.69 357.074 502.496 357.096 502.288 357.096C501.952 357.096 501.656 357.04 501.4 356.928C501.144 356.816 500.928 356.658 500.752 356.454C500.58 356.25 500.45 356.006 500.362 355.722C500.274 355.434 500.23 355.118 500.23 354.774V350.88H501.52V354.774C501.52 355.186 501.614 355.506 501.802 355.734C501.994 355.962 502.284 356.076 502.672 356.076C502.956 356.076 503.22 356.012 503.464 355.884C503.712 355.752 503.944 355.572 504.16 355.344V350.88H505.45ZM508.33 348.12V357H507.04V348.12H508.33ZM515.353 350.88L511.981 358.74C511.937 358.832 511.883 358.904 511.819 358.956C511.759 359.008 511.665 359.034 511.537 359.034H510.583L511.711 356.586L509.215 350.88H510.337C510.445 350.88 510.527 350.906 510.583 350.958C510.643 351.006 510.687 351.064 510.715 351.132L512.173 354.606C512.209 354.706 512.241 354.806 512.269 354.906C512.301 355.002 512.331 355.102 512.359 355.206C512.391 355.102 512.423 355 512.455 354.9C512.487 354.8 512.523 354.7 512.563 354.6L513.961 351.132C513.989 351.06 514.035 351 514.099 350.952C514.167 350.904 514.241 350.88 514.321 350.88H515.353Z" fill="#1A1A1A"/>
<line x1="54" y1="326.5" x2="549" y2="326.5" stroke="black" stroke-opacity="0.29"/>
<line x1="54" y1="263.5" x2="549" y2="263.5" stroke="black" stroke-opacity="0.29"/>
<line x1="54" y1="200.5" x2="549" y2="200.5" stroke="black" stroke-opacity="0.29"/>
<line x1="54" y1="137.5" x2="549" y2="137.5" stroke="black" stroke-opacity="0.29"/>
<line x1="54" y1="73.5" x2="549" y2="73.5" stroke="black" stroke-opacity="0.29"/>
<path d="M60 135.162L103.026 178.823C114.79 190.76 134.052 190.745 145.796 178.788L188.649 135.162L218.322 104.333C232.617 89.4817 257.287 93.1395 266.658 111.5L320.182 216.373C330.488 236.567 358.608 238.471 371.542 219.851L400.438 178.252C413.677 159.193 442.614 161.737 452.324 182.813L470.361 221.963C479.091 240.909 504.013 245.384 518.788 230.657L549 200.541" stroke="#D568EE"/>
<g filter="url(#filter0_f_948_136)">
<path d="M60 143.489L102.97 187.326C114.745 199.339 134.096 199.324 145.852 187.291L188.649 143.489L218.254 112.567C232.552 97.6329 257.315 101.298 266.674 119.733L320.158 225.088C330.448 245.358 358.667 247.264 371.59 228.561L400.389 186.88C413.614 167.739 442.65 170.285 452.343 191.436L470.351 230.731C479.066 249.749 504.082 254.232 518.859 239.423L549 209.218" stroke="#571BAD"/>
</g>
<circle cx="63" cy="140" r="4.5" fill="#D568EE" stroke="#D568EE"/>
<circle cx="123" cy="186" r="4.5" fill="#D568EE" stroke="#D568EE"/>
<circle cx="239" cy="96" r="4.5" fill="#D568EE" stroke="#D568EE"/>
<circle cx="344" cy="231" r="4.5" fill="#D568EE" stroke="#D568EE"/>
<circle cx="425" cy="165" r="4.5" fill="#D568EE" stroke="#D568EE"/>
<circle cx="549" cy="201" r="4.5" fill="#D568EE" stroke="#D568EE"/>
<path d="M360.972 11.53H358.278V19H356.88V11.53H354.18V10.36H360.972V11.53ZM363.119 13.606C363.371 13.358 363.647 13.16 363.947 13.012C364.247 12.86 364.597 12.784 364.997 12.784C365.333 12.784 365.627 12.84 365.879 12.952C366.135 13.064 366.349 13.222 366.521 13.426C366.697 13.63 366.829 13.876 366.917 14.164C367.005 14.448 367.049 14.762 367.049 15.106V19H365.765V15.106C365.765 14.694 365.669 14.374 365.477 14.146C365.289 13.918 365.001 13.804 364.613 13.804C364.325 13.804 364.057 13.87 363.809 14.002C363.565 14.134 363.335 14.314 363.119 14.542V19H361.829V10.12H363.119V13.606ZM369.9 12.88V19H368.61V12.88H369.9ZM370.116 11.032C370.116 11.148 370.092 11.258 370.044 11.362C370 11.466 369.938 11.558 369.858 11.638C369.778 11.714 369.684 11.776 369.576 11.824C369.472 11.868 369.36 11.89 369.24 11.89C369.124 11.89 369.014 11.868 368.91 11.824C368.81 11.776 368.722 11.714 368.646 11.638C368.57 11.558 368.508 11.466 368.46 11.362C368.416 11.258 368.394 11.148 368.394 11.032C368.394 10.912 368.416 10.8 368.46 10.696C368.508 10.592 368.57 10.502 368.646 10.426C368.722 10.346 368.81 10.284 368.91 10.24C369.014 10.192 369.124 10.168 369.24 10.168C369.36 10.168 369.472 10.192 369.576 10.24C369.684 10.284 369.778 10.346 369.858 10.426C369.938 10.502 370 10.592 370.044 10.696C370.092 10.8 370.116 10.912 370.116 11.032ZM375.174 13.99C375.142 14.046 375.106 14.086 375.066 14.11C375.026 14.134 374.976 14.146 374.916 14.146C374.848 14.146 374.774 14.126 374.694 14.086C374.614 14.042 374.52 13.994 374.412 13.942C374.304 13.89 374.176 13.844 374.028 13.804C373.884 13.76 373.714 13.738 373.518 13.738C373.358 13.738 373.212 13.758 373.08 13.798C372.952 13.834 372.842 13.888 372.75 13.96C372.662 14.028 372.594 14.11 372.546 14.206C372.498 14.298 372.474 14.398 372.474 14.506C372.474 14.65 372.518 14.77 372.606 14.866C372.694 14.962 372.81 15.046 372.954 15.118C373.098 15.186 373.262 15.248 373.446 15.304C373.63 15.36 373.818 15.42 374.01 15.484C374.202 15.548 374.39 15.622 374.574 15.706C374.758 15.79 374.922 15.894 375.066 16.018C375.21 16.138 375.326 16.286 375.414 16.462C375.502 16.634 375.546 16.844 375.546 17.092C375.546 17.38 375.494 17.646 375.39 17.89C375.286 18.134 375.134 18.346 374.934 18.526C374.734 18.706 374.484 18.846 374.184 18.946C373.888 19.046 373.548 19.096 373.164 19.096C372.952 19.096 372.746 19.076 372.546 19.036C372.35 19 372.162 18.95 371.982 18.886C371.806 18.818 371.64 18.738 371.484 18.646C371.332 18.554 371.196 18.454 371.076 18.346L371.376 17.854C371.412 17.794 371.456 17.748 371.508 17.716C371.564 17.68 371.632 17.662 371.712 17.662C371.796 17.662 371.878 17.69 371.958 17.746C372.042 17.798 372.138 17.856 372.246 17.92C372.358 17.984 372.492 18.044 372.648 18.1C372.804 18.152 372.998 18.178 373.23 18.178C373.422 18.178 373.588 18.156 373.728 18.112C373.868 18.064 373.984 18 374.076 17.92C374.168 17.84 374.236 17.75 374.28 17.65C374.324 17.546 374.346 17.436 374.346 17.32C374.346 17.164 374.302 17.036 374.214 16.936C374.126 16.836 374.008 16.75 373.86 16.678C373.716 16.606 373.55 16.542 373.362 16.486C373.178 16.43 372.99 16.37 372.798 16.306C372.606 16.242 372.416 16.168 372.228 16.084C372.044 16 371.878 15.894 371.73 15.766C371.586 15.634 371.47 15.476 371.382 15.292C371.294 15.104 371.25 14.876 371.25 14.608C371.25 14.364 371.298 14.132 371.394 13.912C371.494 13.692 371.638 13.498 371.826 13.33C372.018 13.162 372.252 13.03 372.528 12.934C372.808 12.834 373.13 12.784 373.494 12.784C373.906 12.784 374.28 12.85 374.616 12.982C374.952 13.114 375.234 13.294 375.462 13.522L375.174 13.99ZM391.228 10.36L388.54 19H387.274L385.246 12.796C385.222 12.728 385.198 12.654 385.174 12.574C385.154 12.494 385.134 12.408 385.114 12.316C385.094 12.408 385.072 12.494 385.048 12.574C385.028 12.654 385.006 12.728 384.982 12.796L382.936 19H381.67L378.982 10.36H380.158C380.278 10.36 380.378 10.39 380.458 10.45C380.542 10.506 380.598 10.584 380.626 10.684L382.246 16.222C382.278 16.342 382.308 16.472 382.336 16.612C382.364 16.752 382.392 16.898 382.42 17.05C382.448 16.898 382.478 16.752 382.51 16.612C382.546 16.468 382.584 16.338 382.624 16.222L384.478 10.684C384.506 10.604 384.562 10.53 384.646 10.462C384.73 10.394 384.83 10.36 384.946 10.36H385.354C385.478 10.36 385.578 10.392 385.654 10.456C385.73 10.516 385.788 10.592 385.828 10.684L387.676 16.222C387.716 16.338 387.752 16.464 387.784 16.6C387.82 16.732 387.852 16.872 387.88 17.02C387.908 16.872 387.934 16.732 387.958 16.6C387.986 16.464 388.016 16.338 388.048 16.222L389.662 10.684C389.686 10.596 389.74 10.52 389.824 10.456C389.912 10.392 390.014 10.36 390.13 10.36H391.228ZM395.468 15.25C395.468 15.034 395.436 14.834 395.372 14.65C395.312 14.462 395.222 14.3 395.102 14.164C394.982 14.024 394.832 13.916 394.652 13.84C394.476 13.76 394.272 13.72 394.04 13.72C393.572 13.72 393.204 13.854 392.936 14.122C392.668 14.39 392.498 14.766 392.426 15.25H395.468ZM392.39 16.042C392.406 16.39 392.46 16.692 392.552 16.948C392.644 17.2 392.766 17.41 392.918 17.578C393.074 17.746 393.258 17.872 393.47 17.956C393.686 18.036 393.926 18.076 394.19 18.076C394.442 18.076 394.66 18.048 394.844 17.992C395.028 17.932 395.188 17.868 395.324 17.8C395.46 17.728 395.576 17.664 395.672 17.608C395.768 17.548 395.856 17.518 395.936 17.518C396.04 17.518 396.12 17.558 396.176 17.638L396.542 18.112C396.39 18.292 396.218 18.444 396.026 18.568C395.834 18.692 395.63 18.794 395.414 18.874C395.198 18.95 394.976 19.004 394.748 19.036C394.52 19.072 394.298 19.09 394.082 19.09C393.658 19.09 393.264 19.02 392.9 18.88C392.54 18.736 392.226 18.526 391.958 18.25C391.694 17.974 391.486 17.632 391.334 17.224C391.186 16.816 391.112 16.346 391.112 15.814C391.112 15.39 391.178 14.994 391.31 14.626C391.446 14.258 391.638 13.938 391.886 13.666C392.138 13.394 392.442 13.18 392.798 13.024C393.158 12.864 393.564 12.784 394.016 12.784C394.392 12.784 394.74 12.846 395.06 12.97C395.38 13.09 395.656 13.268 395.888 13.504C396.12 13.74 396.3 14.03 396.428 14.374C396.56 14.714 396.626 15.102 396.626 15.538C396.626 15.738 396.604 15.872 396.56 15.94C396.516 16.008 396.436 16.042 396.32 16.042H392.39ZM401.843 15.25C401.843 15.034 401.811 14.834 401.747 14.65C401.687 14.462 401.597 14.3 401.477 14.164C401.357 14.024 401.207 13.916 401.027 13.84C400.851 13.76 400.647 13.72 400.415 13.72C399.947 13.72 399.579 13.854 399.311 14.122C399.043 14.39 398.873 14.766 398.801 15.25H401.843ZM398.765 16.042C398.781 16.39 398.835 16.692 398.927 16.948C399.019 17.2 399.141 17.41 399.293 17.578C399.449 17.746 399.633 17.872 399.845 17.956C400.061 18.036 400.301 18.076 400.565 18.076C400.817 18.076 401.035 18.048 401.219 17.992C401.403 17.932 401.563 17.868 401.699 17.8C401.835 17.728 401.951 17.664 402.047 17.608C402.143 17.548 402.231 17.518 402.311 17.518C402.415 17.518 402.495 17.558 402.551 17.638L402.917 18.112C402.765 18.292 402.593 18.444 402.401 18.568C402.209 18.692 402.005 18.794 401.789 18.874C401.573 18.95 401.351 19.004 401.123 19.036C400.895 19.072 400.673 19.09 400.457 19.09C400.033 19.09 399.639 19.02 399.275 18.88C398.915 18.736 398.601 18.526 398.333 18.25C398.069 17.974 397.861 17.632 397.709 17.224C397.561 16.816 397.487 16.346 397.487 15.814C397.487 15.39 397.553 14.994 397.685 14.626C397.821 14.258 398.013 13.938 398.261 13.666C398.513 13.394 398.817 13.18 399.173 13.024C399.533 12.864 399.939 12.784 400.391 12.784C400.767 12.784 401.115 12.846 401.435 12.97C401.755 13.09 402.031 13.268 402.263 13.504C402.495 13.74 402.675 14.03 402.803 14.374C402.935 14.714 403.001 15.102 403.001 15.538C403.001 15.738 402.979 15.872 402.935 15.94C402.891 16.008 402.811 16.042 402.695 16.042H398.765ZM405.494 10.12V15.268H405.77C405.858 15.268 405.93 15.256 405.986 15.232C406.042 15.208 406.1 15.158 406.16 15.082L407.876 13.12C407.936 13.04 408.002 12.98 408.074 12.94C408.146 12.9 408.238 12.88 408.35 12.88H409.52L407.456 15.208C407.336 15.364 407.204 15.488 407.06 15.58C407.14 15.636 407.21 15.7 407.27 15.772C407.33 15.84 407.388 15.918 407.444 16.006L409.646 19H408.494C408.39 19 408.3 18.984 408.224 18.952C408.152 18.916 408.088 18.852 408.032 18.76L406.262 16.36C406.202 16.268 406.142 16.21 406.082 16.186C406.022 16.158 405.932 16.144 405.812 16.144H405.494V19H404.204V10.12H405.494Z" fill="#1A1A1A"/>
<path d="M488.972 11.53H486.278V19H484.88V11.53H482.18V10.36H488.972V11.53ZM491.119 13.606C491.371 13.358 491.647 13.16 491.947 13.012C492.247 12.86 492.597 12.784 492.997 12.784C493.333 12.784 493.627 12.84 493.879 12.952C494.135 13.064 494.349 13.222 494.521 13.426C494.697 13.63 494.829 13.876 494.917 14.164C495.005 14.448 495.049 14.762 495.049 15.106V19H493.765V15.106C493.765 14.694 493.669 14.374 493.477 14.146C493.289 13.918 493.001 13.804 492.613 13.804C492.325 13.804 492.057 13.87 491.809 14.002C491.565 14.134 491.335 14.314 491.119 14.542V19H489.829V10.12H491.119V13.606ZM497.9 12.88V19H496.61V12.88H497.9ZM498.116 11.032C498.116 11.148 498.092 11.258 498.044 11.362C498 11.466 497.938 11.558 497.858 11.638C497.778 11.714 497.684 11.776 497.576 11.824C497.472 11.868 497.36 11.89 497.24 11.89C497.124 11.89 497.014 11.868 496.91 11.824C496.81 11.776 496.722 11.714 496.646 11.638C496.57 11.558 496.508 11.466 496.46 11.362C496.416 11.258 496.394 11.148 496.394 11.032C496.394 10.912 496.416 10.8 496.46 10.696C496.508 10.592 496.57 10.502 496.646 10.426C496.722 10.346 496.81 10.284 496.91 10.24C497.014 10.192 497.124 10.168 497.24 10.168C497.36 10.168 497.472 10.192 497.576 10.24C497.684 10.284 497.778 10.346 497.858 10.426C497.938 10.502 498 10.592 498.044 10.696C498.092 10.8 498.116 10.912 498.116 11.032ZM503.174 13.99C503.142 14.046 503.106 14.086 503.066 14.11C503.026 14.134 502.976 14.146 502.916 14.146C502.848 14.146 502.774 14.126 502.694 14.086C502.614 14.042 502.52 13.994 502.412 13.942C502.304 13.89 502.176 13.844 502.028 13.804C501.884 13.76 501.714 13.738 501.518 13.738C501.358 13.738 501.212 13.758 501.08 13.798C500.952 13.834 500.842 13.888 500.75 13.96C500.662 14.028 500.594 14.11 500.546 14.206C500.498 14.298 500.474 14.398 500.474 14.506C500.474 14.65 500.518 14.77 500.606 14.866C500.694 14.962 500.81 15.046 500.954 15.118C501.098 15.186 501.262 15.248 501.446 15.304C501.63 15.36 501.818 15.42 502.01 15.484C502.202 15.548 502.39 15.622 502.574 15.706C502.758 15.79 502.922 15.894 503.066 16.018C503.21 16.138 503.326 16.286 503.414 16.462C503.502 16.634 503.546 16.844 503.546 17.092C503.546 17.38 503.494 17.646 503.39 17.89C503.286 18.134 503.134 18.346 502.934 18.526C502.734 18.706 502.484 18.846 502.184 18.946C501.888 19.046 501.548 19.096 501.164 19.096C500.952 19.096 500.746 19.076 500.546 19.036C500.35 19 500.162 18.95 499.982 18.886C499.806 18.818 499.64 18.738 499.484 18.646C499.332 18.554 499.196 18.454 499.076 18.346L499.376 17.854C499.412 17.794 499.456 17.748 499.508 17.716C499.564 17.68 499.632 17.662 499.712 17.662C499.796 17.662 499.878 17.69 499.958 17.746C500.042 17.798 500.138 17.856 500.246 17.92C500.358 17.984 500.492 18.044 500.648 18.1C500.804 18.152 500.998 18.178 501.23 18.178C501.422 18.178 501.588 18.156 501.728 18.112C501.868 18.064 501.984 18 502.076 17.92C502.168 17.84 502.236 17.75 502.28 17.65C502.324 17.546 502.346 17.436 502.346 17.32C502.346 17.164 502.302 17.036 502.214 16.936C502.126 16.836 502.008 16.75 501.86 16.678C501.716 16.606 501.55 16.542 501.362 16.486C501.178 16.43 500.99 16.37 500.798 16.306C500.606 16.242 500.416 16.168 500.228 16.084C500.044 16 499.878 15.894 499.73 15.766C499.586 15.634 499.47 15.476 499.382 15.292C499.294 15.104 499.25 14.876 499.25 14.608C499.25 14.364 499.298 14.132 499.394 13.912C499.494 13.692 499.638 13.498 499.826 13.33C500.018 13.162 500.252 13.03 500.528 12.934C500.808 12.834 501.13 12.784 501.494 12.784C501.906 12.784 502.28 12.85 502.616 12.982C502.952 13.114 503.234 13.294 503.462 13.522L503.174 13.99ZM517.179 10.36V19H515.943V13.078C515.943 12.982 515.945 12.878 515.949 12.766C515.957 12.65 515.967 12.534 515.979 12.418L513.201 17.548C513.093 17.76 512.927 17.866 512.703 17.866H512.505C512.277 17.866 512.111 17.76 512.007 17.548L509.187 12.406C509.199 12.522 509.207 12.638 509.211 12.754C509.219 12.87 509.223 12.978 509.223 13.078V19H507.987V10.36H509.037C509.161 10.36 509.257 10.372 509.325 10.396C509.393 10.416 509.455 10.482 509.511 10.594L512.283 15.616C512.343 15.732 512.399 15.852 512.451 15.976C512.507 16.096 512.557 16.22 512.601 16.348C512.649 16.22 512.699 16.094 512.751 15.97C512.807 15.842 512.865 15.72 512.925 15.604L515.655 10.594C515.711 10.482 515.773 10.416 515.841 10.396C515.909 10.372 516.005 10.36 516.129 10.36H517.179ZM521.444 12.784C521.896 12.784 522.304 12.858 522.668 13.006C523.036 13.154 523.348 13.364 523.604 13.636C523.864 13.908 524.064 14.238 524.204 14.626C524.344 15.014 524.414 15.45 524.414 15.934C524.414 16.418 524.344 16.854 524.204 17.242C524.064 17.63 523.864 17.962 523.604 18.238C523.348 18.51 523.036 18.72 522.668 18.868C522.304 19.016 521.896 19.09 521.444 19.09C520.988 19.09 520.576 19.016 520.208 18.868C519.844 18.72 519.532 18.51 519.272 18.238C519.012 17.962 518.812 17.63 518.672 17.242C518.532 16.854 518.462 16.418 518.462 15.934C518.462 15.45 518.532 15.014 518.672 14.626C518.812 14.238 519.012 13.908 519.272 13.636C519.532 13.364 519.844 13.154 520.208 13.006C520.576 12.858 520.988 12.784 521.444 12.784ZM521.444 18.082C521.996 18.082 522.406 17.898 522.674 17.53C522.946 17.158 523.082 16.628 523.082 15.94C523.082 15.252 522.946 14.722 522.674 14.35C522.406 13.974 521.996 13.786 521.444 13.786C520.884 13.786 520.468 13.974 520.196 14.35C519.924 14.722 519.788 15.252 519.788 15.94C519.788 16.628 519.924 17.158 520.196 17.53C520.468 17.898 520.884 18.082 521.444 18.082ZM526.859 13.69C526.991 13.554 527.127 13.432 527.267 13.324C527.411 13.212 527.563 13.116 527.723 13.036C527.883 12.956 528.053 12.894 528.233 12.85C528.413 12.806 528.609 12.784 528.821 12.784C529.157 12.784 529.451 12.84 529.703 12.952C529.959 13.064 530.173 13.222 530.345 13.426C530.521 13.63 530.653 13.876 530.741 14.164C530.829 14.448 530.873 14.762 530.873 15.106V19H529.589V15.106C529.589 14.694 529.493 14.374 529.301 14.146C529.113 13.918 528.825 13.804 528.437 13.804C528.149 13.804 527.881 13.87 527.633 14.002C527.389 14.134 527.159 14.314 526.943 14.542V19H525.653V12.88H526.433C526.609 12.88 526.721 12.962 526.769 13.126L526.859 13.69ZM534.26 19.096C533.752 19.096 533.36 18.954 533.084 18.67C532.812 18.382 532.676 17.978 532.676 17.458V13.894H532.004C531.932 13.894 531.87 13.872 531.818 13.828C531.766 13.78 531.74 13.71 531.74 13.618V13.096L532.73 12.952L533.012 11.182C533.032 11.114 533.066 11.06 533.114 11.02C533.162 10.976 533.226 10.954 533.306 10.954H533.966V12.964H535.664V13.894H533.966V17.368C533.966 17.588 534.02 17.756 534.128 17.872C534.236 17.988 534.38 18.046 534.56 18.046C534.66 18.046 534.746 18.034 534.818 18.01C534.89 17.982 534.952 17.954 535.004 17.926C535.056 17.894 535.1 17.866 535.136 17.842C535.176 17.814 535.214 17.8 535.25 17.8C535.322 17.8 535.38 17.84 535.424 17.92L535.808 18.55C535.608 18.726 535.372 18.862 535.1 18.958C534.828 19.05 534.548 19.096 534.26 19.096ZM537.971 13.606C538.223 13.358 538.499 13.16 538.799 13.012C539.099 12.86 539.449 12.784 539.849 12.784C540.185 12.784 540.479 12.84 540.731 12.952C540.987 13.064 541.201 13.222 541.373 13.426C541.549 13.63 541.681 13.876 541.769 14.164C541.857 14.448 541.901 14.762 541.901 15.106V19H540.617V15.106C540.617 14.694 540.521 14.374 540.329 14.146C540.141 13.918 539.853 13.804 539.465 13.804C539.177 13.804 538.909 13.87 538.661 14.002C538.417 14.134 538.187 14.314 537.971 14.542V19H536.681V10.12H537.971V13.606Z" fill="#1A1A1A"/>
<circle cx="337" cy="15" r="7" fill="#D568EE"/>
<circle cx="465.5" cy="15.5" r="7.5" fill="#B5B5B5"/>
<defs>
<filter id="filter0_f_948_136" x="45.6428" y="88.8091" width="517.711" height="173.93" filterUnits="userSpaceOnUse" color-interpolation-filters="sRGB">
<feFlood flood-opacity="0" result="BackgroundImageFix"/>
<feBlend mode="normal" in="SourceGraphic" in2="BackgroundImageFix" result="shape"/>
<feGaussianBlur stdDeviation="7" result="effect1_foregroundBlur_948_136"/>
</filter>
</defs>
</svg>
