<svg width="630" height="410" viewBox="0 0 630 410" fill="none" xmlns="http://www.w3.org/2000/svg">
<rect width="630" height="410" rx="20" fill="#F8F8F8"/>
<rect x="0.5" y="0.5" width="629" height="409" rx="19.5" stroke="url(#paint0_linear_948_150)" stroke-opacity="0.2"/>
<rect x="0.5" y="0.5" width="629" height="409" rx="19.5" stroke="black" stroke-opacity="0.2"/>
<path d="M26.19 33.94C26.71 33.94 27.1667 33.8733 27.56 33.74C27.96 33.6067 28.29 33.42 28.55 33.18C28.8167 32.9333 29.0167 32.6367 29.15 32.29C29.2833 31.9433 29.35 31.5567 29.35 31.13C29.35 30.71 29.2833 30.3333 29.15 30C29.0233 29.6667 28.83 29.3833 28.57 29.15C28.31 28.9167 27.98 28.74 27.58 28.62C27.1867 28.4933 26.7233 28.43 26.19 28.43H24.05V33.94H26.19ZM26.19 26.6C27.13 26.6 27.9433 26.71 28.63 26.93C29.3233 27.15 29.8933 27.46 30.34 27.86C30.7933 28.2533 31.13 28.73 31.35 29.29C31.57 29.8433 31.68 30.4567 31.68 31.13C31.68 31.8167 31.5633 32.4467 31.33 33.02C31.0967 33.5867 30.75 34.0767 30.29 34.49C29.83 34.8967 29.2567 35.2167 28.57 35.45C27.89 35.6767 27.0967 35.79 26.19 35.79H24.05V41H21.71V26.6H26.19ZM35.3713 32.69C35.6913 32.0433 36.0779 31.5367 36.5313 31.17C36.9846 30.7967 37.5279 30.61 38.1613 30.61C38.3813 30.61 38.5879 30.6367 38.7813 30.69C38.9746 30.7367 39.1479 30.81 39.3013 30.91L39.1513 32.53C39.1246 32.6433 39.0813 32.7233 39.0213 32.77C38.9679 32.81 38.8946 32.83 38.8013 32.83C38.7013 32.83 38.5579 32.8133 38.3713 32.78C38.1846 32.74 37.9879 32.72 37.7813 32.72C37.4813 32.72 37.2146 32.7633 36.9813 32.85C36.7546 32.9367 36.5479 33.0633 36.3613 33.23C36.1813 33.3967 36.0213 33.6 35.8813 33.84C35.7413 34.08 35.6113 34.3533 35.4913 34.66V41H33.3413V30.8H34.5913C34.8179 30.8 34.9746 30.8433 35.0613 30.93C35.1479 31.01 35.2079 31.1533 35.2413 31.36L35.3713 32.69ZM44.7825 30.64C45.5358 30.64 46.2158 30.7633 46.8225 31.01C47.4358 31.2567 47.9558 31.6067 48.3825 32.06C48.8158 32.5133 49.1492 33.0633 49.3825 33.71C49.6158 34.3567 49.7325 35.0833 49.7325 35.89C49.7325 36.6967 49.6158 37.4233 49.3825 38.07C49.1492 38.7167 48.8158 39.27 48.3825 39.73C47.9558 40.1833 47.4358 40.5333 46.8225 40.78C46.2158 41.0267 45.5358 41.15 44.7825 41.15C44.0225 41.15 43.3358 41.0267 42.7225 40.78C42.1158 40.5333 41.5958 40.1833 41.1625 39.73C40.7292 39.27 40.3958 38.7167 40.1625 38.07C39.9292 37.4233 39.8125 36.6967 39.8125 35.89C39.8125 35.0833 39.9292 34.3567 40.1625 33.71C40.3958 33.0633 40.7292 32.5133 41.1625 32.06C41.5958 31.6067 42.1158 31.2567 42.7225 31.01C43.3358 30.7633 44.0225 30.64 44.7825 30.64ZM44.7825 39.47C45.7025 39.47 46.3858 39.1633 46.8325 38.55C47.2858 37.93 47.5125 37.0467 47.5125 35.9C47.5125 34.7533 47.2858 33.87 46.8325 33.25C46.3858 32.6233 45.7025 32.31 44.7825 32.31C43.8492 32.31 43.1558 32.6233 42.7025 33.25C42.2492 33.87 42.0225 34.7533 42.0225 35.9C42.0225 37.0467 42.2492 37.93 42.7025 38.55C43.1558 39.1633 43.8492 39.47 44.7825 39.47ZM52.2639 41V32.51L51.2639 32.37C51.0972 32.3367 50.9606 32.2767 50.8539 32.19C50.7539 32.1033 50.7039 31.98 50.7039 31.82V30.94H52.2639V30.51C52.2639 29.8833 52.3639 29.3067 52.5639 28.78C52.7639 28.2533 53.0672 27.7967 53.4739 27.41C53.8806 27.0233 54.3872 26.7233 54.9939 26.51C55.6072 26.29 56.3239 26.18 57.1439 26.18C57.4106 26.18 57.6839 26.1967 57.9639 26.23C58.2506 26.2633 58.4939 26.3133 58.6939 26.38L58.6239 27.5C58.6106 27.64 58.5272 27.72 58.3739 27.74C58.2206 27.7533 58.0172 27.76 57.7639 27.76C57.1439 27.76 56.6172 27.82 56.1839 27.94C55.7506 28.0533 55.3972 28.23 55.1239 28.47C54.8506 28.7033 54.6506 28.9967 54.5239 29.35C54.4039 29.6967 54.3439 30.1033 54.3439 30.57V30.94H60.5939V41H58.4439V32.49H54.4139V41H52.2639ZM65.5117 26.2V41H63.3617V26.2H65.5117ZM74.8555 34.75C74.8555 34.39 74.8021 34.0567 74.6955 33.75C74.5955 33.4367 74.4455 33.1667 74.2455 32.94C74.0455 32.7067 73.7955 32.5267 73.4955 32.4C73.2021 32.2667 72.8621 32.2 72.4755 32.2C71.6955 32.2 71.0821 32.4233 70.6355 32.87C70.1888 33.3167 69.9055 33.9433 69.7855 34.75H74.8555ZM69.7255 36.07C69.7521 36.65 69.8421 37.1533 69.9955 37.58C70.1488 38 70.3521 38.35 70.6055 38.63C70.8655 38.91 71.1721 39.12 71.5255 39.26C71.8855 39.3933 72.2855 39.46 72.7255 39.46C73.1455 39.46 73.5088 39.4133 73.8155 39.32C74.1221 39.22 74.3888 39.1133 74.6155 39C74.8421 38.88 75.0355 38.7733 75.1955 38.68C75.3555 38.58 75.5021 38.53 75.6355 38.53C75.8088 38.53 75.9421 38.5967 76.0355 38.73L76.6455 39.52C76.3921 39.82 76.1055 40.0733 75.7855 40.28C75.4655 40.4867 75.1255 40.6567 74.7655 40.79C74.4055 40.9167 74.0355 41.0067 73.6555 41.06C73.2755 41.12 72.9055 41.15 72.5455 41.15C71.8388 41.15 71.1821 41.0333 70.5755 40.8C69.9755 40.56 69.4521 40.21 69.0055 39.75C68.5655 39.29 68.2188 38.72 67.9655 38.04C67.7188 37.36 67.5955 36.5767 67.5955 35.69C67.5955 34.9833 67.7055 34.3233 67.9255 33.71C68.1521 33.0967 68.4721 32.5633 68.8855 32.11C69.3055 31.6567 69.8121 31.3 70.4055 31.04C71.0055 30.7733 71.6821 30.64 72.4355 30.64C73.0621 30.64 73.6421 30.7433 74.1755 30.95C74.7088 31.15 75.1688 31.4467 75.5555 31.84C75.9421 32.2333 76.2421 32.7167 76.4555 33.29C76.6755 33.8567 76.7855 34.5033 76.7855 35.23C76.7855 35.5633 76.7488 35.7867 76.6755 35.9C76.6021 36.0133 76.4688 36.07 76.2755 36.07H69.7255ZM95.4788 26.6L89.6388 41H87.5288L81.6887 26.6H83.5588C83.7654 26.6 83.9321 26.6533 84.0588 26.76C84.1854 26.86 84.2821 26.9867 84.3488 27.14L88.0588 36.53C88.2588 37.0567 88.4421 37.6633 88.6088 38.35C88.6821 38.01 88.7588 37.6867 88.8388 37.38C88.9254 37.0733 89.0188 36.79 89.1188 36.53L92.8188 27.14C92.8721 27.0067 92.9654 26.8833 93.0988 26.77C93.2321 26.6567 93.3988 26.6 93.5988 26.6H95.4788ZM98.9992 30.8V41H96.8492V30.8H98.9992ZM99.3592 27.72C99.3592 27.9133 99.3192 28.0967 99.2392 28.27C99.1659 28.4433 99.0626 28.5967 98.9292 28.73C98.7959 28.8567 98.6392 28.96 98.4592 29.04C98.2859 29.1133 98.0992 29.15 97.8992 29.15C97.7059 29.15 97.5226 29.1133 97.3492 29.04C97.1826 28.96 97.0359 28.8567 96.9092 28.73C96.7826 28.5967 96.6792 28.4433 96.5992 28.27C96.5259 28.0967 96.4892 27.9133 96.4892 27.72C96.4892 27.52 96.5259 27.3333 96.5992 27.16C96.6792 26.9867 96.7826 26.8367 96.9092 26.71C97.0359 26.5767 97.1826 26.4733 97.3492 26.4C97.5226 26.32 97.7059 26.28 97.8992 26.28C98.0992 26.28 98.2859 26.32 98.4592 26.4C98.6392 26.4733 98.7959 26.5767 98.9292 26.71C99.0626 26.8367 99.1659 26.9867 99.2392 27.16C99.3192 27.3333 99.3592 27.52 99.3592 27.72ZM108.391 34.75C108.391 34.39 108.337 34.0567 108.231 33.75C108.131 33.4367 107.981 33.1667 107.781 32.94C107.581 32.7067 107.331 32.5267 107.031 32.4C106.737 32.2667 106.397 32.2 106.011 32.2C105.231 32.2 104.617 32.4233 104.171 32.87C103.724 33.3167 103.441 33.9433 103.321 34.75H108.391ZM103.261 36.07C103.287 36.65 103.377 37.1533 103.531 37.58C103.684 38 103.887 38.35 104.141 38.63C104.401 38.91 104.707 39.12 105.061 39.26C105.421 39.3933 105.821 39.46 106.261 39.46C106.681 39.46 107.044 39.4133 107.351 39.32C107.657 39.22 107.924 39.1133 108.151 39C108.377 38.88 108.571 38.7733 108.731 38.68C108.891 38.58 109.037 38.53 109.171 38.53C109.344 38.53 109.477 38.5967 109.571 38.73L110.181 39.52C109.927 39.82 109.641 40.0733 109.321 40.28C109.001 40.4867 108.661 40.6567 108.301 40.79C107.941 40.9167 107.571 41.0067 107.191 41.06C106.811 41.12 106.441 41.15 106.081 41.15C105.374 41.15 104.717 41.0333 104.111 40.8C103.511 40.56 102.987 40.21 102.541 39.75C102.101 39.29 101.754 38.72 101.501 38.04C101.254 37.36 101.131 36.5767 101.131 35.69C101.131 34.9833 101.241 34.3233 101.461 33.71C101.687 33.0967 102.007 32.5633 102.421 32.11C102.841 31.6567 103.347 31.3 103.941 31.04C104.541 30.7733 105.217 30.64 105.971 30.64C106.597 30.64 107.177 30.7433 107.711 30.95C108.244 31.15 108.704 31.4467 109.091 31.84C109.477 32.2333 109.777 32.7167 109.991 33.29C110.211 33.8567 110.321 34.5033 110.321 35.23C110.321 35.5633 110.284 35.7867 110.211 35.9C110.137 36.0133 110.004 36.07 109.811 36.07H103.261ZM126.538 30.8L123.268 41H121.558C121.358 41 121.218 40.87 121.138 40.61L119.108 34.26C119.055 34.08 119.005 33.9 118.958 33.72C118.918 33.54 118.882 33.3633 118.848 33.19C118.775 33.55 118.685 33.91 118.578 34.27L116.518 40.61C116.445 40.87 116.288 41 116.048 41H114.418L111.148 30.8H112.848C113.015 30.8 113.152 30.8433 113.258 30.93C113.372 31.01 113.445 31.1067 113.478 31.22L115.178 37.16C115.245 37.4333 115.302 37.7 115.348 37.96C115.402 38.2133 115.448 38.4667 115.488 38.72C115.555 38.4667 115.625 38.2133 115.698 37.96C115.772 37.7 115.848 37.4333 115.928 37.16L117.838 31.19C117.872 31.07 117.938 30.9733 118.038 30.9C118.145 30.82 118.272 30.78 118.418 30.78H119.358C119.512 30.78 119.642 30.82 119.748 30.9C119.855 30.9733 119.925 31.07 119.958 31.19L121.818 37.16C121.898 37.4333 121.972 37.7 122.038 37.96C122.112 38.22 122.178 38.48 122.238 38.74C122.285 38.4867 122.335 38.23 122.388 37.97C122.442 37.71 122.505 37.44 122.578 37.16L124.308 31.22C124.348 31.1 124.422 31 124.528 30.92C124.635 30.84 124.765 30.8 124.918 30.8H126.538ZM134.099 32.65C134.046 32.7433 133.986 32.81 133.919 32.85C133.853 32.89 133.769 32.91 133.669 32.91C133.556 32.91 133.433 32.8767 133.299 32.81C133.166 32.7367 133.009 32.6567 132.829 32.57C132.649 32.4833 132.436 32.4067 132.189 32.34C131.949 32.2667 131.666 32.23 131.339 32.23C131.073 32.23 130.829 32.2633 130.609 32.33C130.396 32.39 130.213 32.48 130.059 32.6C129.913 32.7133 129.799 32.85 129.719 33.01C129.639 33.1633 129.599 33.33 129.599 33.51C129.599 33.75 129.673 33.95 129.819 34.11C129.966 34.27 130.159 34.41 130.399 34.53C130.639 34.6433 130.913 34.7467 131.219 34.84C131.526 34.9333 131.839 35.0333 132.159 35.14C132.479 35.2467 132.793 35.37 133.099 35.51C133.406 35.65 133.679 35.8233 133.919 36.03C134.159 36.23 134.353 36.4767 134.499 36.77C134.646 37.0567 134.719 37.4067 134.719 37.82C134.719 38.3 134.633 38.7433 134.459 39.15C134.286 39.5567 134.033 39.91 133.699 40.21C133.366 40.51 132.949 40.7433 132.449 40.91C131.956 41.0767 131.389 41.16 130.749 41.16C130.396 41.16 130.053 41.1267 129.719 41.06C129.393 41 129.079 40.9167 128.779 40.81C128.486 40.6967 128.209 40.5633 127.949 40.41C127.696 40.2567 127.469 40.09 127.269 39.91L127.769 39.09C127.829 38.99 127.903 38.9133 127.989 38.86C128.083 38.8 128.196 38.77 128.329 38.77C128.469 38.77 128.606 38.8167 128.739 38.91C128.879 38.9967 129.039 39.0933 129.219 39.2C129.406 39.3067 129.629 39.4067 129.889 39.5C130.149 39.5867 130.473 39.63 130.859 39.63C131.179 39.63 131.456 39.5933 131.689 39.52C131.923 39.44 132.116 39.3333 132.269 39.2C132.423 39.0667 132.536 38.9167 132.609 38.75C132.683 38.5767 132.719 38.3933 132.719 38.2C132.719 37.94 132.646 37.7267 132.499 37.56C132.353 37.3933 132.156 37.25 131.909 37.13C131.669 37.01 131.393 36.9033 131.079 36.81C130.773 36.7167 130.459 36.6167 130.139 36.51C129.819 36.4033 129.503 36.28 129.189 36.14C128.883 36 128.606 35.8233 128.359 35.61C128.119 35.39 127.926 35.1267 127.779 34.82C127.633 34.5067 127.559 34.1267 127.559 33.68C127.559 33.2733 127.639 32.8867 127.799 32.52C127.966 32.1533 128.206 31.83 128.519 31.55C128.839 31.27 129.229 31.05 129.689 30.89C130.156 30.7233 130.693 30.64 131.299 30.64C131.986 30.64 132.609 30.75 133.169 30.97C133.729 31.19 134.199 31.49 134.579 31.87L134.099 32.65Z" fill="black"/>
<path d="M25.78 113.68C26.26 113.68 26.6933 113.603 27.08 113.45C27.4733 113.297 27.8067 113.083 28.08 112.81C28.36 112.537 28.5733 112.213 28.72 111.84C28.8733 111.467 28.95 111.06 28.95 110.62C28.95 110.153 28.8767 109.733 28.73 109.36C28.5833 108.98 28.3733 108.66 28.1 108.4C27.8333 108.133 27.5133 107.93 27.14 107.79C26.7667 107.65 26.3567 107.58 25.91 107.58C25.43 107.58 24.9967 107.663 24.61 107.83C24.2233 107.99 23.8933 108.21 23.62 108.49C23.3533 108.763 23.1467 109.083 23 109.45C22.86 109.81 22.79 110.187 22.79 110.58C22.79 111.04 22.8567 111.46 22.99 111.84C23.1233 112.22 23.3167 112.547 23.57 112.82C23.83 113.093 24.1433 113.307 24.51 113.46C24.8833 113.607 25.3067 113.68 25.78 113.68ZM24.74 106.04C24.6133 106.2 24.49 106.357 24.37 106.51C24.2567 106.657 24.1467 106.803 24.04 106.95C24.38 106.717 24.7533 106.537 25.16 106.41C25.5667 106.283 26.01 106.22 26.49 106.22C27.07 106.22 27.6167 106.317 28.13 106.51C28.6433 106.697 29.09 106.973 29.47 107.34C29.8567 107.7 30.1633 108.147 30.39 108.68C30.6167 109.207 30.73 109.81 30.73 110.49C30.73 111.15 30.61 111.763 30.37 112.33C30.13 112.897 29.7933 113.39 29.36 113.81C28.9333 114.23 28.4167 114.56 27.81 114.8C27.21 115.04 26.5467 115.16 25.82 115.16C25.1 115.16 24.4467 115.047 23.86 114.82C23.2733 114.587 22.7733 114.26 22.36 113.84C21.9533 113.413 21.6367 112.9 21.41 112.3C21.19 111.693 21.08 111.017 21.08 110.27C21.08 109.643 21.2167 108.977 21.49 108.27C21.77 107.557 22.2133 106.797 22.82 105.99L26.46 101.1C26.5533 100.98 26.68 100.88 26.84 100.8C27.0067 100.713 27.1967 100.67 27.41 100.67H28.99L24.74 106.04ZM34.8016 106.22C35.2349 105.76 35.7149 105.393 36.2416 105.12C36.7682 104.847 37.3749 104.71 38.0616 104.71C38.6149 104.71 39.1016 104.803 39.5216 104.99C39.9482 105.17 40.3016 105.43 40.5816 105.77C40.8682 106.103 41.0849 106.507 41.2316 106.98C41.3782 107.453 41.4516 107.977 41.4516 108.55V115H39.6616V108.55C39.6616 107.783 39.4849 107.19 39.1316 106.77C38.7849 106.343 38.2549 106.13 37.5416 106.13C37.0149 106.13 36.5216 106.257 36.0616 106.51C35.6082 106.763 35.1882 107.107 34.8016 107.54V115H33.0116V100.27H34.8016V106.22Z" fill="black"/>
<path d="M27.3 179.83V173.92C27.3 173.747 27.3067 173.557 27.32 173.35C27.3333 173.143 27.3533 172.933 27.38 172.72L22.16 179.83H27.3ZM31.03 179.83V180.85C31.03 180.957 30.9967 181.047 30.93 181.12C30.87 181.193 30.7733 181.23 30.64 181.23H28.86V185H27.3V181.23H20.94C20.8067 181.23 20.69 181.193 20.59 181.12C20.4967 181.04 20.4367 180.943 20.41 180.83L20.23 179.92L27.2 170.67H28.86V179.83H31.03ZM34.8016 176.22C35.2349 175.76 35.7149 175.393 36.2416 175.12C36.7682 174.847 37.3749 174.71 38.0616 174.71C38.6149 174.71 39.1016 174.803 39.5216 174.99C39.9482 175.17 40.3016 175.43 40.5816 175.77C40.8682 176.103 41.0849 176.507 41.2316 176.98C41.3782 177.453 41.4516 177.977 41.4516 178.55V185H39.6616V178.55C39.6616 177.783 39.4849 177.19 39.1316 176.77C38.7849 176.343 38.2549 176.13 37.5416 176.13C37.0149 176.13 36.5216 176.257 36.0616 176.51C35.6082 176.763 35.1882 177.107 34.8016 177.54V185H33.0116V170.27H34.8016V176.22Z" fill="black"/>
<path d="M29.87 253.31C30.0633 253.31 30.2167 253.367 30.33 253.48C30.4433 253.593 30.5 253.74 30.5 253.92V255H20.94V254.39C20.94 254.263 20.9667 254.133 21.02 254C21.0733 253.867 21.1567 253.743 21.27 253.63L25.86 249.02C26.24 248.633 26.5867 248.263 26.9 247.91C27.2133 247.55 27.48 247.19 27.7 246.83C27.92 246.47 28.09 246.107 28.21 245.74C28.33 245.367 28.39 244.97 28.39 244.55C28.39 244.13 28.3233 243.763 28.19 243.45C28.0567 243.13 27.8733 242.867 27.64 242.66C27.4133 242.453 27.1433 242.3 26.83 242.2C26.5167 242.093 26.18 242.04 25.82 242.04C25.4533 242.04 25.1167 242.093 24.81 242.2C24.5033 242.307 24.23 242.457 23.99 242.65C23.7567 242.837 23.56 243.06 23.4 243.32C23.24 243.58 23.1267 243.867 23.06 244.18C22.98 244.413 22.87 244.57 22.73 244.65C22.5967 244.723 22.4067 244.743 22.16 244.71L21.23 244.55C21.3233 243.897 21.5033 243.32 21.77 242.82C22.0433 242.313 22.3833 241.89 22.79 241.55C23.2033 241.21 23.6733 240.953 24.2 240.78C24.7267 240.6 25.2967 240.51 25.91 240.51C26.5167 240.51 27.0833 240.6 27.61 240.78C28.1367 240.96 28.5933 241.223 28.98 241.57C29.3667 241.91 29.67 242.327 29.89 242.82C30.11 243.313 30.22 243.873 30.22 244.5C30.22 245.033 30.14 245.53 29.98 245.99C29.82 246.443 29.6033 246.877 29.33 247.29C29.0567 247.703 28.74 248.107 28.38 248.5C28.0267 248.893 27.65 249.29 27.25 249.69L23.47 253.55C23.7367 253.477 24.0067 253.42 24.28 253.38C24.5533 253.333 24.8167 253.31 25.07 253.31H29.87ZM34.8016 246.22C35.2349 245.76 35.7149 245.393 36.2416 245.12C36.7682 244.847 37.3749 244.71 38.0616 244.71C38.6149 244.71 39.1016 244.803 39.5216 244.99C39.9482 245.17 40.3016 245.43 40.5816 245.77C40.8682 246.103 41.0849 246.507 41.2316 246.98C41.3782 247.453 41.4516 247.977 41.4516 248.55V255H39.6616V248.55C39.6616 247.783 39.4849 247.19 39.1316 246.77C38.7849 246.343 38.2549 246.13 37.5416 246.13C37.0149 246.13 36.5216 246.257 36.0616 246.51C35.6082 246.763 35.1882 247.107 34.8016 247.54V255H33.0116V240.27H34.8016V246.22Z" fill="black"/>
<path d="M31 317.84C31 319.093 30.8633 320.18 30.59 321.1C30.3233 322.013 29.9567 322.77 29.49 323.37C29.0233 323.97 28.47 324.417 27.83 324.71C27.1967 325.003 26.5167 325.15 25.79 325.15C25.0567 325.15 24.3733 325.003 23.74 324.71C23.1133 324.417 22.5667 323.97 22.1 323.37C21.6333 322.77 21.2667 322.013 21 321.1C20.7333 320.18 20.6 319.093 20.6 317.84C20.6 316.587 20.7333 315.5 21 314.58C21.2667 313.66 21.6333 312.9 22.1 312.3C22.5667 311.693 23.1133 311.243 23.74 310.95C24.3733 310.657 25.0567 310.51 25.79 310.51C26.5167 310.51 27.1967 310.657 27.83 310.95C28.47 311.243 29.0233 311.693 29.49 312.3C29.9567 312.9 30.3233 313.66 30.59 314.58C30.8633 315.5 31 316.587 31 317.84ZM29.15 317.84C29.15 316.747 29.0567 315.83 28.87 315.09C28.69 314.343 28.4433 313.743 28.13 313.29C27.8233 312.837 27.4667 312.513 27.06 312.32C26.6533 312.12 26.23 312.02 25.79 312.02C25.35 312.02 24.9267 312.12 24.52 312.32C24.1133 312.513 23.7567 312.837 23.45 313.29C23.1433 313.743 22.8967 314.343 22.71 315.09C22.53 315.83 22.44 316.747 22.44 317.84C22.44 318.933 22.53 319.85 22.71 320.59C22.8967 321.33 23.1433 321.927 23.45 322.38C23.7567 322.833 24.1133 323.16 24.52 323.36C24.9267 323.553 25.35 323.65 25.79 323.65C26.23 323.65 26.6533 323.553 27.06 323.36C27.4667 323.16 27.8233 322.833 28.13 322.38C28.4433 321.927 28.69 321.33 28.87 320.59C29.0567 319.85 29.15 318.933 29.15 317.84ZM34.8016 316.22C35.2349 315.76 35.7149 315.393 36.2416 315.12C36.7682 314.847 37.3749 314.71 38.0616 314.71C38.6149 314.71 39.1016 314.803 39.5216 314.99C39.9482 315.17 40.3016 315.43 40.5816 315.77C40.8682 316.103 41.0849 316.507 41.2316 316.98C41.3782 317.453 41.4516 317.977 41.4516 318.55V325H39.6616V318.55C39.6616 317.783 39.4849 317.19 39.1316 316.77C38.7849 316.343 38.2549 316.13 37.5416 316.13C37.0149 316.13 36.5216 316.257 36.0616 316.51C35.6082 316.763 35.1882 317.107 34.8016 317.54V325H33.0116V310.27H34.8016V316.22Z" fill="black"/>
<rect x="71" y="212" width="41" height="115" rx="9" fill="#FFCC91" fill-opacity="0.2" stroke="#EEEEEE" stroke-width="2"/>
<path d="M88.03 343.6V358H85.97V348.13C85.97 347.97 85.9733 347.797 85.98 347.61C85.9933 347.417 86.01 347.223 86.03 347.03L81.4 355.58C81.22 355.933 80.9433 356.11 80.57 356.11H80.24C79.86 356.11 79.5833 355.933 79.41 355.58L74.71 347.01C74.73 347.203 74.7433 347.397 74.75 347.59C74.7633 347.783 74.77 347.963 74.77 348.13V358H72.71V343.6H74.46C74.6667 343.6 74.8267 343.62 74.94 343.66C75.0533 343.693 75.1567 343.803 75.25 343.99L79.87 352.36C79.97 352.553 80.0633 352.753 80.15 352.96C80.2433 353.16 80.3267 353.367 80.4 353.58C80.48 353.367 80.5633 353.157 80.65 352.95C80.7433 352.737 80.84 352.533 80.94 352.34L85.49 343.99C85.5833 343.803 85.6867 343.693 85.8 343.66C85.9133 343.62 86.0733 343.6 86.28 343.6H88.03ZM95.138 347.64C95.8913 347.64 96.5713 347.763 97.178 348.01C97.7913 348.257 98.3113 348.607 98.738 349.06C99.1713 349.513 99.5046 350.063 99.738 350.71C99.9713 351.357 100.088 352.083 100.088 352.89C100.088 353.697 99.9713 354.423 99.738 355.07C99.5046 355.717 99.1713 356.27 98.738 356.73C98.3113 357.183 97.7913 357.533 97.178 357.78C96.5713 358.027 95.8913 358.15 95.138 358.15C94.378 358.15 93.6913 358.027 93.078 357.78C92.4713 357.533 91.9513 357.183 91.518 356.73C91.0846 356.27 90.7513 355.717 90.518 355.07C90.2846 354.423 90.168 353.697 90.168 352.89C90.168 352.083 90.2846 351.357 90.518 350.71C90.7513 350.063 91.0846 349.513 91.518 349.06C91.9513 348.607 92.4713 348.257 93.078 348.01C93.6913 347.763 94.378 347.64 95.138 347.64ZM95.138 356.47C96.058 356.47 96.7413 356.163 97.188 355.55C97.6413 354.93 97.868 354.047 97.868 352.9C97.868 351.753 97.6413 350.87 97.188 350.25C96.7413 349.623 96.058 349.31 95.138 349.31C94.2046 349.31 93.5113 349.623 93.058 350.25C92.6046 350.87 92.378 351.753 92.378 352.9C92.378 354.047 92.6046 354.93 93.058 355.55C93.5113 356.163 94.2046 356.47 95.138 356.47ZM104.164 349.15C104.384 348.923 104.61 348.72 104.844 348.54C105.084 348.353 105.337 348.193 105.604 348.06C105.87 347.927 106.154 347.823 106.454 347.75C106.754 347.677 107.08 347.64 107.434 347.64C107.994 347.64 108.484 347.733 108.904 347.92C109.33 348.107 109.687 348.37 109.974 348.71C110.267 349.05 110.487 349.46 110.634 349.94C110.78 350.413 110.854 350.937 110.854 351.51V358H108.714V351.51C108.714 350.823 108.554 350.29 108.234 349.91C107.92 349.53 107.44 349.34 106.794 349.34C106.314 349.34 105.867 349.45 105.454 349.67C105.047 349.89 104.664 350.19 104.304 350.57V358H102.154V347.8H103.454C103.747 347.8 103.934 347.937 104.014 348.21L104.164 349.15Z" fill="black"/>
<rect x="149" y="151" width="41" height="176" rx="9" fill="#FFCC91" fill-opacity="0.2" stroke="#EEEEEE" stroke-width="2"/>
<path d="M164.62 345.55H160.13V358H157.8V345.55H153.3V343.6H164.62V345.55ZM172.851 347.8V358H171.551C171.265 358 171.081 357.863 171.001 357.59L170.841 356.64C170.628 356.867 170.401 357.073 170.161 357.26C169.928 357.447 169.678 357.607 169.411 357.74C169.145 357.873 168.858 357.977 168.551 358.05C168.251 358.123 167.928 358.16 167.581 358.16C167.021 358.16 166.528 358.067 166.101 357.88C165.675 357.693 165.315 357.43 165.021 357.09C164.735 356.75 164.518 356.343 164.371 355.87C164.225 355.39 164.151 354.863 164.151 354.29V347.8H166.301V354.29C166.301 354.977 166.458 355.51 166.771 355.89C167.091 356.27 167.575 356.46 168.221 356.46C168.695 356.46 169.135 356.353 169.541 356.14C169.955 355.92 170.341 355.62 170.701 355.24V347.8H172.851ZM182.152 351.75C182.152 351.39 182.099 351.057 181.992 350.75C181.892 350.437 181.742 350.167 181.542 349.94C181.342 349.707 181.092 349.527 180.792 349.4C180.499 349.267 180.159 349.2 179.772 349.2C178.992 349.2 178.379 349.423 177.932 349.87C177.486 350.317 177.202 350.943 177.082 351.75H182.152ZM177.022 353.07C177.049 353.65 177.139 354.153 177.292 354.58C177.446 355 177.649 355.35 177.902 355.63C178.162 355.91 178.469 356.12 178.822 356.26C179.182 356.393 179.582 356.46 180.022 356.46C180.442 356.46 180.806 356.413 181.112 356.32C181.419 356.22 181.686 356.113 181.912 356C182.139 355.88 182.332 355.773 182.492 355.68C182.652 355.58 182.799 355.53 182.932 355.53C183.106 355.53 183.239 355.597 183.332 355.73L183.942 356.52C183.689 356.82 183.402 357.073 183.082 357.28C182.762 357.487 182.422 357.657 182.062 357.79C181.702 357.917 181.332 358.007 180.952 358.06C180.572 358.12 180.202 358.15 179.842 358.15C179.136 358.15 178.479 358.033 177.872 357.8C177.272 357.56 176.749 357.21 176.302 356.75C175.862 356.29 175.516 355.72 175.262 355.04C175.016 354.36 174.892 353.577 174.892 352.69C174.892 351.983 175.002 351.323 175.222 350.71C175.449 350.097 175.769 349.563 176.182 349.11C176.602 348.657 177.109 348.3 177.702 348.04C178.302 347.773 178.979 347.64 179.732 347.64C180.359 347.64 180.939 347.743 181.472 347.95C182.006 348.15 182.466 348.447 182.852 348.84C183.239 349.233 183.539 349.717 183.752 350.29C183.972 350.857 184.082 351.503 184.082 352.23C184.082 352.563 184.046 352.787 183.972 352.9C183.899 353.013 183.766 353.07 183.572 353.07H177.022Z" fill="black"/>
<rect x="227" y="265" width="41" height="62" rx="9" fill="#FFCC91" fill-opacity="0.2" stroke="#EEEEEE" stroke-width="2"/>
<path d="M247.64 343.6L243.16 358H241.05L237.67 347.66C237.63 347.547 237.59 347.423 237.55 347.29C237.517 347.157 237.483 347.013 237.45 346.86C237.417 347.013 237.38 347.157 237.34 347.29C237.307 347.423 237.27 347.547 237.23 347.66L233.82 358H231.71L227.23 343.6H229.19C229.39 343.6 229.557 343.65 229.69 343.75C229.83 343.843 229.923 343.973 229.97 344.14L232.67 353.37C232.723 353.57 232.773 353.787 232.82 354.02C232.867 354.253 232.913 354.497 232.96 354.75C233.007 354.497 233.057 354.253 233.11 354.02C233.17 353.78 233.233 353.563 233.3 353.37L236.39 344.14C236.437 344.007 236.53 343.883 236.67 343.77C236.81 343.657 236.977 343.6 237.17 343.6H237.85C238.057 343.6 238.223 343.653 238.35 343.76C238.477 343.86 238.573 343.987 238.64 344.14L241.72 353.37C241.787 353.563 241.847 353.773 241.9 354C241.96 354.22 242.013 354.453 242.06 354.7C242.107 354.453 242.15 354.22 242.19 354C242.237 353.773 242.287 353.563 242.34 353.37L245.03 344.14C245.07 343.993 245.16 343.867 245.3 343.76C245.447 343.653 245.617 343.6 245.81 343.6H247.64ZM254.707 351.75C254.707 351.39 254.654 351.057 254.547 350.75C254.447 350.437 254.297 350.167 254.097 349.94C253.897 349.707 253.647 349.527 253.347 349.4C253.054 349.267 252.714 349.2 252.327 349.2C251.547 349.2 250.934 349.423 250.487 349.87C250.04 350.317 249.757 350.943 249.637 351.75H254.707ZM249.577 353.07C249.604 353.65 249.694 354.153 249.847 354.58C250 355 250.204 355.35 250.457 355.63C250.717 355.91 251.024 356.12 251.377 356.26C251.737 356.393 252.137 356.46 252.577 356.46C252.997 356.46 253.36 356.413 253.667 356.32C253.974 356.22 254.24 356.113 254.467 356C254.694 355.88 254.887 355.773 255.047 355.68C255.207 355.58 255.354 355.53 255.487 355.53C255.66 355.53 255.794 355.597 255.887 355.73L256.497 356.52C256.244 356.82 255.957 357.073 255.637 357.28C255.317 357.487 254.977 357.657 254.617 357.79C254.257 357.917 253.887 358.007 253.507 358.06C253.127 358.12 252.757 358.15 252.397 358.15C251.69 358.15 251.034 358.033 250.427 357.8C249.827 357.56 249.304 357.21 248.857 356.75C248.417 356.29 248.07 355.72 247.817 355.04C247.57 354.36 247.447 353.577 247.447 352.69C247.447 351.983 247.557 351.323 247.777 350.71C248.004 350.097 248.324 349.563 248.737 349.11C249.157 348.657 249.664 348.3 250.257 348.04C250.857 347.773 251.534 347.64 252.287 347.64C252.914 347.64 253.494 347.743 254.027 347.95C254.56 348.15 255.02 348.447 255.407 348.84C255.794 349.233 256.094 349.717 256.307 350.29C256.527 350.857 256.637 351.503 256.637 352.23C256.637 352.563 256.6 352.787 256.527 352.9C256.454 353.013 256.32 353.07 256.127 353.07H249.577ZM265.152 350.31C264.852 349.923 264.522 349.653 264.162 349.5C263.802 349.347 263.412 349.27 262.992 349.27C262.152 349.27 261.495 349.58 261.022 350.2C260.549 350.813 260.312 351.723 260.312 352.93C260.312 353.557 260.365 354.093 260.472 354.54C260.579 354.98 260.732 355.34 260.932 355.62C261.132 355.9 261.375 356.103 261.662 356.23C261.949 356.357 262.272 356.42 262.632 356.42C263.179 356.42 263.649 356.303 264.042 356.07C264.442 355.83 264.812 355.493 265.152 355.06V350.31ZM267.302 343.2V358H266.002C265.715 358 265.532 357.863 265.452 357.59L265.262 356.48C264.835 356.98 264.349 357.383 263.802 357.69C263.262 357.997 262.632 358.15 261.912 358.15C261.339 358.15 260.819 358.037 260.352 357.81C259.885 357.577 259.485 357.24 259.152 356.8C258.819 356.36 258.559 355.817 258.372 355.17C258.192 354.517 258.102 353.77 258.102 352.93C258.102 352.17 258.202 351.467 258.402 350.82C258.609 350.173 258.902 349.613 259.282 349.14C259.662 348.66 260.122 348.287 260.662 348.02C261.209 347.747 261.819 347.61 262.492 347.61C263.092 347.61 263.602 347.707 264.022 347.9C264.442 348.087 264.819 348.35 265.152 348.69V343.2H267.302Z" fill="black"/>
<rect x="309" y="212" width="41" height="115" rx="9" fill="#FFCC91" stroke="#EEEEEE" stroke-width="2"/>
<path d="M315.62 345.55H311.13V358H308.8V345.55H304.3V343.6H315.62V345.55ZM319.198 349.01C319.618 348.597 320.078 348.267 320.578 348.02C321.078 347.767 321.662 347.64 322.328 347.64C322.888 347.64 323.378 347.733 323.798 347.92C324.225 348.107 324.582 348.37 324.868 348.71C325.162 349.05 325.382 349.46 325.528 349.94C325.675 350.413 325.748 350.937 325.748 351.51V358H323.608V351.51C323.608 350.823 323.448 350.29 323.128 349.91C322.815 349.53 322.335 349.34 321.688 349.34C321.208 349.34 320.762 349.45 320.348 349.67C319.942 349.89 319.558 350.19 319.198 350.57V358H317.048V343.2H319.198V349.01ZM336.859 347.8V358H335.559C335.273 358 335.089 357.863 335.009 357.59L334.849 356.64C334.636 356.867 334.409 357.073 334.169 357.26C333.936 357.447 333.686 357.607 333.419 357.74C333.153 357.873 332.866 357.977 332.559 358.05C332.259 358.123 331.936 358.16 331.589 358.16C331.029 358.16 330.536 358.067 330.109 357.88C329.683 357.693 329.323 357.43 329.029 357.09C328.743 356.75 328.526 356.343 328.379 355.87C328.233 355.39 328.159 354.863 328.159 354.29V347.8H330.309V354.29C330.309 354.977 330.466 355.51 330.779 355.89C331.099 356.27 331.583 356.46 332.229 356.46C332.703 356.46 333.143 356.353 333.549 356.14C333.963 355.92 334.349 355.62 334.709 355.24V347.8H336.859ZM341.5 349.69C341.82 349.043 342.207 348.537 342.66 348.17C343.113 347.797 343.657 347.61 344.29 347.61C344.51 347.61 344.717 347.637 344.91 347.69C345.103 347.737 345.277 347.81 345.43 347.91L345.28 349.53C345.253 349.643 345.21 349.723 345.15 349.77C345.097 349.81 345.023 349.83 344.93 349.83C344.83 349.83 344.687 349.813 344.5 349.78C344.313 349.74 344.117 349.72 343.91 349.72C343.61 349.72 343.343 349.763 343.11 349.85C342.883 349.937 342.677 350.063 342.49 350.23C342.31 350.397 342.15 350.6 342.01 350.84C341.87 351.08 341.74 351.353 341.62 351.66V358H339.47V347.8H340.72C340.947 347.8 341.103 347.843 341.19 347.93C341.277 348.01 341.337 348.153 341.37 348.36L341.5 349.69ZM352.884 349.65C352.831 349.743 352.771 349.81 352.704 349.85C352.638 349.89 352.554 349.91 352.454 349.91C352.341 349.91 352.218 349.877 352.084 349.81C351.951 349.737 351.794 349.657 351.614 349.57C351.434 349.483 351.221 349.407 350.974 349.34C350.734 349.267 350.451 349.23 350.124 349.23C349.858 349.23 349.614 349.263 349.394 349.33C349.181 349.39 348.998 349.48 348.844 349.6C348.698 349.713 348.584 349.85 348.504 350.01C348.424 350.163 348.384 350.33 348.384 350.51C348.384 350.75 348.458 350.95 348.604 351.11C348.751 351.27 348.944 351.41 349.184 351.53C349.424 351.643 349.698 351.747 350.004 351.84C350.311 351.933 350.624 352.033 350.944 352.14C351.264 352.247 351.578 352.37 351.884 352.51C352.191 352.65 352.464 352.823 352.704 353.03C352.944 353.23 353.138 353.477 353.284 353.77C353.431 354.057 353.504 354.407 353.504 354.82C353.504 355.3 353.418 355.743 353.244 356.15C353.071 356.557 352.818 356.91 352.484 357.21C352.151 357.51 351.734 357.743 351.234 357.91C350.741 358.077 350.174 358.16 349.534 358.16C349.181 358.16 348.838 358.127 348.504 358.06C348.178 358 347.864 357.917 347.564 357.81C347.271 357.697 346.994 357.563 346.734 357.41C346.481 357.257 346.254 357.09 346.054 356.91L346.554 356.09C346.614 355.99 346.688 355.913 346.774 355.86C346.868 355.8 346.981 355.77 347.114 355.77C347.254 355.77 347.391 355.817 347.524 355.91C347.664 355.997 347.824 356.093 348.004 356.2C348.191 356.307 348.414 356.407 348.674 356.5C348.934 356.587 349.258 356.63 349.644 356.63C349.964 356.63 350.241 356.593 350.474 356.52C350.708 356.44 350.901 356.333 351.054 356.2C351.208 356.067 351.321 355.917 351.394 355.75C351.468 355.577 351.504 355.393 351.504 355.2C351.504 354.94 351.431 354.727 351.284 354.56C351.138 354.393 350.941 354.25 350.694 354.13C350.454 354.01 350.178 353.903 349.864 353.81C349.558 353.717 349.244 353.617 348.924 353.51C348.604 353.403 348.288 353.28 347.974 353.14C347.668 353 347.391 352.823 347.144 352.61C346.904 352.39 346.711 352.127 346.564 351.82C346.418 351.507 346.344 351.127 346.344 350.68C346.344 350.273 346.424 349.887 346.584 349.52C346.751 349.153 346.991 348.83 347.304 348.55C347.624 348.27 348.014 348.05 348.474 347.89C348.941 347.723 349.478 347.64 350.084 347.64C350.771 347.64 351.394 347.75 351.954 347.97C352.514 348.19 352.984 348.49 353.364 348.87L352.884 349.65Z" fill="black"/>
<rect x="391" y="151" width="41" height="176" rx="9" fill="#FFCC91" fill-opacity="0.2" stroke="#EEEEEE" stroke-width="2"/>
<path d="M404.06 345.49V350.1H409.69V351.99H404.06V358H401.71V343.6H410.69V345.49H404.06ZM413.828 349.69C414.148 349.043 414.535 348.537 414.988 348.17C415.442 347.797 415.985 347.61 416.618 347.61C416.838 347.61 417.045 347.637 417.238 347.69C417.432 347.737 417.605 347.81 417.758 347.91L417.608 349.53C417.582 349.643 417.538 349.723 417.478 349.77C417.425 349.81 417.352 349.83 417.258 349.83C417.158 349.83 417.015 349.813 416.828 349.78C416.642 349.74 416.445 349.72 416.238 349.72C415.938 349.72 415.672 349.763 415.438 349.85C415.212 349.937 415.005 350.063 414.818 350.23C414.638 350.397 414.478 350.6 414.338 350.84C414.198 351.08 414.068 351.353 413.948 351.66V358H411.798V347.8H413.048C413.275 347.8 413.432 347.843 413.518 347.93C413.605 348.01 413.665 348.153 413.698 348.36L413.828 349.69ZM421.421 347.8V358H419.271V347.8H421.421ZM421.781 344.72C421.781 344.913 421.741 345.097 421.661 345.27C421.588 345.443 421.484 345.597 421.351 345.73C421.218 345.857 421.061 345.96 420.881 346.04C420.708 346.113 420.521 346.15 420.321 346.15C420.128 346.15 419.944 346.113 419.771 346.04C419.604 345.96 419.458 345.857 419.331 345.73C419.204 345.597 419.101 345.443 419.021 345.27C418.948 345.097 418.911 344.913 418.911 344.72C418.911 344.52 418.948 344.333 419.021 344.16C419.101 343.987 419.204 343.837 419.331 343.71C419.458 343.577 419.604 343.473 419.771 343.4C419.944 343.32 420.128 343.28 420.321 343.28C420.521 343.28 420.708 343.32 420.881 343.4C421.061 343.473 421.218 343.577 421.351 343.71C421.484 343.837 421.588 343.987 421.661 344.16C421.741 344.333 421.781 344.52 421.781 344.72Z" fill="black"/>
<rect x="469" y="265" width="41" height="62" rx="9" fill="#FFCC91" fill-opacity="0.2" stroke="#EEEEEE" stroke-width="2"/>
<path d="M484.24 346.06C484.167 346.18 484.09 346.27 484.01 346.33C483.93 346.383 483.83 346.41 483.71 346.41C483.583 346.41 483.44 346.357 483.28 346.25C483.127 346.143 482.933 346.027 482.7 345.9C482.473 345.767 482.203 345.647 481.89 345.54C481.577 345.427 481.203 345.37 480.77 345.37C480.37 345.37 480.017 345.42 479.71 345.52C479.41 345.62 479.157 345.76 478.95 345.94C478.743 346.12 478.587 346.333 478.48 346.58C478.38 346.82 478.33 347.083 478.33 347.37C478.33 347.737 478.427 348.043 478.62 348.29C478.813 348.53 479.067 348.737 479.38 348.91C479.7 349.083 480.063 349.237 480.47 349.37C480.877 349.497 481.29 349.633 481.71 349.78C482.137 349.927 482.553 350.093 482.96 350.28C483.367 350.467 483.727 350.703 484.04 350.99C484.36 351.277 484.617 351.627 484.81 352.04C485.003 352.453 485.1 352.957 485.1 353.55C485.1 354.19 484.99 354.79 484.77 355.35C484.55 355.91 484.23 356.4 483.81 356.82C483.397 357.233 482.883 357.56 482.27 357.8C481.663 358.04 480.97 358.16 480.19 358.16C479.73 358.16 479.28 358.113 478.84 358.02C478.407 357.933 477.99 357.81 477.59 357.65C477.197 357.483 476.827 357.283 476.48 357.05C476.133 356.817 475.823 356.557 475.55 356.27L476.23 355.15C476.29 355.057 476.367 354.983 476.46 354.93C476.553 354.877 476.657 354.85 476.77 354.85C476.923 354.85 477.093 354.923 477.28 355.07C477.467 355.21 477.69 355.367 477.95 355.54C478.217 355.707 478.537 355.863 478.91 356.01C479.283 356.15 479.73 356.22 480.25 356.22C481.097 356.22 481.75 356.013 482.21 355.6C482.677 355.187 482.91 354.617 482.91 353.89C482.91 353.483 482.813 353.153 482.62 352.9C482.427 352.64 482.17 352.423 481.85 352.25C481.537 352.077 481.177 351.93 480.77 351.81C480.363 351.69 479.95 351.563 479.53 351.43C479.11 351.29 478.697 351.13 478.29 350.95C477.883 350.763 477.52 350.523 477.2 350.23C476.887 349.93 476.633 349.563 476.44 349.13C476.247 348.69 476.15 348.143 476.15 347.49C476.15 346.97 476.25 346.467 476.45 345.98C476.657 345.493 476.953 345.063 477.34 344.69C477.733 344.31 478.217 344.007 478.79 343.78C479.363 343.553 480.017 343.44 480.75 343.44C481.577 343.44 482.333 343.57 483.02 343.83C483.713 344.09 484.31 344.46 484.81 344.94L484.24 346.06ZM492.541 353.54C491.775 353.567 491.128 353.63 490.601 353.73C490.075 353.823 489.648 353.947 489.321 354.1C488.995 354.247 488.758 354.423 488.611 354.63C488.471 354.837 488.401 355.063 488.401 355.31C488.401 355.55 488.438 355.757 488.511 355.93C488.591 356.097 488.698 356.237 488.831 356.35C488.971 356.457 489.131 356.537 489.311 356.59C489.498 356.637 489.701 356.66 489.921 356.66C490.481 356.66 490.961 356.557 491.361 356.35C491.768 356.137 492.161 355.83 492.541 355.43V353.54ZM486.841 349.22C487.995 348.147 489.368 347.61 490.961 347.61C491.548 347.61 492.068 347.707 492.521 347.9C492.981 348.087 493.365 348.353 493.671 348.7C493.985 349.047 494.221 349.46 494.381 349.94C494.548 350.413 494.631 350.94 494.631 351.52V358H493.671C493.465 358 493.308 357.97 493.201 357.91C493.095 357.843 493.005 357.713 492.931 357.52L492.721 356.69C492.461 356.923 492.205 357.133 491.951 357.32C491.698 357.5 491.435 357.653 491.161 357.78C490.895 357.907 490.605 358 490.291 358.06C489.985 358.127 489.645 358.16 489.271 358.16C488.858 358.16 488.471 358.103 488.111 357.99C487.758 357.877 487.451 357.707 487.191 357.48C486.931 357.247 486.725 356.96 486.571 356.62C486.425 356.28 486.351 355.88 486.351 355.42C486.351 355.027 486.455 354.643 486.661 354.27C486.875 353.897 487.221 353.563 487.701 353.27C488.188 352.97 488.825 352.723 489.611 352.53C490.405 352.337 491.381 352.227 492.541 352.2V351.52C492.541 350.787 492.385 350.24 492.071 349.88C491.758 349.52 491.298 349.34 490.691 349.34C490.278 349.34 489.931 349.393 489.651 349.5C489.371 349.6 489.128 349.71 488.921 349.83C488.715 349.95 488.531 350.063 488.371 350.17C488.211 350.27 488.041 350.32 487.861 350.32C487.715 350.32 487.588 350.283 487.481 350.21C487.381 350.13 487.298 350.033 487.231 349.92L486.841 349.22ZM500.283 358.16C499.436 358.16 498.783 357.923 498.323 357.45C497.87 356.97 497.643 356.297 497.643 355.43V349.49H496.523C496.403 349.49 496.3 349.453 496.213 349.38C496.126 349.3 496.083 349.183 496.083 349.03V348.16L497.733 347.92L498.203 344.97C498.236 344.857 498.293 344.767 498.373 344.7C498.453 344.627 498.56 344.59 498.693 344.59H499.793V347.94H502.623V349.49H499.793V355.28C499.793 355.647 499.883 355.927 500.063 356.12C500.243 356.313 500.483 356.41 500.783 356.41C500.95 356.41 501.093 356.39 501.213 356.35C501.333 356.303 501.436 356.257 501.523 356.21C501.61 356.157 501.683 356.11 501.743 356.07C501.81 356.023 501.873 356 501.933 356C502.053 356 502.15 356.067 502.223 356.2L502.863 357.25C502.53 357.543 502.136 357.77 501.683 357.93C501.23 358.083 500.763 358.16 500.283 358.16Z" fill="black"/>
<rect x="547" y="91" width="41" height="236" rx="9" fill="#FFCC91" fill-opacity="0.2" stroke="#EEEEEE" stroke-width="2"/>
<path d="M560.24 346.06C560.167 346.18 560.09 346.27 560.01 346.33C559.93 346.383 559.83 346.41 559.71 346.41C559.583 346.41 559.44 346.357 559.28 346.25C559.127 346.143 558.933 346.027 558.7 345.9C558.473 345.767 558.203 345.647 557.89 345.54C557.577 345.427 557.203 345.37 556.77 345.37C556.37 345.37 556.017 345.42 555.71 345.52C555.41 345.62 555.157 345.76 554.95 345.94C554.743 346.12 554.587 346.333 554.48 346.58C554.38 346.82 554.33 347.083 554.33 347.37C554.33 347.737 554.427 348.043 554.62 348.29C554.813 348.53 555.067 348.737 555.38 348.91C555.7 349.083 556.063 349.237 556.47 349.37C556.877 349.497 557.29 349.633 557.71 349.78C558.137 349.927 558.553 350.093 558.96 350.28C559.367 350.467 559.727 350.703 560.04 350.99C560.36 351.277 560.617 351.627 560.81 352.04C561.003 352.453 561.1 352.957 561.1 353.55C561.1 354.19 560.99 354.79 560.77 355.35C560.55 355.91 560.23 356.4 559.81 356.82C559.397 357.233 558.883 357.56 558.27 357.8C557.663 358.04 556.97 358.16 556.19 358.16C555.73 358.16 555.28 358.113 554.84 358.02C554.407 357.933 553.99 357.81 553.59 357.65C553.197 357.483 552.827 357.283 552.48 357.05C552.133 356.817 551.823 356.557 551.55 356.27L552.23 355.15C552.29 355.057 552.367 354.983 552.46 354.93C552.553 354.877 552.657 354.85 552.77 354.85C552.923 354.85 553.093 354.923 553.28 355.07C553.467 355.21 553.69 355.367 553.95 355.54C554.217 355.707 554.537 355.863 554.91 356.01C555.283 356.15 555.73 356.22 556.25 356.22C557.097 356.22 557.75 356.013 558.21 355.6C558.677 355.187 558.91 354.617 558.91 353.89C558.91 353.483 558.813 353.153 558.62 352.9C558.427 352.64 558.17 352.423 557.85 352.25C557.537 352.077 557.177 351.93 556.77 351.81C556.363 351.69 555.95 351.563 555.53 351.43C555.11 351.29 554.697 351.13 554.29 350.95C553.883 350.763 553.52 350.523 553.2 350.23C552.887 349.93 552.633 349.563 552.44 349.13C552.247 348.69 552.15 348.143 552.15 347.49C552.15 346.97 552.25 346.467 552.45 345.98C552.657 345.493 552.953 345.063 553.34 344.69C553.733 344.31 554.217 344.007 554.79 343.78C555.363 343.553 556.017 343.44 556.75 343.44C557.577 343.44 558.333 343.57 559.02 343.83C559.713 344.09 560.31 344.46 560.81 344.94L560.24 346.06ZM571.633 347.8V358H570.333C570.046 358 569.863 357.863 569.783 357.59L569.623 356.64C569.409 356.867 569.183 357.073 568.943 357.26C568.709 357.447 568.459 357.607 568.193 357.74C567.926 357.873 567.639 357.977 567.333 358.05C567.033 358.123 566.709 358.16 566.363 358.16C565.803 358.16 565.309 358.067 564.883 357.88C564.456 357.693 564.096 357.43 563.803 357.09C563.516 356.75 563.299 356.343 563.153 355.87C563.006 355.39 562.933 354.863 562.933 354.29V347.8H565.083V354.29C565.083 354.977 565.239 355.51 565.553 355.89C565.873 356.27 566.356 356.46 567.003 356.46C567.476 356.46 567.916 356.353 568.323 356.14C568.736 355.92 569.123 355.62 569.483 355.24V347.8H571.633ZM576.254 349.15C576.474 348.923 576.7 348.72 576.934 348.54C577.174 348.353 577.427 348.193 577.694 348.06C577.96 347.927 578.244 347.823 578.544 347.75C578.844 347.677 579.17 347.64 579.524 347.64C580.084 347.64 580.574 347.733 580.994 347.92C581.42 348.107 581.777 348.37 582.064 348.71C582.357 349.05 582.577 349.46 582.724 349.94C582.87 350.413 582.944 350.937 582.944 351.51V358H580.804V351.51C580.804 350.823 580.644 350.29 580.324 349.91C580.01 349.53 579.53 349.34 578.884 349.34C578.404 349.34 577.957 349.45 577.544 349.67C577.137 349.89 576.754 350.19 576.394 350.57V358H574.244V347.8H575.544C575.837 347.8 576.024 347.937 576.104 348.21L576.254 349.15Z" fill="black"/>
<defs>
<linearGradient id="paint0_linear_948_150" x1="-265.417" y1="-341.667" x2="578.394" y2="392.75" gradientUnits="userSpaceOnUse">
<stop offset="0.05833" stop-color="#007AFF"/>
<stop offset="0.935963" stop-color="#D568EE"/>
</linearGradient>
</defs>
</svg>
