<svg width="72" height="72" viewBox="0 0 72 72" fill="none" xmlns="http://www.w3.org/2000/svg">
<path d="M72 36C72 55.8826 55.8708 72 35.9923 72C16.1139 72 0 55.8826 0 36C0 16.1173 16.1139 0 35.9923 0C55.8708 0 72 16.1173 72 36Z" fill="url(#paint0_linear_771_11351)"/>
<path d="M48.8774 45.2946L48.2802 20.6259C48.2955 19.9215 48.2343 17.0274 46.2436 14.8683C45.3402 13.8883 43.6864 12.7092 40.9607 12.6479C40.9199 12.6479 40.879 12.6479 40.8382 12.6479C37.8369 12.7245 36.076 13.9802 35.1266 15.0367C33.0593 17.3183 33.09 20.3043 33.1206 20.9474L33.5341 46.1062C33.5647 47.515 34.7284 48.6328 36.1372 48.6175C37.546 48.5869 38.6638 47.4384 38.6332 46.0296L38.2198 21.1159L35.5707 21.1924L40.7004 16.2158L46.0599 20.9321L43.1964 20.9934L43.7782 45.4631C43.7782 45.509 43.7782 45.5396 43.7782 45.5703C43.7782 45.6162 44.0079 49.6741 41.7264 52.1853C40.5166 53.5176 38.8016 54.2066 36.4741 54.2832C33.8709 54.3598 31.9262 53.7166 30.5175 52.3385C28.0062 49.8731 28.0368 45.7387 28.0368 45.7081C28.0674 44.2993 26.9496 43.1355 25.5561 43.1049C24.1474 43.0743 22.9683 44.1921 22.9377 45.5856C22.9377 45.8459 22.8458 51.8944 26.9036 55.9217C29.3077 58.3257 32.5847 59.4895 36.6272 59.3823C40.3788 59.2598 43.3801 57.9736 45.5392 55.5695C45.8148 55.2632 46.07 54.9467 46.3048 54.6201C49.0611 50.7919 48.908 45.999 48.8774 45.2946Z" fill="white"/>
<defs>
<linearGradient id="paint0_linear_771_11351" x1="36" y1="0" x2="36" y2="72" gradientUnits="userSpaceOnUse">
<stop stop-color="#5417A3"/>
<stop offset="1" stop-color="#410F80"/>
</linearGradient>
</defs>
</svg>
