<svg width="244" height="72" viewBox="0 0 244 72" fill="none" xmlns="http://www.w3.org/2000/svg">
<path d="M72 36C72 55.8826 55.8708 72 35.9923 72C16.1139 72 0 55.8826 0 36C0 16.1173 16.1139 0 35.9923 0C55.8708 0 72 16.1173 72 36Z" fill="url(#paint0_linear_686_240)"/>
<path d="M48.8774 45.2946L48.2802 20.6259C48.2955 19.9215 48.2343 17.0274 46.2436 14.8683C45.3402 13.8883 43.6864 12.7092 40.9607 12.6479C40.9199 12.6479 40.879 12.6479 40.8382 12.6479C37.8369 12.7245 36.076 13.9802 35.1266 15.0367C33.0593 17.3183 33.09 20.3043 33.1206 20.9474L33.5341 46.1062C33.5647 47.515 34.7284 48.6328 36.1372 48.6175C37.546 48.5869 38.6638 47.4384 38.6332 46.0296L38.2198 21.1159L35.5707 21.1924L40.7004 16.2158L46.0599 20.9321L43.1964 20.9934L43.7782 45.4631C43.7782 45.509 43.7782 45.5396 43.7782 45.5703C43.7782 45.6162 44.0079 49.6741 41.7264 52.1853C40.5166 53.5176 38.8016 54.2066 36.4741 54.2832C33.8709 54.3598 31.9262 53.7166 30.5175 52.3385C28.0062 49.8731 28.0368 45.7387 28.0368 45.7081C28.0674 44.2993 26.9496 43.1355 25.5561 43.1049C24.1474 43.0743 22.9683 44.1921 22.9377 45.5856C22.9377 45.8459 22.8458 51.8944 26.9036 55.9217C29.3077 58.3257 32.5847 59.4895 36.6272 59.3823C40.3788 59.2598 43.3801 57.9736 45.5392 55.5695C45.8148 55.2632 46.07 54.9467 46.3048 54.6201C49.0611 50.7919 48.908 45.999 48.8774 45.2946Z" fill="white"/>
<path d="M82.375 47.848L85.3973 44.5224C86.6647 45.9957 87.9213 46.8623 89.557 46.8623C91.496 46.8623 92.6984 45.6924 92.6984 43.0059V28.4902H97.5406V43.19C97.5406 45.8765 96.7715 47.848 95.4499 49.1696C94.085 50.5562 92.1135 51.2386 89.687 51.2386C86.1989 51.2386 83.9457 49.7221 82.375 47.848Z" fill="#1A1A1A"/>
<path fill-rule="evenodd" clip-rule="evenodd" d="M101.922 39.7779V39.7129C101.922 33.3975 106.948 28.1221 113.849 28.1221C120.749 28.1221 125.71 33.2675 125.71 39.6479V39.7129C125.71 46.0283 120.695 51.3038 113.784 51.3038C106.883 51.3038 101.922 46.1475 101.922 39.7779ZM120.749 39.7779V39.7129C120.749 35.7699 117.824 32.4659 113.784 32.4659C109.721 32.4659 106.883 35.7049 106.883 39.6479V39.7129C106.883 43.656 109.754 46.9491 113.849 46.9491C117.922 46.9491 120.749 43.721 120.749 39.7779Z" fill="#1A1A1A"/>
<path fill-rule="evenodd" clip-rule="evenodd" d="M130.422 28.4902H140.745C143.334 28.4902 145.306 29.2052 146.627 30.4618C147.646 31.48 148.133 32.7799 148.133 34.2857V34.3507C148.133 36.9071 146.747 38.2937 145.143 39.2145C147.732 40.1786 149.401 41.7168 149.401 44.7066V44.7607C149.401 48.8663 146.075 50.9245 141.016 50.9245H130.422V28.4902ZM143.421 35.0548C143.421 33.549 142.251 32.6608 140.063 32.6608H135.004V37.6438H139.76C142.002 37.6438 143.421 36.8746 143.421 35.1198V35.0548ZM144.688 44.1433C144.688 42.5401 143.518 41.5868 140.832 41.5868H135.004V46.7648H141.016C143.334 46.7648 144.688 45.9307 144.688 44.2083V44.1433Z" fill="#1A1A1A"/>
<path d="M151.562 47.848L154.585 44.5224C155.852 45.9957 157.109 46.8623 158.744 46.8623C160.684 46.8623 161.886 45.6924 161.886 43.0059V28.4902H166.728V43.19C166.728 45.8765 165.959 47.848 164.627 49.1696C163.273 50.5562 161.301 51.2386 158.864 51.2386C155.386 51.2386 153.133 49.7221 151.562 47.848Z" fill="#1A1A1A"/>
<path fill-rule="evenodd" clip-rule="evenodd" d="M179.051 28.3389H183.428L193.069 50.9248H188.108L186.017 45.8118H176.311L174.209 50.9248H169.367L179.051 28.3389ZM184.327 41.6304L181.186 34.0151L178.012 41.6304H184.327Z" fill="#1A1A1A"/>
<path fill-rule="evenodd" clip-rule="evenodd" d="M196.898 28.4902H207.103C209.93 28.4902 212.118 29.2593 213.635 30.7759C214.891 32.0325 215.509 33.7007 215.509 35.8239V35.8889C215.509 39.5611 213.537 41.8035 210.612 42.8217L216.224 50.9245H210.677L205.716 43.6233H201.611V50.9245H196.898V28.4902ZM206.789 39.4311C209.258 39.4311 210.732 38.1096 210.732 36.138V36.073C210.732 33.8849 209.193 32.7799 206.702 32.7799H201.611V39.4311H206.789Z" fill="#1A1A1A"/>
<path fill-rule="evenodd" clip-rule="evenodd" d="M219.297 39.7779V39.7129C219.297 33.3975 224.323 28.1221 231.224 28.1221C238.124 28.1221 243.085 33.2675 243.085 39.6479V39.7129C243.085 46.0283 238.07 51.3038 231.159 51.3038C224.258 51.3038 219.297 46.1475 219.297 39.7779ZM238.124 39.7779V39.7129C238.124 35.7699 235.199 32.4659 231.159 32.4659C227.096 32.4659 224.258 35.7049 224.258 39.6479V39.7129C224.258 43.656 227.129 46.9491 231.224 46.9491C235.297 46.9491 238.124 43.721 238.124 39.7779Z" fill="#1A1A1A"/>
<defs>
<linearGradient id="paint0_linear_686_240" x1="36" y1="0" x2="36" y2="72" gradientUnits="userSpaceOnUse">
<stop stop-color="#5417A3"/>
<stop offset="1" stop-color="#410F80"/>
</linearGradient>
</defs>
</svg>
