<svg width="28" height="24" viewBox="0 0 28 24" fill="none" xmlns="http://www.w3.org/2000/svg">
<path d="M18.9422 14.0877C18.264 14.7537 17.4596 15.2775 16.5763 15.6286C15.693 15.9796 14.7485 16.1508 13.7982 16.1321C13.2692 16.1321 12.7374 16.1321 12.2084 16.1321C12.1208 16.1264 12.033 16.1408 11.9519 16.1743C11.8707 16.2077 11.7982 16.2592 11.74 16.325C10.547 17.5814 9.34297 18.8295 8.15822 20.0803C8.04752 20.2109 7.91001 20.3162 7.75502 20.3889C7.60004 20.4617 7.43122 20.5002 7.26002 20.5019C7.11679 20.5016 6.97508 20.4726 6.8432 20.4167C6.71132 20.3609 6.59195 20.2792 6.49209 20.1765C6.39224 20.0738 6.31391 19.9522 6.26173 19.8188C6.20955 19.6855 6.18456 19.543 6.18824 19.3998C6.18824 18.3583 6.18824 17.3178 6.18824 16.2781C6.18824 16.0798 6.13313 16.0026 5.932 15.964C2.99493 15.2091 1.20403 13.2942 0.333382 10.4536C0.194084 9.91696 0.0828058 9.37344 0 8.82525L0 7.31538C0.0531151 6.83479 0.14526 6.35933 0.275523 5.89369C0.994637 3.28173 2.54307 1.38889 5.12196 0.405277C5.86328 0.130464 6.64852 -0.00678974 7.43911 0.000258279C9.51379 0.000258279 11.5912 0.000258279 13.6687 0.000258279C16.5672 -0.0135179 18.7355 1.27593 20.2234 3.69226C21.2018 5.31911 21.6072 7.22674 21.375 9.11087C21.1428 10.995 20.2863 12.7471 18.9422 14.0877Z" fill="#737792"/>
<path d="M25.4969 10.0322C24.7315 9.3437 23.7867 8.88612 22.772 8.7124C22.772 8.78679 22.7527 8.83088 22.7472 8.87221C22.6554 10.202 22.2796 11.4966 21.6451 12.6689C19.9424 15.7548 17.3607 17.441 13.7817 17.485C13.4042 17.485 13.0268 17.485 12.6493 17.485C12.3407 17.485 12.2029 17.722 12.36 17.9782C13.2306 19.3999 14.4485 20.3725 16.1154 20.6618C16.8364 20.7502 17.563 20.7861 18.2892 20.7693C18.3728 20.7641 18.4564 20.7781 18.5337 20.8101C18.611 20.842 18.6801 20.8912 18.7356 20.9539C19.2205 21.4719 19.7164 21.9788 20.2069 22.4913C20.5843 22.8853 20.9591 23.2875 21.3475 23.676C21.5118 23.8645 21.7441 23.9802 21.9936 23.9978C22.243 24.0153 22.4892 23.9333 22.6783 23.7697C22.7923 23.666 22.8812 23.5377 22.938 23.3944C22.9948 23.2511 23.0181 23.0968 23.0062 22.9431C23.0062 22.2902 23.0062 21.6344 23.0062 20.9814C23.0062 20.7472 23.0696 20.6646 23.301 20.5764C23.8723 20.3941 24.4199 20.1444 24.9321 19.8325C28.1777 17.6008 28.4615 12.6662 25.4969 10.0322Z" fill="#737792"/>
</svg>
