<svg width="31" height="31" viewBox="0 0 31 31" fill="none" xmlns="http://www.w3.org/2000/svg">
<g clip-path="url(#clip0_199_1117)">
<path fill-rule="evenodd" clip-rule="evenodd" d="M7.0808 0C3.5391 0 0.667969 2.87113 0.667969 6.41282V29.7148C0.667969 30.8607 2.05602 31.4315 2.86207 30.6171L6.07464 27.3715C7.29998 26.1336 8.97616 25.4474 10.7179 25.4706L15.5172 25.5346H23.9535C27.4952 25.5346 30.3663 22.6635 30.3663 19.1217V6.41282C30.3663 2.87113 27.4952 0 23.9535 0L7.0808 0ZM6.94403 10.6998C6.94403 10.2316 7.32354 9.85213 7.79168 9.85213H23.2178C23.686 9.85213 24.0655 10.2316 24.0655 10.6998C24.0655 11.1679 23.686 11.5474 23.2178 11.5474H7.79168C7.32354 11.5474 6.94403 11.1679 6.94403 10.6998ZM6.94403 15.702C6.94403 15.2338 7.32354 14.8543 7.79168 14.8543H15.5173C15.9854 14.8543 16.3649 15.2338 16.3649 15.702C16.3649 16.1701 15.9854 16.5496 15.5173 16.5496H7.79168C7.32354 16.5496 6.94403 16.1701 6.94403 15.702Z" fill="url(#paint0_linear_199_1117)"/>
</g>
<defs>
<linearGradient id="paint0_linear_199_1117" x1="30.3663" y1="15.5" x2="0.667979" y2="15.5" gradientUnits="userSpaceOnUse">
<stop stop-color="#0039A6"/>
<stop offset="1" stop-color="#318CE7"/>
</linearGradient>
<clipPath id="clip0_199_1117">
<rect width="31" height="31" fill="white"/>
</clipPath>
</defs>
</svg>
