<svg width="27" height="27" viewBox="0 0 27 27" fill="none" xmlns="http://www.w3.org/2000/svg">
<g clip-path="url(#clip0_284_481)">
<path d="M21.8324 7.84424C22.1236 7.84424 22.3598 7.60815 22.3598 7.31689V1.58203C22.3598 0.709699 21.6501 0 20.7777 0H1.58243C0.710096 0 0.000396729 0.709699 0.000396729 1.58203V25.418C0.000396729 26.2903 0.710096 27 1.58243 27H20.7777C21.6501 27 22.3598 26.2903 22.3598 25.418V21.5329C22.3598 21.2417 22.1236 21.0056 21.8324 21.0056C21.5412 21.0056 21.3051 21.2417 21.3051 21.5329V25.418C21.3051 25.7087 21.0685 25.9453 20.7777 25.9453H1.58243C1.29165 25.9453 1.05508 25.7087 1.05508 25.418V1.58203C1.05508 1.29125 1.29165 1.05469 1.58243 1.05469H20.7777C21.0685 1.05469 21.3051 1.29125 21.3051 1.58203V7.31689C21.3051 7.60815 21.5412 7.84424 21.8324 7.84424Z" fill="#4E0684"/>
<path d="M11.1801 2.84766C8.50489 2.84766 6.32849 5.02406 6.32849 7.69922C6.32849 9.08703 6.91437 10.3404 7.85157 11.2255C7.86913 11.2443 7.88779 11.2621 7.9082 11.2782C8.77152 12.0682 9.92044 12.5507 11.18 12.5507C12.4396 12.5507 13.5885 12.0681 14.4518 11.2782C14.4722 11.2621 14.4909 11.2442 14.5084 11.2255C15.4457 10.3404 16.0316 9.08703 16.0316 7.69922C16.0316 5.02406 13.8552 2.84766 11.1801 2.84766ZM11.1801 11.4961C10.319 11.4961 9.52425 11.2075 8.88658 10.7226C9.35007 9.90072 10.215 9.38672 11.1801 9.38672C12.1451 9.38672 13.01 9.90072 13.4735 10.7226C12.8358 11.2075 12.0412 11.4961 11.1801 11.4961ZM10.3363 7.48828V7.14551C10.3363 6.68029 10.7148 6.30176 11.1801 6.30176C11.6453 6.30176 12.0238 6.68029 12.0238 7.14551V7.48828C12.0238 7.9535 11.6453 8.33203 11.1801 8.33203C10.7148 8.33203 10.3363 7.9535 10.3363 7.48828ZM14.2355 9.95008C13.8466 9.37327 13.3076 8.92466 12.6818 8.6477C12.9301 8.3267 13.0785 7.92461 13.0785 7.48828V7.14551C13.0785 6.09868 12.2269 5.24707 11.1801 5.24707C10.1332 5.24707 9.28162 6.09868 9.28162 7.14551V7.48828C9.28162 7.92461 9.42996 8.3267 9.67834 8.6477C9.05254 8.92466 8.51354 9.37327 8.12462 9.95008C7.65903 9.31975 7.38318 8.54123 7.38318 7.69922C7.38318 5.60561 9.08645 3.90234 11.1801 3.90234C13.2737 3.90234 14.9769 5.60561 14.9769 7.69922C14.9769 8.54123 14.7011 9.31975 14.2355 9.95008Z" fill="#4E0684"/>
<path d="M14.0277 23.0977H11.1801C10.8889 23.0977 10.6527 23.3337 10.6527 23.625C10.6527 23.9163 10.8889 24.1523 11.1801 24.1523H14.0277C14.3189 24.1523 14.5551 23.9163 14.5551 23.625C14.5551 23.3337 14.3189 23.0977 14.0277 23.0977Z" fill="#4E0684"/>
<path d="M14.0277 20.1445H6.53943C6.24823 20.1445 6.01208 20.3806 6.01208 20.6719C6.01208 20.9631 6.24823 21.1992 6.53943 21.1992H14.0277C14.3189 21.1992 14.5551 20.9631 14.5551 20.6719C14.5551 20.3806 14.3189 20.1445 14.0277 20.1445Z" fill="#4E0684"/>
<path d="M14.0277 17.1914H6.53943C6.24823 17.1914 6.01208 17.4275 6.01208 17.7188C6.01208 18.01 6.24823 18.2461 6.53943 18.2461H14.0277C14.3189 18.2461 14.5551 18.01 14.5551 17.7188C14.5551 17.4275 14.3189 17.1914 14.0277 17.1914Z" fill="#4E0684"/>
<path d="M4.65993 14.3928C4.56189 14.2947 4.42584 14.2383 4.28662 14.2383C4.14788 14.2383 4.01182 14.2947 3.91379 14.3928C3.8157 14.4909 3.75928 14.6269 3.75928 14.7656C3.75928 14.9043 3.81565 15.0404 3.91379 15.1385C4.0124 15.2365 4.14788 15.293 4.28662 15.293C4.42584 15.293 4.56137 15.2365 4.65993 15.1385C4.75801 15.0404 4.81449 14.9043 4.81449 14.7656C4.81449 14.6269 4.75807 14.4909 4.65993 14.3928Z" fill="#4E0684"/>
<path d="M4.65993 17.3459C4.56137 17.2478 4.42584 17.1914 4.28662 17.1914C4.14788 17.1914 4.0124 17.2478 3.91379 17.3459C3.8157 17.444 3.75928 17.5801 3.75928 17.7188C3.75928 17.8574 3.81565 17.9935 3.91379 18.0916C4.0124 18.1897 4.14788 18.2461 4.28662 18.2461C4.42584 18.2461 4.56137 18.1897 4.65993 18.0916C4.75801 17.9935 4.81449 17.8574 4.81449 17.7188C4.81449 17.5801 4.75807 17.444 4.65993 17.3459Z" fill="#4E0684"/>
<path d="M4.65993 20.299C4.56137 20.201 4.42584 20.1445 4.28662 20.1445C4.14788 20.1445 4.0124 20.201 3.91379 20.299C3.8157 20.3971 3.75928 20.5332 3.75928 20.6719C3.75928 20.8106 3.81565 20.9466 3.91379 21.0447C4.01182 21.1428 4.14788 21.1992 4.28662 21.1992C4.42584 21.1992 4.56189 21.1428 4.65993 21.0447C4.75801 20.9466 4.81449 20.8106 4.81449 20.6719C4.81449 20.5332 4.75807 20.3971 4.65993 20.299Z" fill="#4E0684"/>
<path d="M14.0277 14.2383H6.53943C6.24823 14.2383 6.01208 14.4744 6.01208 14.7656C6.01208 15.0569 6.24823 15.293 6.53943 15.293H14.0277C14.3189 15.293 14.5551 15.0569 14.5551 14.7656C14.5551 14.4744 14.3189 14.2383 14.0277 14.2383Z" fill="#4E0684"/>
<path d="M25.8927 6.87238C25.3804 6.5766 24.7835 6.49802 24.212 6.65111C23.6406 6.80425 23.1629 7.17075 22.8672 7.68307L16.231 19.1772C16.1946 19.2402 16.1716 19.3101 16.1636 19.3824L15.6964 23.5666C15.6732 23.7748 15.7754 23.977 15.9568 24.0818C16.0387 24.129 16.1297 24.1524 16.2205 24.1524C16.3308 24.1524 16.4407 24.1179 16.5332 24.0497L19.9232 21.5531C19.9818 21.5099 20.0308 21.4551 20.0672 21.3921L26.7033 9.89796C27.314 8.84032 26.9503 7.48305 25.8927 6.87238ZM16.8783 22.4857L17.1223 20.3008L18.6485 21.182L16.8783 22.4857ZM19.4175 20.408L17.408 19.2479L22.7334 10.0241L24.7429 11.1843L19.4175 20.408ZM25.79 9.37057L25.2702 10.2709L23.2607 9.11075L23.7805 8.21041C23.9354 7.94205 24.1856 7.75009 24.4849 7.66988C24.7844 7.58962 25.097 7.63086 25.3653 7.7858C25.6337 7.94073 25.8256 8.1909 25.9058 8.49022C25.986 8.78954 25.9449 9.1022 25.79 9.37057Z" fill="#4E0684"/>
</g>
<defs>
<clipPath id="clip0_284_481">
<rect width="27" height="27" fill="white"/>
</clipPath>
</defs>
</svg>
