<svg width="29" height="25" viewBox="0 0 29 25" fill="none" xmlns="http://www.w3.org/2000/svg">
<path d="M26.0082 6.16243H23.6545V22.9787H26.0082C26.4791 22.9787 26.8601 22.5977 26.8601 22.1268V7.01438C26.8601 6.54343 26.4791 6.16243 26.0082 6.16243ZM14.1822 19.9217L11.3811 19.7391C10.4025 19.6118 10.596 18.1248 11.575 18.2526L14.1822 18.417L16.7895 18.2526C17.7684 18.1248 17.9619 19.6118 16.9834 19.7391L14.1822 19.9217ZM14.1822 16.1771C11.4257 16.1771 8.65364 15.6608 6.21421 14.5889V22.9787H22.1502V14.5889C19.7108 15.6608 16.9388 16.1771 14.1822 16.1771ZM14.1822 14.6724C16.9527 14.6724 19.7667 14.113 22.1502 12.9353V6.16243H6.21421V12.9353C8.5977 14.113 11.4121 14.6724 14.1822 14.6724ZM4.70989 6.16243H2.35627C1.88532 6.16243 1.50432 6.54343 1.50432 7.01438V22.1268C1.50432 22.5977 1.88532 22.9787 2.35627 22.9787H4.70989V6.16243ZM17.9067 4.65811V3.08122C17.9067 2.21566 17.1954 1.5047 16.3298 1.5047H11.8275C10.9619 1.5047 10.2509 2.21566 10.2509 3.08122V4.65811H17.9067ZM8.74624 4.65811C8.74624 3.17949 8.5599 1.99531 9.65072 0.904484C10.2086 0.346599 10.9793 0 11.8275 0H16.3298C18.0262 0 19.4111 1.38488 19.4111 3.08122V4.65811H26.0082C27.3016 4.65811 28.3644 5.72096 28.3644 7.01438V22.1268C28.3644 23.4202 27.3016 24.483 26.0082 24.483C18.1241 24.483 10.2404 24.483 2.35627 24.483C1.06285 24.483 0 23.4202 0 22.1268V7.01438C0 5.72096 1.06285 4.65811 2.35627 4.65811H8.74624Z" fill="#4E0684"/>
</svg>
