<svg width="20" height="21" viewBox="0 0 20 21" fill="none" xmlns="http://www.w3.org/2000/svg">
<path d="M0.999875 0.0307617C0.448158 0.0307617 0 0.479823 0 1.03106V9.03089H9.00015V0.0308617L0.999875 0.0307617ZM10 0.0307617V8.29439C11.1351 7.50032 12.5128 7.03068 14 7.03068C15.9578 7.03068 17.7286 7.84109 19.0002 9.14129V1.03066C19.0002 0.479483 18.5516 0.0308617 17.9998 0.0308617L10 0.0307617ZM4.50006 2.03097C4.77644 2.03097 5.00021 2.25475 5.00021 2.53113V4.03115H6.50023C6.77661 4.03115 6.9999 4.25449 6.99994 4.53088C6.99994 4.80726 6.77661 5.03104 6.50023 5.03104H5.00021V6.53106C5.00021 6.80744 4.77644 7.03078 4.50006 7.03078C4.22368 7.03078 4.00034 6.80744 4.00034 6.53106V5.03104H2.50033C2.22395 5.03104 2.00023 4.80722 2.00017 4.53088C2.00017 4.25449 2.22351 4.03115 2.49989 4.03115H3.9999V2.53113C3.9999 2.25475 4.22368 2.03097 4.50006 2.03097ZM12.4998 4.03071H16.4998C16.7762 4.03071 17 4.25449 17 4.53088C17 4.80726 16.7762 5.03104 16.4998 5.03104H12.4998C12.2234 5.03104 11.9997 4.80726 11.9997 4.53088C11.9997 4.25449 12.2234 4.03071 12.4998 4.03071ZM13.9998 8.03113C10.6912 8.03113 8.00026 10.7223 8.00026 14.0307C8.00026 17.3392 10.6914 20.0308 14 20.0308C17.3086 20.0308 20 17.3392 20 14.0307C20 10.7221 17.3084 8.03113 14 8.03113H13.9998ZM9.99995e-05 10.0307V18.0306C9.99995e-05 18.5818 0.448638 19.0309 1.00039 19.0309H9.11055C7.81056 17.7593 7.00016 15.9886 7.00016 14.0308C7.00016 12.5434 7.47016 11.1658 8.26416 10.0308L9.99995e-05 10.0307ZM11.5 12.0305H16.4998C16.7762 12.0305 16.9999 12.2543 17 12.5306C17 12.807 16.7762 13.0308 16.4998 13.0308H11.5C11.2237 13.0308 10.9999 12.807 10.9999 12.5306C10.9999 12.2543 11.2237 12.0305 11.5 12.0305ZM3.00008 12.5306C3.12801 12.5306 3.25604 12.5795 3.3537 12.6772L4.5001 13.8236L5.64649 12.6772C5.84177 12.4818 6.15843 12.4818 6.35375 12.6772C6.54907 12.8725 6.54898 13.1887 6.35375 13.384L5.20735 14.5308L6.35375 15.6772C6.54907 15.8725 6.54907 16.1887 6.35375 16.384C6.25606 16.4817 6.12805 16.5306 6.00013 16.5306C5.87221 16.5306 5.74415 16.4817 5.64651 16.384L4.50012 15.2376L3.35372 16.384C3.25604 16.4817 3.12802 16.5306 3.0001 16.5306C2.87219 16.5306 2.74455 16.4817 2.64691 16.384C2.45158 16.1888 2.45158 15.8725 2.64691 15.6772L3.7933 14.5308L2.64691 13.384C2.45158 13.1887 2.45158 12.8725 2.64691 12.6772C2.74455 12.5795 2.87217 12.5306 3.00008 12.5306ZM11.5 15.0304H16.4998C16.7762 15.0304 16.9999 15.2542 17 15.5306C17 15.807 16.7762 16.0308 16.4998 16.0308H11.5C11.2237 16.0308 10.9999 15.807 10.9999 15.5306C10.9999 15.2542 11.2237 15.0304 11.5 15.0304Z" fill="white"/>
</svg>
