<svg width="28" height="39" viewBox="0 0 28 39" fill="none" xmlns="http://www.w3.org/2000/svg">
<path fill-rule="evenodd" clip-rule="evenodd" d="M21.8817 30.669H5.37468C4.44736 30.669 3.6963 31.42 3.6963 32.3473V37.1823H23.5601V32.3473C23.5601 31.42 22.809 30.669 21.8817 30.669ZM5.37468 29.793C3.96316 29.793 2.82031 30.9376 2.82031 32.3473V38.0583H24.4361V32.3473C24.4361 30.9375 23.2932 29.793 21.8817 29.793H5.37468Z" fill="#571BAD" stroke="#571BAD"/>
<path fill-rule="evenodd" clip-rule="evenodd" d="M9.57209 11.6982C9.53103 11.6982 9.48655 11.7376 9.49339 11.794C10.2479 18.0472 8.40012 25.3459 7.26235 29.7259C7.25037 29.7686 7.28117 29.8148 7.3325 29.8148H20.0255C20.0512 29.8148 20.0751 29.8028 20.0974 29.7738C20.1179 29.743 20.1247 29.7053 20.1128 29.6711C19.5498 27.8763 18.9887 24.8138 18.6568 21.5118C18.3232 18.208 18.2154 14.627 18.5781 11.7954C18.5849 11.7372 18.5404 11.6978 18.4977 11.6978L9.57209 11.6982ZM8.62424 11.9001C8.5558 11.3372 8.98866 10.8223 9.57209 10.8223H18.4979C19.0847 10.8223 19.5193 11.3424 19.4458 11.907C19.0968 14.6444 19.1977 18.1519 19.5279 21.4246C19.8581 24.6975 20.4124 27.6948 20.9497 29.4091C21.1413 30.0182 20.7016 30.6906 20.0258 30.6906H7.33277C6.71512 30.6906 6.25663 30.1089 6.414 29.505C7.56031 25.0979 9.35476 17.9602 8.62424 11.9001Z" fill="#571BAD" stroke="#571BAD"/>
<path fill-rule="evenodd" clip-rule="evenodd" d="M11.5637 1.93459C11.5227 1.93459 11.4902 1.9671 11.4902 2.00816V6.41217C11.4902 6.9357 11.0659 7.36002 10.5423 7.36002H8.03928C7.64406 7.36002 7.28992 7.11537 7.15134 6.74583L5.56703 2.53016C5.55506 2.50107 5.52768 2.48225 5.4986 2.48225H1.95016C1.89884 2.48225 1.86291 2.53358 1.88173 2.58148L5.12733 10.7767C5.1376 10.8041 5.16497 10.8229 5.19577 10.8229H22.3269C22.3543 10.8229 22.38 10.8075 22.392 10.7819L26.5289 2.58837C26.5546 2.54046 26.5187 2.48229 26.4639 2.48229H22.9566C22.9292 2.48229 22.9035 2.49769 22.8915 2.52335L20.6126 7.06927C20.4518 7.38921 20.1233 7.5928 19.764 7.5928H16.8178C16.2943 7.5928 15.87 7.16678 15.87 6.64323V2.0084C15.87 1.96734 15.8375 1.93484 15.7964 1.93484L11.5637 1.93459ZM10.6142 2.00816C10.6142 1.48292 11.0402 1.05859 11.5637 1.05859H15.7965C16.3218 1.05859 16.7461 1.4829 16.7461 2.00816V6.64299C16.7461 6.68405 16.7786 6.71656 16.818 6.71656H19.7642C19.7915 6.71656 19.8172 6.70116 19.8292 6.6755L22.1081 2.12958C22.2689 1.80964 22.5974 1.60605 22.9567 1.60605H26.464C27.1707 1.60605 27.6309 2.35199 27.3109 2.98331L23.174 11.1768C23.0132 11.4968 22.6847 11.6986 22.3271 11.6986H5.19591C4.80582 11.6986 4.4568 11.4608 4.31309 11.0981L1.06749 2.90461C0.821117 2.28183 1.27964 1.60605 1.9503 1.60605H5.49874C5.89395 1.60605 6.2481 1.85071 6.38668 2.22024L7.97098 6.43762C7.98296 6.465 8.01033 6.48382 8.03942 6.48382H10.5425C10.5818 6.48382 10.6143 6.45131 10.6143 6.41196L10.6142 2.00816Z" fill="#571BAD" stroke="#571BAD"/>
</svg>
