<svg width="33" height="34" viewBox="0 0 33 34" fill="none" xmlns="http://www.w3.org/2000/svg">
<path d="M5.78109 0.65918L0 6.44158L3.57625 10.0186L6.43628 7.15803L8.36838 9.08972L5.50801 11.9507L8.19047 14.6338L13.982 8.86182L5.78109 0.65918Z" fill="#571BAD"/>
<path d="M24.1569 19.041L19.9657 23.2179L20.9182 24.1703L19.3203 25.7683L21.9935 28.442L24.8534 25.5814L26.7855 27.5132L23.9251 30.3741L26.6102 33.0598L32.3913 27.2774L24.1569 19.041Z" fill="#571BAD"/>
<path d="M21.5703 5.14567L27.8961 11.448L32.9932 6.36718C32.9966 6.36375 32.9996 6.36081 32.9996 6.35191C32.9996 6.343 32.9966 6.34006 32.9933 6.3368L26.6982 0.0650266C26.6896 0.056368 26.6758 0.0565314 26.6672 0.0650266L21.5703 5.14567Z" fill="#571BAD"/>
<path d="M2.42718 25.582L0.4375 32.5883L7.40874 30.5452L2.42718 25.582Z" fill="#571BAD"/>
<path d="M23.7883 11.2051L7.83594 27.1609L9.99201 29.3091L25.9733 13.3821L23.7883 11.2051Z" fill="#571BAD"/>
<path d="M21.8506 9.27618L19.6454 7.0791L3.66406 23.006L5.89814 25.2319L21.8506 9.27618Z" fill="#571BAD"/>
</svg>
