<svg width="32" height="46" viewBox="0 0 32 46" fill="none" xmlns="http://www.w3.org/2000/svg">
<path d="M20.775 23.4673C23.2658 23.4673 25.1561 21.8737 25.6371 19.4861C28.6032 19.4345 31 17.1464 31 14.3406C31 12.5996 30.042 10.9821 28.5331 10.0443C28.8813 9.36082 29.0619 8.6147 29.0619 7.83721C29.0619 4.99823 26.6135 2.69171 23.6051 2.69171C22.601 2.69171 21.6191 2.95516 20.7698 3.44151C19.9113 1.63054 17.9824 0.390625 15.7847 0.390625C13.6899 0.390625 11.8366 1.49971 10.9226 3.19645C10.1912 2.86668 9.38061 2.69167 8.56445 2.69167C5.55596 2.69167 3.1039 4.99823 3.1039 7.83717C3.1039 8.58145 3.2734 9.30366 3.59397 9.96503C2.00406 10.8898 1 12.535 1 14.3423C1 17.1813 3.44843 19.4878 6.46055 19.4878H6.49739C6.97822 21.8736 8.87027 23.4691 11.3646 23.4691C11.6428 23.4691 11.921 23.4506 12.1955 23.4119V26.2473L6.61139 26.2454C5.05463 26.2454 3.7816 27.5148 3.7816 29.0752V29.9816C3.7816 31.5421 5.05463 32.8114 6.61139 32.8114H6.64455L8.12024 44.2339C8.18104 44.7055 8.58266 45.0592 9.0543 45.0592H22.9396C23.4168 45.0592 23.8166 44.7055 23.8773 44.2339L25.353 32.8114H25.3807C26.9411 32.8114 28.2105 31.5421 28.2105 29.9816V29.0752C28.2105 27.5148 26.9411 26.2454 25.3807 26.2454H19.8041V23.388C20.1247 23.4396 20.4453 23.4673 20.775 23.4673ZM22.1144 43.1725H9.88497L8.54563 32.8113H23.4534L22.1144 43.1725ZM25.3826 28.1317C25.5484 28.1317 25.7032 28.1741 25.8358 28.2552C26.1288 28.4099 26.3259 28.7213 26.3259 29.075V29.9814C26.3259 30.4254 26.0201 30.8013 25.6 30.8971C25.53 30.9155 25.4582 30.9247 25.3826 30.9247H6.61123C6.5357 30.9247 6.46569 30.9155 6.39937 30.9008C5.97932 30.8013 5.66796 30.4236 5.66796 29.9815V29.075C5.66796 28.7213 5.86693 28.4099 6.15803 28.2552C6.29068 28.1741 6.44544 28.1318 6.61124 28.1318L25.3826 28.1317ZM19.2368 21.2601C18.9439 21.133 18.6104 21.1606 18.3415 21.3356C18.078 21.5106 17.9177 21.8072 17.9177 22.1241V26.2454H14.0839V22.1886C14.0839 21.8717 13.9291 21.5806 13.6694 21.4056C13.4096 21.2306 13.0853 21.1937 12.7924 21.3116C12.3392 21.4904 11.8639 21.5806 11.3683 21.5806C9.30677 21.5806 8.33035 19.9999 8.27508 18.4303C8.26034 18.1576 8.13322 17.9015 7.92136 17.732C7.70949 17.557 7.43128 17.487 7.16231 17.5386C4.90362 17.9439 2.88999 16.3503 2.88999 14.3403C2.88999 12.9678 3.84245 11.7372 5.26659 11.2747C5.5632 11.1753 5.78982 10.9394 5.88009 10.6428C5.97036 10.3462 5.90404 10.0202 5.70507 9.78066C5.23897 9.20956 4.99211 8.54079 4.99211 7.83702C4.99211 6.04076 6.5949 4.57795 8.56617 4.57795C9.40073 4.57795 10.1837 4.83219 10.8304 5.31856C11.0846 5.512 11.4144 5.5599 11.7129 5.45489C12.0095 5.35172 12.2361 5.10116 12.3116 4.79903C12.6893 3.31415 14.117 2.27505 15.788 2.27505C17.5898 2.27505 19.1134 3.50573 19.3345 5.138C19.3824 5.49172 19.6274 5.79385 19.9719 5.90624C20.3109 6.01862 20.6886 5.92466 20.9428 5.67042C21.6226 4.97217 22.5935 4.57609 23.6068 4.57609C25.5744 4.57609 27.1772 6.03891 27.1772 7.83516C27.1772 8.55732 26.9229 9.24086 26.4366 9.81564C26.2376 10.0515 26.1676 10.3683 26.2523 10.6649C26.3334 10.9671 26.5545 11.2029 26.8419 11.3116C28.2236 11.8017 29.1153 12.9955 29.1153 14.3404C29.1153 16.1366 27.5125 17.5994 25.5412 17.5994C25.3625 17.5994 25.1783 17.5847 24.9572 17.5515C24.6937 17.5092 24.4193 17.5847 24.2166 17.7597C24.0084 17.9292 23.8868 18.1798 23.8721 18.4432C23.8113 19.8913 22.9657 21.5788 20.7788 21.5788C20.2427 21.5807 19.7287 21.4719 19.2368 21.2601Z" fill="#571BAD" stroke="#571BAD" stroke-width="0.5"/>
<path d="M10.0684 13.8088C9.7202 13.4219 9.12514 13.3888 8.73458 13.7388C8.34769 14.087 8.31453 14.6821 8.66457 15.0689L12.1834 18.9967C12.3676 19.2049 12.6274 19.3081 12.8853 19.3081C13.1064 19.3081 13.333 19.2325 13.5117 19.0667C13.9022 18.7222 13.9354 18.1235 13.5872 17.7366L10.0684 13.8088Z" fill="#571BAD" stroke="#571BAD" stroke-width="0.5"/>
<path d="M23.5128 13.7381C23.1259 13.3899 22.5272 13.4212 22.1826 13.8081L18.6638 17.7359C18.3156 18.1227 18.347 18.7215 18.7338 19.066C18.9181 19.2318 19.1392 19.3073 19.3657 19.3073C19.6255 19.3073 19.8797 19.2042 20.0677 18.996L23.5865 15.0682C23.9328 14.6813 23.8997 14.0863 23.5128 13.7381Z" fill="#571BAD" stroke="#571BAD" stroke-width="0.5"/>
<path d="M16.1151 12.9404C15.5956 12.9404 15.1719 13.3642 15.1719 13.8837V18.3642C15.1719 18.8874 15.5956 19.3075 16.1151 19.3075C16.6384 19.3075 17.0584 18.8874 17.0584 18.3642V13.8837C17.0584 13.366 16.6384 12.9404 16.1151 12.9404Z" fill="#571BAD" stroke="#571BAD" stroke-width="0.5"/>
</svg>
