<svg width="51" height="52" viewBox="0 0 51 52" fill="none" xmlns="http://www.w3.org/2000/svg">
<path d="M41.5377 40.052C41.2774 40.052 41.066 40.2633 41.066 40.5237V49.6435C41.066 49.9029 40.8538 50.1152 40.5943 50.1152H1.91509C1.65566 50.1152 1.4434 49.9029 1.4434 49.6435V2.47369C1.4434 2.21425 1.65566 2.00199 1.91509 2.00199H40.5943C40.8538 2.00199 41.066 2.21425 41.066 2.47369V10.1935C41.066 10.4539 41.2774 10.6652 41.5377 10.6652C41.7981 10.6652 42.0094 10.4539 42.0094 10.1935V2.47369C42.0094 1.6935 41.3745 1.05859 40.5943 1.05859H1.91509C1.13491 1.05859 0.5 1.6935 0.5 2.47369V49.6435C0.5 50.4237 1.13491 51.0586 1.91509 51.0586H40.5943C41.3745 51.0586 42.0094 50.4237 42.0094 49.6435V40.5237C42.0094 40.2633 41.7981 40.052 41.5377 40.052Z" fill="#571BAD" stroke="#571BAD" stroke-width="0.6"/>
<path d="M37.764 10.666C38.0244 10.666 38.2357 10.4547 38.2357 10.1943V7.19052C38.2357 6.93014 38.0244 6.71882 37.764 6.71882C36.9838 6.71882 36.3489 6.08392 36.3489 5.30373C36.3489 5.04335 36.1376 4.83203 35.8772 4.83203H6.63193C6.37155 4.83203 6.16023 5.04335 6.16023 5.30373C6.16023 6.08392 5.52532 6.71882 4.74514 6.71882C4.48476 6.71882 4.27344 6.93014 4.27344 7.19052V44.9264C4.27344 45.1867 4.48476 45.3981 4.74514 45.3981C5.52532 45.3981 6.16023 46.033 6.16023 46.8132C6.16023 47.0735 6.37155 47.2849 6.63193 47.2849H35.8772C36.1376 47.2849 36.3489 47.0735 36.3489 46.8132C36.3489 46.033 36.9838 45.3981 37.764 45.3981C38.0244 45.3981 38.2357 45.1867 38.2357 44.9264V40.5235C38.2357 40.2632 38.0244 40.0518 37.764 40.0518C37.5036 40.0518 37.2923 40.2632 37.2923 40.5235V44.5018C36.3687 44.6905 35.6414 45.4188 35.4527 46.3415H7.05646C6.86778 45.4179 6.13948 44.6905 5.21683 44.5018V7.61505C6.14042 7.42637 6.86778 6.69807 7.05646 5.77543H35.4527C35.6414 6.69807 36.3697 7.42637 37.2923 7.61505V10.1934C37.2923 10.4547 37.5036 10.666 37.764 10.666Z" fill="#571BAD" stroke="#571BAD" stroke-width="0.6"/>
<path d="M50.5028 22.2846C50.5028 16.3025 45.6358 11.4355 39.6537 11.4355C33.6717 11.4355 28.8047 16.3025 28.8047 22.2846C28.8047 25.9922 30.6764 29.2676 33.5217 31.2252V41.1525C33.5217 41.3271 33.6179 41.4855 33.7707 41.5676C33.9236 41.6506 34.1094 41.6403 34.2556 41.545L39.6547 37.9459L45.0537 41.545C45.132 41.5978 45.2226 41.6242 45.3141 41.6242C45.3905 41.6242 45.467 41.6054 45.5368 41.5676C45.6896 41.4855 45.7858 41.3271 45.7858 41.1525V31.2252C48.6311 29.2676 50.5028 25.9922 50.5028 22.2846ZM44.8424 40.2705L39.9151 36.9865C39.7566 36.8818 39.55 36.8818 39.3915 36.9865L34.4651 40.2705V31.8091C36.0075 32.6525 37.7754 33.1337 39.6537 33.1337C41.532 33.1337 43.3 32.6525 44.8424 31.8091V40.2705ZM39.6537 32.1903C34.1915 32.1903 29.7481 27.7469 29.7481 22.2846C29.7481 16.8223 34.1915 12.3789 39.6537 12.3789C45.116 12.3789 49.5594 16.8223 49.5594 22.2846C49.5594 27.7469 45.116 32.1903 39.6537 32.1903Z" fill="#571BAD" stroke="#571BAD" stroke-width="0.6"/>
<path d="M46.2496 21.8128C45.9892 21.8128 45.7779 22.0241 45.7779 22.2845C45.7779 25.6656 43.0269 28.4165 39.6458 28.4165C36.2647 28.4165 33.5137 25.6656 33.5137 22.2845C33.5137 18.9033 36.2647 16.1524 39.6458 16.1524C41.0288 16.1524 42.3345 16.6024 43.4222 17.4524C43.625 17.6137 43.9213 17.5788 44.0835 17.3712C44.2439 17.1665 44.208 16.8703 44.0024 16.7099C42.7477 15.7279 41.2411 15.209 39.6458 15.209C35.7439 15.209 32.5703 18.3826 32.5703 22.2845C32.5703 26.1863 35.7439 29.3599 39.6458 29.3599C43.5477 29.3599 46.7213 26.1863 46.7213 22.2845C46.7213 22.0241 46.5099 21.8128 46.2496 21.8128Z" fill="#571BAD" stroke="#571BAD" stroke-width="0.6"/>
<path d="M36.7034 22.0273C36.5194 21.8434 36.2204 21.8434 36.0364 22.0273C35.8524 22.2113 35.8524 22.5103 36.0364 22.6943L38.9826 25.6415C39.0713 25.7302 39.1911 25.7802 39.3157 25.7802C39.4402 25.7802 39.5609 25.7302 39.6496 25.6415L45.7996 19.4915C45.9836 19.3075 45.9836 19.0085 45.7996 18.8245C45.6157 18.6405 45.3166 18.6405 45.1326 18.8245L39.3157 24.6415L36.7034 22.0273Z" fill="#571BAD" stroke="#571BAD" stroke-width="0.6"/>
<path d="M26.9175 12.3789C27.1778 12.3789 27.3892 12.1676 27.3892 11.9072C27.3892 11.6469 27.1778 11.4355 26.9175 11.4355H15.5967C15.3363 11.4355 15.125 11.6469 15.125 11.9072C15.125 12.1676 15.3363 12.3789 15.5967 12.3789H26.9175Z" fill="#571BAD" stroke="#571BAD" stroke-width="0.6"/>
<path d="M30.2282 15.6807C30.2282 15.4203 30.0169 15.209 29.7565 15.209H24.0811C23.8207 15.209 23.6094 15.4203 23.6094 15.6807C23.6094 15.9411 23.8207 16.1524 24.0811 16.1524H29.7565C30.0169 16.1524 30.2282 15.9411 30.2282 15.6807Z" fill="#571BAD" stroke="#571BAD" stroke-width="0.6"/>
<path d="M8.51562 15.6807C8.51562 15.9411 8.72695 16.1524 8.98732 16.1524H21.2515C21.5119 16.1524 21.7232 15.9411 21.7232 15.6807C21.7232 15.4203 21.5119 15.209 21.2515 15.209H8.98732C8.72695 15.209 8.51562 15.4203 8.51562 15.6807Z" fill="#571BAD" stroke="#571BAD" stroke-width="0.6"/>
<path d="M28.2512 19.4551C28.2512 19.1947 28.0399 18.9834 27.7795 18.9834H18.4248C18.1644 18.9834 17.9531 19.1947 17.9531 19.4551C17.9531 19.7155 18.1644 19.9268 18.4248 19.9268H27.7795C28.0399 19.9268 28.2512 19.7155 28.2512 19.4551Z" fill="#571BAD" stroke="#571BAD" stroke-width="0.6"/>
<path d="M8.98732 19.9268H15.5911C15.8515 19.9268 16.0628 19.7155 16.0628 19.4551C16.0628 19.1947 15.8515 18.9834 15.5911 18.9834H8.98732C8.72695 18.9834 8.51562 19.1947 8.51562 19.4551C8.51562 19.7155 8.72695 19.9268 8.98732 19.9268Z" fill="#571BAD" stroke="#571BAD" stroke-width="0.6"/>
<path d="M27.4294 22.7568H21.2529C20.9926 22.7568 20.7812 22.9682 20.7812 23.2285C20.7812 23.4889 20.9926 23.7002 21.2529 23.7002H27.4294C27.6897 23.7002 27.9011 23.4889 27.9011 23.2285C27.9011 22.9682 27.6897 22.7568 27.4294 22.7568Z" fill="#571BAD" stroke="#571BAD" stroke-width="0.6"/>
<path d="M8.98732 23.7002H18.4213C18.6817 23.7002 18.893 23.4889 18.893 23.2285C18.893 22.9682 18.6817 22.7568 18.4213 22.7568H8.98732C8.72695 22.7568 8.51562 22.9682 8.51562 23.2285C8.51562 23.4889 8.72695 23.7002 8.98732 23.7002Z" fill="#571BAD" stroke="#571BAD" stroke-width="0.6"/>
<path d="M28.5201 26.5303H18.4248C18.1644 26.5303 17.9531 26.7416 17.9531 27.002C17.9531 27.2623 18.1644 27.4737 18.4248 27.4737H28.5201C28.7805 27.4737 28.9918 27.2623 28.9918 27.002C28.9918 26.7416 28.7805 26.5303 28.5201 26.5303Z" fill="#571BAD" stroke="#571BAD" stroke-width="0.6"/>
<path d="M8.98732 27.4737H15.5911C15.8515 27.4737 16.0628 27.2623 16.0628 27.002C16.0628 26.7416 15.8515 26.5303 15.5911 26.5303H8.98732C8.72695 26.5303 8.51562 26.7416 8.51562 27.002C8.51562 27.2623 8.72695 27.4737 8.98732 27.4737Z" fill="#571BAD" stroke="#571BAD" stroke-width="0.6"/>
<path d="M31.3226 30.7754C31.3226 30.515 31.1113 30.3037 30.8509 30.3037H24.0811C23.8207 30.3037 23.6094 30.515 23.6094 30.7754C23.6094 31.0358 23.8207 31.2471 24.0811 31.2471H30.8509C31.1113 31.2471 31.3226 31.0358 31.3226 30.7754Z" fill="#571BAD" stroke="#571BAD" stroke-width="0.6"/>
<path d="M8.98732 31.2471H21.2515C21.5119 31.2471 21.7232 31.0358 21.7232 30.7754C21.7232 30.515 21.5119 30.3037 21.2515 30.3037H8.98732C8.72695 30.3037 8.51562 30.515 8.51562 30.7754C8.51562 31.0358 8.72695 31.2471 8.98732 31.2471Z" fill="#571BAD" stroke="#571BAD" stroke-width="0.6"/>
<path d="M26.9114 34.5488C26.9114 34.2885 26.7001 34.0771 26.4397 34.0771H20.3076C20.0473 34.0771 19.8359 34.2885 19.8359 34.5488C19.8359 34.8092 20.0473 35.0205 20.3076 35.0205H26.4397C26.7001 35.0205 26.9114 34.8092 26.9114 34.5488Z" fill="#571BAD" stroke="#571BAD" stroke-width="0.6"/>
<path d="M8.98732 35.0205H17.4779C17.7383 35.0205 17.9496 34.8092 17.9496 34.5488C17.9496 34.2885 17.7383 34.0771 17.4779 34.0771H8.98732C8.72695 34.0771 8.51562 34.2885 8.51562 34.5488C8.51562 34.8092 8.72695 35.0205 8.98732 35.0205Z" fill="#571BAD" stroke="#571BAD" stroke-width="0.6"/>
<path d="M8.98732 38.5586C9.51468 38.5586 9.79298 38.9284 10.2034 39.5313C10.6232 40.1483 11.1458 40.9171 12.1977 40.9171C13.2185 40.9171 13.742 40.302 14.1628 39.8077C14.5854 39.3115 14.8515 39.0303 15.409 39.0303C16.0317 39.0303 16.3269 39.2898 16.6996 39.62C17.1156 39.9879 17.6345 40.4454 18.6147 40.4454C19.5439 40.4454 20.0288 40.1596 20.4562 39.9086C20.842 39.6822 21.1458 39.502 21.8194 39.502C22.5524 39.502 22.91 39.6067 23.2883 39.7181C23.6949 39.8379 24.1552 39.9737 25.0241 39.9737C25.2845 39.9737 25.4958 39.7624 25.4958 39.502C25.4958 39.2416 25.2845 39.0303 25.0241 39.0303C24.2911 39.0303 23.9335 38.9256 23.5552 38.8143C23.1486 38.6945 22.6883 38.5586 21.8194 38.5586C20.8892 38.5586 20.4043 38.8445 19.9769 39.0954C19.592 39.3218 19.2864 39.502 18.6147 39.502C17.992 39.502 17.6968 39.2426 17.3241 38.9124C16.9081 38.5445 16.3892 38.0869 15.409 38.0869C14.3883 38.0869 13.8647 38.702 13.4439 39.1964C13.0213 39.6926 12.7543 39.9737 12.1977 39.9737C11.6713 39.9737 11.393 39.6039 10.9826 39.0011C10.5628 38.3841 10.0392 37.6152 8.98732 37.6152C8.72695 37.6152 8.51563 37.8266 8.51563 38.0869C8.51562 38.3473 8.72695 38.5586 8.98732 38.5586Z" fill="#571BAD" stroke="#571BAD" stroke-width="0.6"/>
</svg>
