<svg width="47" height="35" viewBox="0 0 47 35" fill="none" xmlns="http://www.w3.org/2000/svg">
<path d="M12.1269 12.6877C12.1179 12.4371 11.9083 12.2411 11.6604 12.2502L8.70623 12.3664C8.5868 12.371 8.47413 12.4234 8.39301 12.5123C8.31189 12.6011 8.26907 12.7174 8.27358 12.8381L8.32991 14.3034C8.33442 14.4241 8.38625 14.5381 8.47413 14.6201C8.55751 14.6976 8.66792 14.7409 8.78059 14.7409H8.79862L11.7528 14.6247C11.8723 14.6201 11.9849 14.5677 12.0661 14.4788C12.1472 14.39 12.19 14.2737 12.1855 14.153L12.1291 12.6877H12.1269ZM9.21099 13.8134L9.19071 13.2597L11.2458 13.1777L11.2661 13.7314L9.21099 13.8134ZM45.9997 13.6995C46.0087 13.9502 45.8149 14.1621 45.5671 14.1712L40.8259 14.3581H40.8078C40.5667 14.3581 40.3684 14.1667 40.3594 13.9205C40.3504 13.6699 40.5442 13.458 40.7921 13.4488L45.5332 13.262C45.7811 13.2529 45.9907 13.4488 45.9997 13.6995ZM37.8064 7.21663C37.6577 7.01382 37.7005 6.72897 37.9011 6.58088L41.4321 3.94439C41.6327 3.79399 41.9144 3.83729 42.0608 4.04009C42.2095 4.2429 42.1667 4.52775 41.9662 4.67584L38.4351 7.31233C38.354 7.37158 38.2616 7.4012 38.1669 7.4012C38.0295 7.4012 37.892 7.3374 37.8041 7.21662L37.8064 7.21663ZM42.4371 23.4002C42.3515 23.5392 42.205 23.6144 42.0541 23.6144C41.9729 23.6144 41.8895 23.5916 41.8174 23.546L38.4756 21.4382C38.2638 21.306 38.2007 21.0235 38.3314 20.8115C38.4621 20.5973 38.7415 20.5335 38.9511 20.6657L42.2929 22.7736C42.5047 22.9057 42.5678 23.1883 42.4371 23.4002ZM38.5883 14.5635C38.8272 13.9095 38.8001 13.1985 38.5094 12.565C38.221 11.9315 37.705 11.4484 37.056 11.2069C36.7586 11.0952 36.4476 11.0474 36.1366 11.0519C35.9991 9.02835 35.8211 7.14614 35.6138 5.57836C35.1136 1.80472 34.6629 1.39001 34.4939 1.23279C34.3429 1.09379 34.1919 1.05961 34.0793 1.05961H34.0612C34.0545 1.05961 34.0454 1.05733 34.0387 1.05961C33.89 1.06644 33.6917 1.14392 33.5227 1.40142C30.5978 4.18603 24.4122 8.72084 14.5488 9.53229L7.85196 9.79662C7.08807 9.82625 6.38498 10.2022 5.87347 10.8517C5.70672 11.0636 5.57827 11.3029 5.46786 11.5513L3.43757 11.631C2.04495 11.6857 0.952068 12.7772 1.00162 14.0647L1.15485 18.0411C1.20442 19.2944 2.31759 20.2766 3.6629 20.2766C3.69896 20.2766 3.73501 20.2766 3.77332 20.2743L5.80362 20.1945C6.31063 21.1289 7.20299 21.7578 8.21701 21.7578C8.25081 21.7578 8.28236 21.7578 8.31616 21.7555L9.72453 21.7008L10.0716 32.4726C10.0851 32.8759 10.2631 33.2587 10.5741 33.5482C10.9256 33.8763 11.4123 34.0586 11.9261 34.0586C11.9622 34.0586 11.996 34.0563 12.032 34.0563L14.5423 33.9333C15.5857 33.8808 16.4104 33.0947 16.3811 32.1764L16.1738 25.725L16.4014 25.7159C16.4803 25.7136 16.5569 25.7136 16.6335 25.7136C17.0706 25.7159 17.9787 25.7159 17.9878 24.6221C17.9878 24.5446 17.9901 24.4648 17.9923 24.3828C18.0081 23.6377 18.0329 22.3934 16.9174 22.3182C16.9017 22.3159 16.8859 22.3159 16.8701 22.3182L16.0657 22.3501L16.0364 21.4135C23.5628 20.8917 30.0906 22.8947 34.5504 27.1058C34.7127 27.3611 34.9087 27.4955 35.1385 27.4955H35.1476H35.1701C35.7064 27.4682 35.9024 26.8073 36.0376 26.0987C36.1638 25.4287 36.2607 24.483 36.3283 23.2844C36.4365 21.3452 36.4545 18.9024 36.3824 16.2613C37.3671 16.1793 38.2347 15.5412 38.5885 14.5683L38.5883 14.5635ZM3.7373 19.3603C2.84044 19.3967 2.08555 18.786 2.05624 18.0021L1.90302 14.0257C1.87372 13.2418 2.57905 12.5741 3.47591 12.5377L5.19752 12.4693C5.16597 12.6904 5.1502 12.9137 5.15921 13.1415L5.37103 18.6242C5.38004 18.8543 5.41159 19.0777 5.46117 19.2918L3.73956 19.3602L3.7373 19.3603ZM8.28015 20.8415C7.22107 20.8848 6.31747 19.873 6.26786 18.59L6.05603 13.1074C6.03125 12.4762 6.21828 11.8769 6.57882 11.4166C6.92584 10.9768 7.39002 10.7238 7.88803 10.7033L14.1482 10.4549L14.5403 20.5931L8.28015 20.8415ZM16.8744 23.225C17.0569 23.2524 17.1087 23.5281 17.0929 24.3598C17.0907 24.4441 17.0884 24.5285 17.0884 24.6105C17.0884 24.7085 17.0727 24.7518 17.0681 24.7677C17.0028 24.8019 16.7752 24.8019 16.6378 24.8019C16.5499 24.8019 16.4597 24.8019 16.3696 24.8065L16.1465 24.8156L16.0969 23.2592L16.8766 23.2296L16.8744 23.225ZM15.4817 32.2012C15.4953 32.6182 15.0446 32.9919 14.4993 33.017L11.989 33.14C11.678 33.156 11.3828 33.058 11.1845 32.8711C11.0899 32.7845 10.9772 32.6364 10.9704 32.4336L10.6234 21.6548L15.0243 21.4817C15.0288 21.4817 15.0333 21.4794 15.0378 21.4794C15.0423 21.4794 15.0468 21.4817 15.0513 21.4817C15.0806 21.4794 15.1099 21.4771 15.1392 21.4748L15.4862 32.1987L15.4817 32.2012ZM15.4367 20.541L15.0446 10.3917C18.9227 10.0271 22.6229 9.05176 26.0409 7.48398C29.0266 6.11443 31.769 4.28005 34.0155 2.1722C34.1687 2.57098 34.4369 3.52577 34.7321 5.77719C35.0363 8.09698 35.2774 11.0981 35.4104 14.2312C35.4307 14.7143 35.4487 15.1929 35.4622 15.6691C35.4554 15.6919 35.4419 15.7147 35.4397 15.7397C35.4284 15.8195 35.4464 15.8924 35.4712 15.9608C35.5433 18.4629 35.5388 20.8168 35.4532 22.7243C35.354 24.9141 35.176 25.9031 35.0589 26.3384C30.3109 21.9221 23.3865 19.8736 15.4407 20.5412L15.4367 20.541ZM37.7408 14.2471C37.5199 14.8556 36.9679 15.2703 36.3504 15.3432C36.3369 14.9626 36.3233 14.5775 36.3076 14.1901C36.276 13.4336 36.2377 12.6884 36.1926 11.957C36.3797 11.9615 36.5645 11.9911 36.7425 12.0595C37.1639 12.2167 37.5019 12.5312 37.6889 12.9436C37.8782 13.3561 37.8962 13.821 37.7408 14.2471Z" fill="#571BAD" stroke="#571BAD"/>
</svg>
