<svg width="45" height="44" viewBox="0 0 45 44" fill="none" xmlns="http://www.w3.org/2000/svg">
<path fill-rule="evenodd" clip-rule="evenodd" d="M14.8277 29.714V34.1623C14.8277 35.3425 15.2962 36.4739 16.131 37.3072C16.9643 38.142 18.0957 38.6106 19.276 38.6106H32.007L36.0209 42.6244C36.4435 43.047 37.0796 43.1745 37.6327 42.9476C38.1857 42.7208 38.5475 42.184 38.552 41.585L38.5712 38.6106H40.0347C41.215 38.6106 42.3464 38.142 43.1797 37.3072C44.0145 36.4739 44.483 35.3425 44.483 34.1623C44.483 29.0274 44.483 18.5383 44.483 13.4035C44.483 12.2232 44.0145 11.0919 43.1797 10.2586C42.3464 9.42375 41.215 8.9552 40.0347 8.9552H29.6554V4.5069C29.6554 3.32661 29.1868 2.19526 28.352 1.36194C27.5187 0.527145 26.3873 0.0585938 25.2071 0.0585938C20.0722 0.0585938 9.58313 0.0585938 4.4483 0.0585938C3.26802 0.0585938 2.13667 0.527145 1.30335 1.36194C0.468551 2.19526 0 3.32661 0 4.5069C0 9.64172 0 20.1308 0 25.2656C0 26.4459 0.468551 27.5773 1.30335 28.4106C2.13667 29.2454 3.26802 29.714 4.4483 29.714H5.93107V32.6795C5.93107 33.2785 6.29287 33.8198 6.84595 34.0496C7.4005 34.2794 8.03809 34.1519 8.46216 33.7278L12.476 29.714H14.8277ZM28.5833 26.7499L33.7003 26.7677L35.6932 31.7468C35.9957 32.5075 36.8601 32.8767 37.6193 32.5727C38.38 32.2703 38.7492 31.4058 38.4452 30.6466L32.5141 15.8189C32.2902 15.2555 31.7446 14.8863 31.1381 14.8863C30.5317 14.8863 29.986 15.2555 29.7621 15.8189L23.8311 30.6466C23.5271 31.4058 23.8963 32.2703 24.6569 32.5727C25.4161 32.8767 26.2806 32.5075 26.5831 31.7468L28.5833 26.7499ZM29.7681 23.7888L32.5127 23.7977L31.1381 20.3621L29.7681 23.7888ZM16.9881 11.9207C16.2467 13.5562 15.3125 15.257 14.1219 16.7338C13.643 16.154 13.2055 15.5402 12.8052 14.913C12.3648 14.222 11.4485 14.0203 10.7575 14.4592C10.068 14.8996 9.86485 15.8174 10.3052 16.5069C10.8212 17.3165 11.3906 18.0994 12.0193 18.8349C10.6819 19.8802 9.10716 20.6172 7.24777 20.8263C6.43373 20.9182 5.84803 21.6536 5.93996 22.4662C6.0319 23.2802 6.76735 23.8659 7.57991 23.774C10.1466 23.4833 12.301 22.4009 14.1011 20.8885C15.4801 22.0199 17.0667 22.9066 18.8831 23.4063C19.6719 23.6227 20.4889 23.1586 20.7054 22.3698C20.9233 21.581 20.4577 20.7639 19.6689 20.546C18.3611 20.1871 17.209 19.5644 16.1948 18.7741C18.198 16.3765 19.6215 13.4954 20.5986 10.9732C20.8937 10.2096 20.5141 9.35108 19.7505 9.05453C19.5948 8.99522 19.4346 8.96263 19.276 8.95669L15.6402 8.9552V7.47243C15.6402 6.65395 14.976 5.98967 14.1575 5.98967C13.339 5.98967 12.6747 6.65395 12.6747 7.47243V8.9552H7.41384C6.59535 8.9552 5.93107 9.61948 5.93107 10.438C5.93107 11.2565 6.59535 11.9207 7.41384 11.9207H16.9881Z" fill="#571BAD"/>
</svg>
