<svg width="43" height="38" viewBox="0 0 43 38" fill="none" xmlns="http://www.w3.org/2000/svg">
<path d="M41.1 16.6056V9.44831C41.1 7.83673 39.8676 6.60434 38.256 6.60434H29.7241V4.37656C29.7241 2.52798 28.2547 1.05859 26.4061 1.05859H15.6939C13.8453 1.05859 12.3759 2.52798 12.3759 4.37656V6.60434H3.84397C2.23239 6.60434 1 7.83673 1 9.44831V16.6056H41.1ZM15.2199 4.37656C15.2199 4.13956 15.4569 3.90257 15.6939 3.90257H26.4061C26.6431 3.90257 26.8801 4.13956 26.8801 4.37656V6.60434H15.2199V4.37656Z" stroke="#571BAD" stroke-width="2"/>
<path d="M27.4963 19.4492V24.7106C27.4963 25.5164 26.8801 26.1326 26.0743 26.1326H16.0257C15.2199 26.1326 14.6037 25.5164 14.6037 24.7106V19.4492H1V33.8587C1 35.4703 2.23239 36.7026 3.84397 36.7026H38.256C39.8676 36.7026 41.1 35.4703 41.1 33.8587V19.4492H27.4963Z" stroke="#571BAD" stroke-width="2"/>
<path d="M24.6579 19.4492H17.4531V23.2886H24.6579V19.4492Z" stroke="#571BAD" stroke-width="2"/>
</svg>
