<svg width="38" height="38" viewBox="0 0 38 38" fill="none" xmlns="http://www.w3.org/2000/svg">
<circle cx="19" cy="19" r="19" fill="#571BAD"/>
<path d="M16.4843 12.5619C16.3921 12.55 16.2983 12.5575 16.209 12.5839C16.1197 12.6102 16.0368 12.6549 15.9656 12.715C15.8944 12.7751 15.8365 12.8493 15.7955 12.9329C15.7545 13.0165 15.7313 13.1077 15.7275 13.2007C15.7237 13.2936 15.7393 13.3863 15.7733 13.4727C15.8073 13.5592 15.8589 13.6375 15.925 13.7028C15.991 13.7681 16.07 13.8188 16.1569 13.8518C16.2437 13.8848 16.3366 13.8993 16.4295 13.8944L23.2327 14.1548L11.5336 24.967C11.4135 25.0904 11.3451 25.255 11.3426 25.4269C11.3401 25.5988 11.4036 25.7648 11.5201 25.8909C11.6366 26.0169 11.7972 26.0933 11.9687 26.1043C12.1402 26.1154 12.3097 26.0602 12.4422 25.9501L24.1413 15.1379L23.8562 21.9414C23.8531 22.117 23.9177 22.2868 24.0367 22.4156C24.1557 22.5443 24.3199 22.6221 24.4952 22.6328C24.5827 22.6362 24.6701 22.6224 24.7524 22.592C24.8347 22.5616 24.9102 22.5153 24.9747 22.4557C25.0391 22.3962 25.0912 22.3245 25.128 22.2449C25.1647 22.1652 25.1855 22.0792 25.1889 21.9916L25.5351 13.5702C25.5404 13.4823 25.5279 13.3943 25.4984 13.3115C25.4689 13.2287 25.4229 13.1527 25.3632 13.0882C25.3036 13.0236 25.2315 12.9718 25.1512 12.9358C25.071 12.8999 24.9842 12.8805 24.8962 12.8789L16.4843 12.5619Z" fill="white" stroke="white"/>
</svg>
