<svg width="20" height="21" viewBox="0 0 20 21" fill="none" xmlns="http://www.w3.org/2000/svg">
<g clip-path="url(#clip0_771_14134)">
<path fill-rule="evenodd" clip-rule="evenodd" d="M9.98143 2.33063C9.38424 2.31984 8.79078 2.42693 8.23502 2.64576C7.67926 2.86459 7.17211 3.19087 6.74259 3.60593C6.31308 4.02098 5.96962 4.51666 5.73189 5.0646C5.49416 5.61255 5.36681 6.20199 5.35714 6.7992V13.0449C5.35714 13.4238 5.20663 13.7872 4.93872 14.0551C4.67081 14.323 4.30745 14.4735 3.92857 14.4735H2.14286C1.57454 14.4735 1.02949 14.2477 0.627628 13.8459C0.225765 13.444 0 12.8989 0 12.3306L0 9.47348C0 8.90516 0.225765 8.36012 0.627628 7.95826C1.02949 7.55639 1.57454 7.33063 2.14286 7.33063H3.21429V6.77349C3.22732 5.89548 3.41319 5.02863 3.76128 4.22247C4.10936 3.4163 4.61285 2.6866 5.24298 2.07504C5.87311 1.46348 6.61755 0.982041 7.43376 0.65822C8.24998 0.3344 9.12199 0.17454 10 0.187771C10.878 0.17454 11.75 0.3344 12.5662 0.65822C13.3825 0.982041 14.1269 1.46348 14.757 2.07504C15.3872 2.6866 15.8906 3.4163 16.2387 4.22247C16.5868 5.02863 16.7727 5.89548 16.7857 6.77349V7.33063H17.8571C18.4255 7.33063 18.9705 7.55639 19.3724 7.95826C19.7742 8.36012 20 8.90516 20 9.47348V12.3306C20 12.8989 19.7742 13.444 19.3724 13.8459C18.9705 14.2477 18.4255 14.4735 17.8571 14.4735H16.7857V15.1878C16.7859 16.1531 16.4306 17.0848 15.7877 17.8049C15.1448 18.525 14.2592 18.9832 13.3 19.0921C13.1137 19.4246 12.8421 19.7015 12.5131 19.8941C12.1842 20.0867 11.8098 20.1881 11.4286 20.1878H9.28571C8.71739 20.1878 8.17235 19.962 7.77049 19.5601C7.36862 19.1583 7.14286 18.6132 7.14286 18.0449C7.14286 17.4766 7.36862 16.9315 7.77049 16.5297C8.17235 16.1278 8.71739 15.9021 9.28571 15.9021H11.4286C12.2029 15.9021 12.8814 16.3121 13.2571 16.9278C13.6509 16.8373 14.0023 16.6159 14.254 16.2999C14.5057 15.9838 14.6428 15.5918 14.6429 15.1878V6.79777C14.6331 6.19748 14.5044 5.60509 14.2642 5.05485C14.0241 4.5046 13.6773 4.00741 13.2438 3.59201C12.8104 3.17662 12.2989 2.85126 11.7389 2.63475C11.1789 2.41825 10.5816 2.31488 9.98143 2.33063Z" fill="white" fill-opacity="0.8"/>
</g>
<defs>
<clipPath id="clip0_771_14134">
<rect width="20" height="20" fill="white" transform="translate(0 0.1875)"/>
</clipPath>
</defs>
</svg>
