<svg width="15" height="21" viewBox="0 0 15 21" fill="none" xmlns="http://www.w3.org/2000/svg">
<path d="M11.4475 4.13366C11.2294 4.13266 11.0537 3.95466 11.0528 3.73366V0.133789H0.394737C0.176645 0.134789 0.000985263 0.312789 0 0.533789V19.7338C0.000986779 19.9548 0.176645 20.1328 0.394737 20.1338H14.6053C14.8234 20.1328 14.999 19.9548 15 19.7338V4.13366H11.4475ZM5.13171 4.13366H9.86855C10.0866 4.13366 10.2633 4.31266 10.2633 4.53366C10.2633 4.75466 10.0866 4.93366 9.86855 4.93366H5.13171C4.91361 4.93366 4.73697 4.75466 4.73697 4.53366C4.73697 4.31266 4.91361 4.13366 5.13171 4.13366ZM12.237 16.9337H2.76328C2.54519 16.9337 2.36855 16.7547 2.36855 16.5337C2.36855 16.3127 2.54519 16.1337 2.76328 16.1337H12.237C12.4551 16.1337 12.6317 16.3127 12.6317 16.5337C12.6317 16.7547 12.4551 16.9337 12.237 16.9337ZM12.237 14.5337H2.76328C2.54519 14.5337 2.36855 14.3547 2.36855 14.1337C2.36855 13.9127 2.54519 13.7337 2.76328 13.7337H12.237C12.4551 13.7337 12.6317 13.9127 12.6317 14.1337C12.6317 14.3547 12.4551 14.5337 12.237 14.5337ZM12.237 12.1337H2.76328C2.54519 12.1337 2.36855 11.9547 2.36855 11.7337C2.36855 11.5127 2.54519 11.3337 2.76328 11.3337H12.237C12.4551 11.3337 12.6317 11.5127 12.6317 11.7337C12.6317 11.9547 12.4551 12.1337 12.237 12.1337ZM12.237 9.73366H2.76328C2.54519 9.73366 2.36855 9.55466 2.36855 9.33366C2.36855 9.11266 2.54519 8.93366 2.76328 8.93366H12.237C12.4551 8.93366 12.6317 9.11266 12.6317 9.33366C12.6317 9.55466 12.4551 9.73366 12.237 9.73366ZM12.237 7.33366H2.76328C2.54519 7.33366 2.36855 7.15466 2.36855 6.93366C2.36855 6.71266 2.54519 6.53366 2.76328 6.53366H12.237C12.4551 6.53366 12.6317 6.71266 12.6317 6.93366C12.6317 7.15466 12.4551 7.33366 12.237 7.33366ZM11.8422 0.365597V3.33366H14.7712L11.8422 0.365597Z" fill="white"/>
</svg>
