<svg width="35" height="35" viewBox="0 0 35 35" fill="none" xmlns="http://www.w3.org/2000/svg">
<path d="M1.09375 29.4346C1.09375 30.4851 1.94824 31.3398 2.99873 31.3398H24.0086C25.0591 31.3398 25.9141 30.4851 25.9141 29.4346V26.6615H26.8304L33.0352 31.2333C33.1308 31.3038 33.2446 31.3398 33.3594 31.3398C33.4438 31.3398 33.5281 31.3203 33.6061 31.2811C33.7904 31.1879 33.9062 30.9994 33.9062 30.793V15.9221C33.9062 15.7157 33.7904 15.5272 33.6061 15.434C33.4224 15.3413 33.2008 15.3595 33.0352 15.4818L26.8304 20.0539H25.9141V17.2805C25.9141 16.23 25.0591 15.3752 24.0086 15.3752H23.0854C24.7906 14.2234 25.9141 12.2728 25.9141 10.0646C25.9141 6.53312 23.0408 3.66016 19.5097 3.66016C16.8962 3.66016 14.6467 5.23583 13.6521 7.48544C12.6575 5.23583 10.408 3.66016 7.79457 3.66016C4.26338 3.66016 1.39015 6.53312 1.39015 10.0646C1.39015 12.2728 2.51361 14.2234 4.21885 15.3752H2.99873C1.94824 15.3752 1.09375 16.23 1.09375 17.2805V29.4346ZM32.8125 29.7107L27.5568 25.8382V20.8771L32.8125 17.0044V29.7107ZM26.4631 21.1476V25.5677H25.9141V21.1476H26.4631ZM19.5097 4.75391C22.4379 4.75391 24.8203 7.13634 24.8203 10.0646C24.8203 12.9928 22.4379 15.3752 19.5097 15.3752C16.5814 15.3752 14.199 12.9928 14.199 10.0646C14.199 7.13634 16.5814 4.75391 19.5097 4.75391ZM15.9339 15.3752H11.3703C12.3668 14.7021 13.1611 13.7544 13.6521 12.6437C14.1431 13.7544 14.9375 14.7021 15.9339 15.3752ZM2.4839 10.0646C2.4839 7.13634 4.86633 4.75391 7.79457 4.75391C10.7228 4.75391 13.1052 7.13634 13.1052 10.0646C13.1052 12.9928 10.7228 15.3752 7.79457 15.3752C4.86633 15.3752 2.4839 12.9928 2.4839 10.0646ZM2.1875 17.2805C2.1875 16.833 2.55119 16.469 2.99873 16.469H24.0086C24.4561 16.469 24.8203 16.833 24.8203 17.2805V20.6007V26.1146V29.4346C24.8203 29.8821 24.4561 30.2461 24.0086 30.2461H2.99873C2.55119 30.2461 2.1875 29.8821 2.1875 29.4346V17.2805Z" fill="#4E0684"/>
<path d="M7.79456 5.7666C5.42441 5.7666 3.49646 7.69455 3.49646 10.0644C3.49646 12.4343 5.42441 14.3623 7.79456 14.3623C10.1642 14.3623 12.0921 12.4343 12.0921 10.0644C12.0921 7.69455 10.1642 5.7666 7.79456 5.7666ZM7.79456 13.2685C6.02789 13.2685 4.59021 11.8311 4.59021 10.0644C4.59021 8.29777 6.02789 6.86035 7.79456 6.86035C9.56122 6.86035 10.9984 8.29777 10.9984 10.0644C10.9984 11.8311 9.56122 13.2685 7.79456 13.2685Z" fill="#4E0684"/>
<path d="M19.5097 13.8313C21.5866 13.8313 23.2764 12.1415 23.2764 10.0646C23.2764 7.98761 21.5866 6.29785 19.5097 6.29785C17.4327 6.29785 15.743 7.98761 15.743 10.0646C15.743 12.1415 17.4327 13.8313 19.5097 13.8313ZM19.5097 7.3916C20.9837 7.3916 22.1826 8.59056 22.1826 10.0646C22.1826 11.5386 20.9837 12.7375 19.5097 12.7375C18.0357 12.7375 16.8367 11.5386 16.8367 10.0646C16.8367 8.59056 18.0357 7.3916 19.5097 7.3916Z" fill="#4E0684"/>
</svg>
