<svg width="19" height="20" viewBox="0 0 19 20" fill="none" xmlns="http://www.w3.org/2000/svg">
<path d="M10.7723 1.68043V0.566675C10.7723 0.149595 10.2859 -0.11704 9.91024 0.0509956L2.30986 3.44827L10.7723 1.68043ZM8.2038 6.28358C5.71385 6.28358 3.694 8.28196 3.694 10.7474C3.694 13.2115 5.71338 15.2103 8.2038 15.2103C10.6952 15.2103 12.7136 13.2119 12.7136 10.7474C12.7136 8.28196 10.6952 6.28358 8.2038 6.28358ZM8.2038 5.91372C10.9024 5.91372 13.0888 8.07735 13.0888 10.7479C13.0888 13.417 10.9024 15.5806 8.2038 15.5806C5.50662 15.5806 3.32025 13.417 3.32025 10.7479C3.32025 8.07735 5.50662 5.91372 8.2038 5.91372ZM11.8927 10.2688C9.93035 10.1507 8.59112 10.9798 8.40401 12.8893C8.76981 12.4787 9.22074 12.0769 9.65577 11.8093C9.86393 11.6806 10.0613 11.9945 9.85317 12.1227C9.38493 12.4116 8.88909 12.8721 8.52563 13.317C10.4421 13.8642 11.735 12.0033 11.8927 10.2688ZM4.85969 8.81754C5.02528 10.5548 6.22278 12.1949 8.07657 11.6862C7.73696 11.3043 7.31269 10.921 6.89918 10.6655C6.69102 10.5382 6.88842 10.2234 7.09658 10.3521C7.5115 10.6095 7.93483 10.9807 8.28473 11.3612C8.31653 9.28045 6.82902 8.74394 4.85969 8.81754ZM4.65013 8.45786C6.85381 8.33195 8.56726 8.94484 8.65473 11.115C9.35499 10.1743 10.5801 9.78178 12.1022 9.91417C12.2042 9.91926 12.2837 10.0058 12.2786 10.1086C12.1644 12.2657 10.4819 14.4951 8.13083 13.5725C8.05926 13.5475 8.00874 13.4795 8.00734 13.4008C8.00453 12.8888 8.06815 12.4352 8.19304 12.0375C6.04363 12.6449 4.59306 10.7321 4.47378 8.65228C4.46723 8.54998 4.54675 8.46295 4.65013 8.45786ZM17.5148 16.4541L17.8091 17.0684C17.8315 17.1128 17.9218 17.1128 17.9442 17.0684L18.2385 16.4541C18.0041 16.4139 17.7496 16.4139 17.5148 16.4541ZM19 6.06324V4.43751C19 4.13199 18.8742 3.85378 18.6698 3.65288C18.2296 3.21728 17.5242 3.21728 17.084 3.65288C16.873 3.86165 16.7538 4.14078 16.7538 4.43751L16.7524 6.06324C17.3413 5.65912 18.4125 5.65912 19 6.06324ZM19 7.23625V6.59975C18.6885 5.97529 17.0653 5.97529 16.7524 6.59975L16.7538 7.23625C17.345 6.82796 18.4167 6.83352 19 7.23625ZM18.0373 14.0086V7.30846C17.6369 7.27837 16.9554 7.36864 16.7538 7.77183V14.3067C17.1093 14.0609 17.6117 13.9808 18.0373 14.0086ZM19 14.3062V7.77183C18.8924 7.55658 18.6365 7.43345 18.4111 7.37142V14.0609C18.6178 14.1081 18.8251 14.1868 19 14.3062ZM19 14.8677C19 14.2262 16.7538 14.2433 16.7538 14.8677L17.3492 16.1102C17.6898 16.0343 18.064 16.0343 18.4036 16.1102L19 14.8677ZM4.76567 16.8203C4.52056 16.8203 4.52056 16.4504 4.76567 16.4504H11.6419C11.8884 16.4504 11.8884 16.8203 11.6419 16.8203H4.76567ZM6.64846 17.9137C6.40194 17.9137 6.40194 17.5438 6.64846 17.5438H9.76055C10.0057 17.5438 10.0057 17.9137 9.76055 17.9137H6.64846ZM1.47582 19.7533V4.19494H0.612783C0.275986 4.19494 0 4.46806 0 4.80135V17.4494C0 18.4618 0.60483 19.3422 1.47582 19.7533ZM1.85004 4.19448V19.8949C2.08065 19.963 2.32483 20 2.5779 20H13.854C14.1908 20 14.4668 19.726 14.4668 19.3927V6.74418C14.4668 5.34157 13.3067 4.19448 11.8903 4.19448H1.85004ZM11.8899 3.82323C12.4479 3.82323 12.9704 3.97923 13.4176 4.24818V2.23546C13.4176 1.81282 13.0888 1.59248 12.6832 1.65821L2.32203 3.82323H11.8899Z" fill="white"/>
</svg>
